{
copyright = "~";
customParameters = (
{
name = glyphOrder;
value = (
    ".notdef",
    NULL,
    CR,
    space,
    gjA,
    gjAA,
    gjI,
    gjII,
    gjU,
    gjUU,
    gjvR,
    gjvRR,
    gjvL,
    gjvLL,
    gjE,
    gjAI,
    gjO,
    gjAU,
    gjEcandra,
    gjOcandra,
    gjmAA,
    gjmI,
    gjmII,
    gjmU,
    gjmUU,
    gjmvR,
    gjmvRR,
    gjmvL,
    gjmvLL,
    gjmE,
    gjmAI,
    gjmO,
    gjmAU,
    gjmEcandra,
    gjmOcandra,
    gjKA,
    gjKHA,
    gjGA,
    gjGHA,
    gjNGA,
    gjCA,
    gjCHA,
    gjJA,
    gjJHA,
    gjNYA,
    gjTTA,
    gjTTHA,
    gjDDA,
    gjDDHA,
    gjNNA,
    gjTA,
    gjTHA,
    gjDA,
    gjDHA,
    gjNA,
    gjPA,
    gjPHA,
    gjBA,
    gjBHA,
    gjMA,
    gjYA,
    gjRA,
    gjLA,
    gjVA,
    gjSHA,
    gjSSA,
    gjSA,
    gjHA,
    gjLLA,
    "gjK_SSA",
    "gjJ_NYA",
    gjAnusvara,
    gjCandrabindu,
    gjVisarga,
    gjVirama,
    gjNukta,
    gjAvagraha,
    udatta,
    anudatta,
    gjZero,
    gjOne,
    gjTwo,
    gjThree,
    gjFour,
    gjFive,
    gjSix,
    gjSeven,
    gjEight,
    gjNine,
    gjOm,
    gjAbbreviationsign,
    gjRupeesign,
    danda,
    doubledanda,
    indianrupee,
    zerowidthnonjoiner,
    zerowidthjoiner,
    dottedcircle,
    ITF,
    gjReph,
    gjRAc2,
    gjK,
    gjKH,
    gjG,
    gjGH,
    gjNG,
    gjC,
    gjCH,
    gjJ,
    gjJH,
    gjNY,
    gjTT,
    gjTTH,
    gjDD,
    gjDDH,
    gjNN,
    gjT,
    gjTH,
    gjD,
    gjDH,
    gjN,
    gjP,
    gjPH,
    gjB,
    gjBH,
    gjM,
    gjY,
    gjR,
    gjL,
    gjV,
    gjSH,
    gjSS,
    gjS,
    gjH,
    gjLL,
    "gjK_SS",
    "gjJ_NY",
    "gjK_RA",
    "gjKH_RA",
    "gjG_RA",
    "gjGH_RA",
    "gjNG_RA",
    "gjC_RA",
    "gjCH_RA",
    "gjJ_RA",
    "gjJH_RA",
    "gjNY_RA",
    "gjTT_RA",
    "gjTTH_RA",
    "gjDD_RA",
    "gjDDH_RA",
    "gjNN_RA",
    "gjT_RA",
    "gjTH_RA",
    "gjD_RA",
    "gjDH_RA",
    "gjN_RA",
    "gjP_RA",
    "gjPH_RA",
    "gjB_RA",
    "gjBH_RA",
    "gjM_RA",

glyphs = (
{
color = 0;
glyphname = .notdef;
lastChange = "2015-07-03 13:16:16 +0000";
layers = (
{
layerId = "AD34CA4C-F33B-4C65-9C83-752D01B8F810";
name = Light;
paths = (
{
closed = 1;
nodes = (
"180 0 LINE",
"570 0 LINE",
"570 701 LINE",
"180 701 LINE"
);
},
{
closed = 1;
nodes = (
"234 651 LINE",
"516 651 LINE",
"516 50 LINE",
"234 50 LINE"
);
}
);
width = 750;
},
{
layerId = UUID0;
name = Bold;
paths = (
{
closed = 1;
nodes = (
"160 0 LINE",
"596 0 LINE",
"596 701 LINE",
"160 701 LINE"
);
},
{
closed = 1;
nodes = (
"241 625 LINE",
"516 625 LINE",
"516 76 LINE",
"241 76 LINE"
);
}
);
width = 756;
}
);
},
{
glyphname = gjA;
lastChange = "2015-07-03 10:48:40 +0000";
layers = (
{
layerId = UUID0;
name = Bold;
paths = (
{
closed = 1;
nodes = (
"736 671 LINE",
"736 0 LINE",
"878 0 LINE",
"878 671 LINE"
);
},
{
closed = 1;
nodes = (
"522 300 LINE",
"774 300 LINE",
"774 417 LINE",
"522 417 LINE"
);
},
{
closed = 1;
nodes = (
"23 312 LINE",
"187 312 LINE SMOOTH",
"303 312 OFFCURVE",
"397 372 OFFCURVE",
"397 489 CURVE SMOOTH",
"397 613 OFFCURVE",
"295 678 OFFCURVE",
"179 678 CURVE SMOOTH",
"141 678 OFFCURVE",
"107 672 OFFCURVE",
"83 666 CURVE",
"83 546 LINE",
"109 554 OFFCURVE",
"135 558 OFFCURVE",
"165 558 CURVE SMOOTH",
"213 558 OFFCURVE",
"253 535 OFFCURVE",
"253 494 CURVE SMOOTH",
"253 444 OFFCURVE",
"204 431 OFFCURVE",
"166 431 CURVE SMOOTH",
"23 431 LINE"
);
},
{
closed = 1;
nodes = (
"617 517 LINE",
"475 517 LINE",
"475 382 LINE SMOOTH",
"475 299 OFFCURVE",
"442 226 OFFCURVE",
"348 226 CURVE SMOOTH",
"286 226 OFFCURVE",
"237 259 OFFCURVE",
"228 316 CURVE",
"86 332 LINE",
"103 173 OFFCURVE",
"224 106 OFFCURVE",
"351 106 CURVE SMOOTH",
"535 106 OFFCURVE",
"617 232 OFFCURVE",
"617 375 CURVE SMOOTH"
);
}
);
width = 941;
},
{
layerId = "AD34CA4C-F33B-4C65-9C83-752D01B8F810";
name = Light;
paths = (
{
closed = 1;
nodes = (
"752 634 LINE",
"752 0 LINE",
"814 0 LINE",
"814 634 LINE"
);
},
{
closed = 1;
nodes = (
"537 315 LINE",
"770 315 LINE",
"770 370 LINE",
"537 370 LINE"
);
},
{
closed = 1;
nodes = (
"35 335 LINE",
"179 335 LINE SMOOTH",
"269 335 OFFCURVE",
"350 386 OFFCURVE",
"350 486 CURVE SMOOTH",
"350 586 OFFCURVE",
"262 639 OFFCURVE",
"173 639 CURVE SMOOTH",
"139 639 OFFCURVE",
"114 635 OFFCURVE",
"94 631 CURVE",
"94 576 LINE",
"117 581 OFFCURVE",
"140 584 OFFCURVE",
"166 584 CURVE SMOOTH",
"236 584 OFFCURVE",
"288 549 OFFCURVE",
"288 486 CURVE SMOOTH",
"288 410 OFFCURVE",
"223 390 OFFCURVE",
"163 390 CURVE SMOOTH",
"35 390 LINE"
);
},
{
closed = 1;
nodes = (
"554 517 LINE",
"492 517 LINE",
"492 363 LINE SMOOTH",
"492 223 OFFCURVE",
"413 171 OFFCURVE",
"330 171 CURVE SMOOTH",
"225 171 OFFCURVE",
"170 240 OFFCURVE",
"166 341 CURVE",
"104 341 LINE",
"113 204 OFFCURVE",
"201 116 OFFCURVE",
"331 116 CURVE SMOOTH",
"434 116 OFFCURVE",
"554 178 OFFCURVE",
"554 361 CURVE SMOOTH"
);
}
);
width = 909;
}
);
unicode = 0A85;
},
{
glyphname = gjI;
lastChange = "2015-07-03 10:48:40 +0000";
layers = (
{
anchors = (
{
name = abvm.candra;
position = "{420, 671}";
}
);
layerId = UUID0;
name = Bold;
paths = (
{
closed = 1;
nodes = (
"342 408 LINE",
"288 408 LINE SMOOTH",
"245 408 OFFCURVE",
"200 429 OFFCURVE",
"200 482 CURVE SMOOTH",
"200 535 OFFCURVE",
"244 561 OFFCURVE",
"302 561 CURVE SMOOTH",
"329 561 OFFCURVE",
"354 558 OFFCURVE",
"378 553 CURVE",
"378 674 LINE",
"357 678 OFFCURVE",
"320 682 OFFCURVE",
"283 682 CURVE SMOOTH",
"157 682 OFFCURVE",
"55 624 OFFCURVE",
"55 507 CURVE SMOOTH",
"55 386 OFFCURVE",
"159 341 OFFCURVE",
"263 341 CURVE SMOOTH",
"322 341 LINE",
"322 353 LINE",
"262 353 LINE SMOOTH",
"146 353 OFFCURVE",
"45 306 OFFCURVE",
"45 190 CURVE SMOOTH",
"45 62 OFFCURVE",
"170 -7 OFFCURVE",
"321 -7 CURVE SMOOTH",
"477 -7 OFFCURVE",
"602 88 OFFCURVE",
"602 277 CURVE SMOOTH",
"602 567 LINE SMOOTH",
"602 605 OFFCURVE",
"622 614 OFFCURVE",
"646 614 CURVE SMOOTH",
"657 614 OFFCURVE",
"672 610 OFFCURVE",
"679 607 CURVE",
"679 724 LINE",
"679 724 OFFCURVE",
"650 731 OFFCURVE",
"609 731 CURVE SMOOTH",
"530 731 OFFCURVE",
"460 680 OFFCURVE",
"460 589 CURVE SMOOTH",
"460 284 LINE SMOOTH",
"460 168 OFFCURVE",
"393 114 OFFCURVE",
"311 114 CURVE SMOOTH",
"244 114 OFFCURVE",
"190 149 OFFCURVE",
"190 206 CURVE SMOOTH",
"190 266 OFFCURVE",
"240 289 OFFCURVE",
"287 289 CURVE SMOOTH",
"342 289 LINE"
);
}
);
width = 671;
},
{
anchors = (
{
name = abvm.candra;
position = "{386, 634}";
}
);
layerId = "AD34CA4C-F33B-4C65-9C83-752D01B8F810";
name = Light;
paths = (
{
closed = 1;
nodes = (
"334 359 LINE",
"286 359 LINE SMOOTH",
"212 359 OFFCURVE",
"142 392 OFFCURVE",
"142 472 CURVE SMOOTH",
"142 550 OFFCURVE",
"206 584 OFFCURVE",
"290 584 CURVE SMOOTH",
"315 584 OFFCURVE",
"340 582 OFFCURVE",
"364 577 CURVE",
"364 632 LINE",
"338 636 OFFCURVE",
"310 639 OFFCURVE",
"282 639 CURVE SMOOTH",
"172 639 OFFCURVE",
"80 583 OFFCURVE",
"80 474 CURVE SMOOTH",
"80 386 OFFCURVE",
"155 325 OFFCURVE",
"236 325 CURVE SMOOTH",
"283 325 LINE",
"283 337 LINE",
"245 337 LINE SMOOTH",
"157 337 OFFCURVE",
"70 285 OFFCURVE",
"70 177 CURVE SMOOTH",
"70 58 OFFCURVE",
"186 -5 OFFCURVE",
"295 -5 CURVE SMOOTH",
"443 -5 OFFCURVE",
"541 88 OFFCURVE",
"541 257 CURVE SMOOTH",
"541 587 LINE SMOOTH",
"541 622 OFFCURVE",
"564 633 OFFCURVE",
"591 633 CURVE SMOOTH",
"604 633 OFFCURVE",
"617 630 OFFCURVE",
"630 627 CURVE",
"630 682 LINE",
"614 686 OFFCURVE",
"599 688 OFFCURVE",
"584 688 CURVE SMOOTH",
"526 688 OFFCURVE",
"479 657 OFFCURVE",
"479 587 CURVE SMOOTH",
"479 256 LINE SMOOTH",
"479 144 OFFCURVE",
"420 50 OFFCURVE",
"294 50 CURVE SMOOTH",
"206 50 OFFCURVE",
"132 92 OFFCURVE",
"132 178 CURVE SMOOTH",
"132 271 OFFCURVE",
"213 304 OFFCURVE",
"288 304 CURVE SMOOTH",
"334 304 LINE"
);
}
);
width = 640;
}
);
unicode = 0A87;
},
{
glyphname = gjII;
lastChange = "2015-07-03 10:48:40 +0000";
layers = (
{
anchors = (
{
name = abvm.candra;
position = "{383, 671}";
}
);
layerId = UUID0;
name = Bold;
paths = (
{
closed = 1;
nodes = (
"602 701 LINE SMOOTH",
"602 739 OFFCURVE",
"622 748 OFFCURVE",
"646 748 CURVE SMOOTH",
"657 748 OFFCURVE",
"672 744 OFFCURVE",
"679 741 CURVE",
"679 858 LINE",
"679 858 OFFCURVE",
"650 865 OFFCURVE",
"609 865 CURVE SMOOTH",
"530 865 OFFCURVE",
"460 814 OFFCURVE",
"460 723 CURVE SMOOTH",
"460 284 LINE SMOOTH",
"460 168 OFFCURVE",
"393 114 OFFCURVE",
"311 114 CURVE SMOOTH",
"244 114 OFFCURVE",
"190 149 OFFCURVE",
"190 206 CURVE SMOOTH",
"190 266 OFFCURVE",
"240 289 OFFCURVE",
"287 289 CURVE SMOOTH",
"342 289 LINE",
"342 408 LINE",
"288 408 LINE SMOOTH",
"245 408 OFFCURVE",
"200 429 OFFCURVE",
"200 482 CURVE SMOOTH",
"200 535 OFFCURVE",
"244 561 OFFCURVE",
"302 561 CURVE SMOOTH",
"329 561 OFFCURVE",
"354 558 OFFCURVE",
"378 553 CURVE",
"378 674 LINE",
"357 678 OFFCURVE",
"320 682 OFFCURVE",
"283 682 CURVE SMOOTH",
"157 682 OFFCURVE",
"55 624 OFFCURVE",
"55 507 CURVE SMOOTH",
"55 386 OFFCURVE",
"159 341 OFFCURVE",
"263 341 CURVE SMOOTH",
"322 341 LINE",
"322 353 LINE",
"262 353 LINE SMOOTH",
"146 353 OFFCURVE",
"45 306 OFFCURVE",
"45 190 CURVE SMOOTH",
"45 62 OFFCURVE",
"170 -7 OFFCURVE",
"321 -7 CURVE SMOOTH",
"477 -7 OFFCURVE",
"602 88 OFFCURVE",
"602 277 CURVE SMOOTH"
);
}
);
width = 671;
},
{
anchors = (
{
name = abvm.candra;
position = "{364, 634}";
}
);
layerId = "AD34CA4C-F33B-4C65-9C83-752D01B8F810";
name = Light;
paths = (
{
closed = 1;
nodes = (
"541 715 LINE SMOOTH",
"541 750 OFFCURVE",
"564 761 OFFCURVE",
"591 761 CURVE SMOOTH",
"604 761 OFFCURVE",
"617 758 OFFCURVE",
"630 755 CURVE",
"630 810 LINE",
"614 814 OFFCURVE",
"599 816 OFFCURVE",
"584 816 CURVE SMOOTH",
"526 816 OFFCURVE",
"479 785 OFFCURVE",
"479 715 CURVE SMOOTH",
"479 256 LINE SMOOTH",
"479 144 OFFCURVE",
"420 50 OFFCURVE",
"294 50 CURVE SMOOTH",
"206 50 OFFCURVE",
"132 92 OFFCURVE",
"132 178 CURVE SMOOTH",
"132 271 OFFCURVE",
"213 304 OFFCURVE",
"288 304 CURVE SMOOTH",
"334 304 LINE",
"334 359 LINE",
"286 359 LINE SMOOTH",
"212 359 OFFCURVE",
"142 392 OFFCURVE",
"142 472 CURVE SMOOTH",
"142 550 OFFCURVE",
"206 584 OFFCURVE",
"290 584 CURVE SMOOTH",
"315 584 OFFCURVE",
"340 582 OFFCURVE",
"364 577 CURVE",
"364 632 LINE",
"338 636 OFFCURVE",
"310 639 OFFCURVE",
"282 639 CURVE SMOOTH",
"172 639 OFFCURVE",
"80 583 OFFCURVE",
"80 474 CURVE SMOOTH",
"80 386 OFFCURVE",
"155 325 OFFCURVE",
"236 325 CURVE SMOOTH",
"283 325 LINE",
"283 337 LINE",
"245 337 LINE SMOOTH",
"157 337 OFFCURVE",
"70 285 OFFCURVE",
"70 177 CURVE SMOOTH",
"70 58 OFFCURVE",
"186 -5 OFFCURVE",
"295 -5 CURVE SMOOTH",
"443 -5 OFFCURVE",
"541 88 OFFCURVE",
"541 257 CURVE SMOOTH"
);
}
);
width = 640;
}
);
unicode = 0A88;
},
{
glyphname = gjU;
lastChange = "2015-07-03 10:48:40 +0000";
layers = (
{
anchors = (
{
name = abvm.candra;
position = "{122, 712}";
}
);
layerId = UUID0;
name = Bold;
paths = (
{
closed = 1;
nodes = (
"441 341 LINE SMOOTH",
"556 341 OFFCURVE",
"633 399 OFFCURVE",
"633 495 CURVE SMOOTH",
"633 611 OFFCURVE",
"530 671 OFFCURVE",
"419 671 CURVE SMOOTH",
"388 671 OFFCURVE",
"362 667 OFFCURVE",
"338 659 CURVE",
"338 538 LINE",
"356 545 OFFCURVE",
"378 550 OFFCURVE",
"399 550 CURVE SMOOTH",
"445 550 OFFCURVE",
"488 530 OFFCURVE",
"488 478 CURVE SMOOTH",
"488 427 OFFCURVE",
"441 407 OFFCURVE",
"400 407 CURVE SMOOTH",
"338 407 LINE",
"338 288 LINE",
"399 288 LINE SMOOTH",
"448 288 OFFCURVE",
"498 265 OFFCURVE",
"498 205 CURVE SMOOTH",
"498 150 OFFCURVE",
"454 115 OFFCURVE",
"389 115 CURVE SMOOTH",
"229 115 OFFCURVE",
"172 258 OFFCURVE",
"172 403 CURVE SMOOTH",
"172 601 OFFCURVE",
"253 753 OFFCURVE",
"433 753 CURVE SMOOTH",
"492 753 OFFCURVE",
"548 737 OFFCURVE",
"595 716 CURVE",
"595 842 LINE",
"552 860 OFFCURVE",
"490 875 OFFCURVE",
"421 875 CURVE SMOOTH",
"158 875 OFFCURVE",
"30 663 OFFCURVE",
"30 415 CURVE SMOOTH",
"30 189 OFFCURVE",
"154 -7 OFFCURVE",
"399 -7 CURVE SMOOTH",
"544 -7 OFFCURVE",
"643 66 OFFCURVE",
"643 184 CURVE SMOOTH",
"643 288 OFFCURVE",
"550 354 OFFCURVE",
"431 354 CURVE SMOOTH",
"387 354 LINE",
"387 341 LINE"
);
}
);
width = 683;
},
{
anchors = (
{
name = abvm.candra;
position = "{134, 720}";
}
);
layerId = "AD34CA4C-F33B-4C65-9C83-752D01B8F810";
name = Light;
paths = (
{
closed = 1;
nodes = (
"407 324 LINE SMOOTH",
"504 324 OFFCURVE",
"587 374 OFFCURVE",
"587 477 CURVE SMOOTH",
"587 582 OFFCURVE",
"501 638 OFFCURVE",
"412 638 CURVE SMOOTH",
"381 638 OFFCURVE",
"354 633 OFFCURVE",
"329 625 CURVE",
"329 569 LINE",
"355 578 OFFCURVE",
"381 583 OFFCURVE",
"407 583 CURVE SMOOTH",
"470 583 OFFCURVE",
"525 551 OFFCURVE",
"525 476 CURVE SMOOTH",
"525 393 OFFCURVE",
"453 358 OFFCURVE",
"391 358 CURVE SMOOTH",
"329 358 LINE",
"329 303 LINE",
"390 303 LINE SMOOTH",
"460 303 OFFCURVE",
"533 270 OFFCURVE",
"533 179 CURVE SMOOTH",
"533 98 OFFCURVE",
"469 48 OFFCURVE",
"376 48 CURVE SMOOTH",
"194 48 OFFCURVE",
"122 215 OFFCURVE",
"122 402 CURVE SMOOTH",
"122 620 OFFCURVE",
"225 776 OFFCURVE",
"421 776 CURVE SMOOTH",
"475 776 OFFCURVE",
"522 768 OFFCURVE",
"565 750 CURVE",
"565 807 LINE",
"521 824 OFFCURVE",
"471 831 OFFCURVE",
"419 831 CURVE SMOOTH",
"194 831 OFFCURVE",
"60 654 OFFCURVE",
"60 403 CURVE SMOOTH",
"60 177 OFFCURVE",
"162 -7 OFFCURVE",
"386 -7 CURVE SMOOTH",
"498 -7 OFFCURVE",
"595 62 OFFCURVE",
"595 169 CURVE SMOOTH",
"595 287 OFFCURVE",
"502 336 OFFCURVE",
"417 336 CURVE SMOOTH",
"378 336 LINE",
"378 324 LINE"
);
}
);
width = 655;
}
);
unicode = 0A89;
},
{
glyphname = gjUU;
lastChange = "2015-07-03 10:48:40 +0000";
layers = (
{
anchors = (
{
name = abvm.candra;
position = "{884, 763}";
}
);
layerId = UUID0;
name = Bold;
paths = (
{
closed = 1;
nodes = (
"544 -7 OFFCURVE",
"643 66 OFFCURVE",
"643 184 CURVE SMOOTH",
"643 288 OFFCURVE",
"550 354 OFFCURVE",
"431 354 CURVE SMOOTH",
"387 354 LINE",
"387 341 LINE",
"441 341 LINE SMOOTH",
"556 341 OFFCURVE",
"633 399 OFFCURVE",
"633 495 CURVE SMOOTH",
"633 611 OFFCURVE",
"530 671 OFFCURVE",
"419 671 CURVE SMOOTH",
"388 671 OFFCURVE",
"362 667 OFFCURVE",
"338 659 CURVE",
"338 538 LINE",
"356 545 OFFCURVE",
"378 550 OFFCURVE",
"399 550 CURVE SMOOTH",
"445 550 OFFCURVE",
"488 530 OFFCURVE",
"488 478 CURVE SMOOTH",
"488 427 OFFCURVE",
"441 407 OFFCURVE",
"400 407 CURVE SMOOTH",
"338 407 LINE",
"338 288 LINE",
"399 288 LINE SMOOTH",
"448 288 OFFCURVE",
"498 265 OFFCURVE",
"498 205 CURVE SMOOTH",
"498 150 OFFCURVE",
"454 115 OFFCURVE",
"389 115 CURVE",
"229 115 OFFCURVE",
"172 258 OFFCURVE",
"172 403 CURVE SMOOTH",
"172 596 OFFCURVE",
"262 753 OFFCURVE",
"456 753 CURVE SMOOTH",
"658 753 OFFCURVE",
"742 605 OFFCURVE",
"742 432 CURVE SMOOTH",
"742 0 LINE",
"884 0 LINE",
"884 442 LINE SMOOTH",
"884 680 OFFCURVE",
"737 876 OFFCURVE",
"457 876 CURVE SMOOTH",
"182 876 OFFCURVE",
"30 672 OFFCURVE",
"30 415 CURVE SMOOTH",
"30 189 OFFCURVE",
"154 -7 OFFCURVE",
"399 -7 CURVE"
);
}
);
width = 947;
},
{
anchors = (
{
name = abvm.candra;
position = "{821, 706}";
}
);
layerId = "AD34CA4C-F33B-4C65-9C83-752D01B8F810";
name = Light;
paths = (
{
closed = 1;
nodes = (
"498 -7 OFFCURVE",
"595 62 OFFCURVE",
"595 169 CURVE SMOOTH",
"595 287 OFFCURVE",
"502 336 OFFCURVE",
"417 336 CURVE SMOOTH",
"378 336 LINE",
"378 324 LINE",
"407 324 LINE SMOOTH",
"504 324 OFFCURVE",
"587 374 OFFCURVE",
"587 477 CURVE SMOOTH",
"587 582 OFFCURVE",
"501 638 OFFCURVE",
"412 638 CURVE SMOOTH",
"381 638 OFFCURVE",
"354 633 OFFCURVE",
"329 625 CURVE",
"329 569 LINE",
"355 578 OFFCURVE",
"381 583 OFFCURVE",
"407 583 CURVE SMOOTH",
"470 583 OFFCURVE",
"525 551 OFFCURVE",
"525 476 CURVE SMOOTH",
"525 393 OFFCURVE",
"453 358 OFFCURVE",
"391 358 CURVE SMOOTH",
"329 358 LINE",
"329 303 LINE",
"390 303 LINE SMOOTH",
"460 303 OFFCURVE",
"533 270 OFFCURVE",
"533 179 CURVE SMOOTH",
"533 98 OFFCURVE",
"469 48 OFFCURVE",
"376 48 CURVE SMOOTH",
"194 48 OFFCURVE",
"122 215 OFFCURVE",
"122 402 CURVE",
"122 600 OFFCURVE",
"234 776 OFFCURVE",
"445 776 CURVE SMOOTH",
"666 776 OFFCURVE",
"759 610 OFFCURVE",
"759 421 CURVE SMOOTH",
"759 0 LINE",
"821 0 LINE",
"821 424 LINE SMOOTH",
"821 645 OFFCURVE",
"694 831 OFFCURVE",
"444 831 CURVE SMOOTH",
"200 831 OFFCURVE",
"60 634 OFFCURVE",
"60 403 CURVE SMOOTH",
"60 177 OFFCURVE",
"162 -7 OFFCURVE",
"386 -7 CURVE SMOOTH"
);
}
);
width = 914;
}
);
unicode = 0A8A;
},
{
glyphname = gjvR;
lastChange = "2015-08-06 15:11:45 +0000";
layers = (
{
anchors = (
{
name = abvm.candra;
position = "{593, 671}";
}
);
layerId = UUID0;
name = Bold;
paths = (
{
closed = 1;
nodes = (
"451 671 LINE",
"451 0 LINE",
"593 0 LINE",
"593 671 LINE"
);
},
{
closed = 1;
nodes = (
"25 425 LINE",
"73 453 OFFCURVE",
"120 468 OFFCURVE",
"172 468 CURVE SMOOTH",
"243 468 OFFCURVE",
"301 424 OFFCURVE",
"335 322 CURVE",
"443 382 LINE",
"390 518 OFFCURVE",
"296 590 OFFCURVE",
"182 590 CURVE SMOOTH",
"122 590 OFFCURVE",
"69 576 OFFCURVE",
"25 553 CURVE"
);
},
{
closed = 1;
nodes = (
"141 67 LINE",
"659 382 LINE SMOOTH",
"764 446 OFFCURVE",
"857 502 OFFCURVE",
"857 616 CURVE",
"719 616 LINE",
"719 557 OFFCURVE",
"665 517 OFFCURVE",
"569 462 CURVE SMOOTH",
"64 173 LINE"
);
},
{
closed = 1;
nodes = (
"672 416 LINE",
"753 369 LINE SMOOTH",
"804 339 OFFCURVE",
"834 311 OFFCURVE",
"834 272 CURVE SMOOTH",
"834 230 OFFCURVE",
"797 212 OFFCURVE",
"758 212 CURVE SMOOTH",
"732 212 OFFCURVE",
"706 219 OFFCURVE",
"688 226 CURVE",
"688 107 LINE",
"715 98 OFFCURVE",
"740 93 OFFCURVE",
"771 93 CURVE SMOOTH",
"908 93 OFFCURVE",
"973 181 OFFCURVE",
"973 268 CURVE SMOOTH",
"973 346 OFFCURVE",
"934 399 OFFCURVE",
"862 444 CURVE SMOOTH",
"788 490 LINE"
);
}
);
width = 993;
},
{
anchors = (
{
name = abvm.candra;
position = "{514, 634}";
}
);
layerId = "AD34CA4C-F33B-4C65-9C83-752D01B8F810";
name = Light;
paths = (
{
closed = 1;
nodes = (
"452 634 LINE",
"452 0 LINE",
"514 0 LINE",
"514 634 LINE"
);
},
{
closed = 1;
nodes = (
"28 461 LINE",
"79 490 OFFCURVE",
"124 502 OFFCURVE",
"171 502 CURVE SMOOTH",
"285 502 OFFCURVE",
"355 407 OFFCURVE",
"382 309 CURVE",
"432 341 LINE",
"388 471 OFFCURVE",
"296 557 OFFCURVE",
"173 557 CURVE SMOOTH",
"123 557 OFFCURVE",
"69 543 OFFCURVE",
"28 520 CURVE"
);
},
{
closed = 1;
nodes = (
"121 91 LINE",
"573 366 LINE SMOOTH",
"721 456 OFFCURVE",
"784 498 OFFCURVE",
"784 591 CURVE",
"722 591 LINE",
"722 531 OFFCURVE",
"681 498 OFFCURVE",
"547 417 CURVE SMOOTH",
"89 138 LINE"
);
},
{
closed = 1;
nodes = (
"651 427 LINE",
"732 379 LINE SMOOTH",
"802 338 OFFCURVE",
"829 287 OFFCURVE",
"829 243 CURVE SMOOTH",
"829 164 OFFCURVE",
"770 136 OFFCURVE",
"709 136 CURVE SMOOTH",
"683 136 OFFCURVE",
"657 141 OFFCURVE",
"635 149 CURVE",
"635 96 LINE",
"660 88 OFFCURVE",
"685 84 OFFCURVE",
"710 84 CURVE SMOOTH",
"803 84 OFFCURVE",
"888 136 OFFCURVE",
"888 243 CURVE SMOOTH",
"888 304 OFFCURVE",
"854 368 OFFCURVE",
"775 417 CURVE SMOOTH",
"701 463 LINE"
);
}
);
width = 919;
}
);
unicode = 0A8B;
},
{
glyphname = gjE;
lastChange = "2015-07-03 10:48:40 +0000";
layers = (
{
anchors = (
{
name = abvm.candra;
position = "{1007, 742}";
}
);
background = {
paths = (
{
closed = 1;
nodes = (
"520 875 LINE",
"540 881 OFFCURVE",
"563 885 OFFCURVE",
"581 885 CURVE SMOOTH",
"612 885 OFFCURVE",
"637 874 OFFCURVE",
"660 844 CURVE SMOOTH",
"740 739 LINE",
"873 739 LINE",
"770 908 LINE SMOOTH",
"731 973 OFFCURVE",
"674 1002 OFFCURVE",
"598 1002 CURVE SMOOTH",
"568 1002 OFFCURVE",
"542 998 OFFCURVE",
"520 993 CURVE"
);
},
{
closed = 1;
nodes = (
"853 844 OFFCURVE",
"889 808 OFFCURVE",
"935 808 CURVE SMOOTH",
"981 808 OFFCURVE",
"1017 844 OFFCURVE",
"1017 890 CURVE SMOOTH",
"1017 936 OFFCURVE",
"981 972 OFFCURVE",
"935 972 CURVE SMOOTH",
"889 972 OFFCURVE",
"853 936 OFFCURVE",
"853 890 CURVE SMOOTH"
);
}
);
};
components = (
{
name = gjA;
},
{
name = gjmE;
transform = "{1, 0, 0, 1, 941, 0}";
}
);
layerId = UUID0;
name = Bold;
width = 941;
},
{
anchors = (
{
name = abvm.candra;
position = "{898, 699}";
}
);
components = (
{
name = gjA;
},
{
name = gjmE;
transform = "{1, 0, 0, 1, 909, 0}";
}
);
layerId = "AD34CA4C-F33B-4C65-9C83-752D01B8F810";
name = Light;
width = 909;
}
);
unicode = 0A8F;
},
{
glyphname = gjAI;
lastChange = "2015-07-03 10:48:40 +0000";
layers = (
{
anchors = (
{
name = abvm.candra;
position = "{1056, 744}";
}
);
background = {
paths = (
{
closed = 1;
nodes = (
"902 844 OFFCURVE",
"938 808 OFFCURVE",
"984 808 CURVE SMOOTH",
"1030 808 OFFCURVE",
"1066 844 OFFCURVE",
"1066 890 CURVE SMOOTH",
"1066 936 OFFCURVE",
"1030 972 OFFCURVE",
"984 972 CURVE SMOOTH",
"938 972 OFFCURVE",
"902 936 OFFCURVE",
"902 890 CURVE SMOOTH"
);
}
);
};
components = (
{
name = gjmAI;
transform = "{1, 0, 0, 1, 941, 0}";
},
{
name = gjA;
}
);
layerId = UUID0;
name = Bold;
width = 941;
},
{
anchors = (
{
name = abvm.candra;
position = "{936, 699}";
}
);
components = (
{
name = gjmAI;
transform = "{1, 0, 0, 1, 909, 0}";
},
{
name = gjA;
}
);
layerId = "AD34CA4C-F33B-4C65-9C83-752D01B8F810";
name = Light;
width = 909;
}
);
unicode = 0A90;
},
{
glyphname = gjmAA;
lastChange = "2015-07-03 10:48:40 +0000";
layers = (
{
layerId = UUID0;
name = Bold;
paths = (
{
closed = 1;
nodes = (
"63 671 LINE",
"63 0 LINE",
"205 0 LINE",
"205 671 LINE"
);
}
);
width = 268;
},
{
layerId = "AD34CA4C-F33B-4C65-9C83-752D01B8F810";
name = Light;
paths = (
{
closed = 1;
nodes = (
"95 634 LINE",
"95 0 LINE",
"157 0 LINE",
"157 634 LINE"
);
}
);
width = 252;
}
);
unicode = 0ABE;
},
{
glyphname = gjmI;
lastChange = "2015-07-03 10:48:40 +0000";
layers = (
{
layerId = UUID0;
name = Bold;
paths = (
{
closed = 1;
nodes = (
"63 0 LINE",
"205 0 LINE",
"205 702 LINE SMOOTH",
"205 818 OFFCURVE",
"273 856 OFFCURVE",
"362 856 CURVE SMOOTH",
"480 856 OFFCURVE",
"665 809 OFFCURVE",
"790 754 CURVE",
"790 874 LINE",
"654 934 OFFCURVE",
"493 974 OFFCURVE",
"337 974 CURVE SMOOTH",
"159 974 OFFCURVE",
"63 867 OFFCURVE",
"63 707 CURVE SMOOTH"
);
}
);
width = 268;
},
{
layerId = "AD34CA4C-F33B-4C65-9C83-752D01B8F810";
name = Light;
paths = (
{
closed = 1;
nodes = (
"95 0 LINE",
"157 0 LINE",
"157 702 LINE SMOOTH",
"157 818 OFFCURVE",
"229 856 OFFCURVE",
"323 856 CURVE SMOOTH",
"441 856 OFFCURVE",
"617 806 OFFCURVE",
"737 754 CURVE",
"737 810 LINE",
"621 861 OFFCURVE",
"448 911 OFFCURVE",
"319 911 CURVE SMOOTH",
"172 911 OFFCURVE",
"95 834 OFFCURVE",
"95 707 CURVE SMOOTH"
);
}
);
width = 252;
}
);
unicode = 0ABF;
},
{
glyphname = gjmII;
lastChange = "2015-07-03 10:48:40 +0000";
layers = (
{
layerId = UUID0;
name = Bold;
paths = (
{
closed = 1;
nodes = (
"63 0 LINE",
"205 0 LINE",
"205 779 LINE SMOOTH",
"205 897 OFFCURVE",
"110 974 OFFCURVE",
"-2 974 CURVE SMOOTH",
"-120 974 OFFCURVE",
"-205 909 OFFCURVE",
"-205 784 CURVE SMOOTH",
"-205 754 LINE",
"-63 754 LINE",
"-63 779 LINE SMOOTH",
"-63 830 OFFCURVE",
"-40 856 OFFCURVE",
"-1 856 CURVE SMOOTH",
"39 856 OFFCURVE",
"63 830 OFFCURVE",
"63 783 CURVE SMOOTH"
);
}
);
width = 268;
},
{
layerId = "AD34CA4C-F33B-4C65-9C83-752D01B8F810";
name = Light;
paths = (
{
closed = 1;
nodes = (
"95 0 LINE",
"157 0 LINE",
"157 737 LINE SMOOTH",
"157 873 OFFCURVE",
"83 928 OFFCURVE",
"-4 928 CURVE SMOOTH",
"-87 928 OFFCURVE",
"-157 875 OFFCURVE",
"-157 763 CURVE SMOOTH",
"-157 754 LINE",
"-95 754 LINE",
"-95 758 LINE SMOOTH",
"-95 826 OFFCURVE",
"-63 873 OFFCURVE",
"-3 873 CURVE SMOOTH",
"60 873 OFFCURVE",
"95 829 OFFCURVE",
"95 741 CURVE SMOOTH"
);
}
);
width = 252;
}
);
unicode = 0AC0;
},
{
glyphname = gjmU;
lastChange = "2015-07-03 10:48:40 +0000";
layers = (
{
anchors = (
{
name = _blwm;
position = "{-63, 0}";
},
{
name = _blwm.u;
position = "{-63, 0}";
}
);
background = {
paths = (
{
closed = 1;
nodes = (
"-205 671 LINE",
"-205 0 LINE",
"-63 0 LINE",
"-63 671 LINE"
);
}
);
};
layerId = UUID0;
name = Bold;
paths = (
{
closed = 1;
nodes = (
"-257 -192 OFFCURVE",
"-365 -127 OFFCURVE",
"-435 -73 CURVE",
"-435 -215 LINE",
"-363 -259 OFFCURVE",
"-270 -307 OFFCURVE",
"-141 -307 CURVE SMOOTH",
"-26 -307 OFFCURVE",
"50 -241 OFFCURVE",
"50 -146 CURVE SMOOTH",
"50 -52 OFFCURVE",
"-23 12 OFFCURVE",
"-145 12 CURVE SMOOTH",
"-183 12 OFFCURVE",
"-219 6 OFFCURVE",
"-254 -6 CURVE",
"-254 -125 LINE",
"-210 -107 OFFCURVE",
"-175 -101 OFFCURVE",
"-149 -101 CURVE SMOOTH",
"-105 -101 OFFCURVE",
"-86 -121 OFFCURVE",
"-86 -144 CURVE SMOOTH",
"-86 -172 OFFCURVE",
"-110 -192 OFFCURVE",
"-151 -192 CURVE SMOOTH"
);
}
);
width = 0;
},
{
anchors = (
{
name = _blwm;
position = "{-95, 0}";
},
{
name = _blwm.u;
position = "{-95, 0}";
}
);
background = {
paths = (
{
closed = 1;
nodes = (
"-157 634 LINE",
"-157 0 LINE",
"-95 0 LINE",
"-95 634 LINE"
);
}
);
};
layerId = "AD34CA4C-F33B-4C65-9C83-752D01B8F810";
name = Light;
paths = (
{
closed = 1;
nodes = (
"-248 -205 OFFCURVE",
"-341 -152 OFFCURVE",
"-412 -103 CURVE",
"-412 -168 LINE",
"-350 -212 OFFCURVE",
"-250 -260 OFFCURVE",
"-143 -260 CURVE SMOOTH",
"-45 -260 OFFCURVE",
"22 -204 OFFCURVE",
"22 -122 CURVE SMOOTH",
"22 -45 OFFCURVE",
"-40 12 OFFCURVE",
"-137 12 CURVE SMOOTH",
"-163 12 OFFCURVE",
"-207 5 OFFCURVE",
"-237 -16 CURVE",
"-237 -76 LINE",
"-203 -55 OFFCURVE",
"-171 -42 OFFCURVE",
"-135 -42 CURVE SMOOTH",
"-70 -42 OFFCURVE",
"-40 -83 OFFCURVE",
"-40 -123 CURVE SMOOTH",
"-40 -181 OFFCURVE",
"-92 -205 OFFCURVE",
"-148 -205 CURVE SMOOTH"
);
}
);
width = 0;
}
);
unicode = 0AC1;
},
{
glyphname = gjmUU;
lastChange = "2015-07-03 10:48:40 +0000";
layers = (
{
anchors = (
{
name = _blwm;
position = "{-63, 0}";
},
{
name = _blwm.uu;
position = "{-63, 0}";
}
);
background = {
paths = (
{
closed = 1;
nodes = (
"-205 671 LINE",
"-205 0 LINE",
"-63 0 LINE",
"-63 671 LINE"
);
}
);
};
layerId = UUID0;
name = Bold;
paths = (
{
closed = 1;
nodes = (
"-87 -176 LINE",
"-104 -183 OFFCURVE",
"-119 -187 OFFCURVE",
"-138 -187 CURVE SMOOTH",
"-172 -187 OFFCURVE",
"-197 -171 OFFCURVE",
"-197 -142 CURVE SMOOTH",
"-197 -115 OFFCURVE",
"-175 -98 OFFCURVE",
"-144 -98 CURVE SMOOTH",
"-66 -98 OFFCURVE",
"-14 -192 OFFCURVE",
"-14 -295 CURVE",
"117 -295 LINE",
"117 -155 OFFCURVE",
"35 15 OFFCURVE",
"-150 15 CURVE SMOOTH",
"-252 15 OFFCURVE",
"-330 -46 OFFCURVE",
"-330 -143 CURVE SMOOTH",
"-330 -236 OFFCURVE",
"-247 -293 OFFCURVE",
"-157 -293 CURVE SMOOTH",
"-128 -293 OFFCURVE",
"-103 -289 OFFCURVE",
"-87 -282 CURVE"
);
}
);
width = 0;
},
{
anchors = (
{
name = _blwm;
position = "{-95, 0}";
},
{
name = _blwm.uu;
position = "{-95, 0}";
}
);
background = {
paths = (
{
closed = 1;
nodes = (
"-157 634 LINE",
"-157 0 LINE",
"-95 0 LINE",
"-95 634 LINE"
);
}
);
};
layerId = "AD34CA4C-F33B-4C65-9C83-752D01B8F810";
name = Light;
paths = (
{
closed = 1;
nodes = (
"-95 -177 LINE",
"-110 -186 OFFCURVE",
"-133 -191 OFFCURVE",
"-154 -191 CURVE SMOOTH",
"-188 -191 OFFCURVE",
"-234 -172 OFFCURVE",
"-234 -117 CURVE SMOOTH",
"-234 -69 OFFCURVE",
"-194 -40 OFFCURVE",
"-139 -40 CURVE SMOOTH",
"-22 -40 OFFCURVE",
"57 -140 OFFCURVE",
"57 -252 CURVE",
"114 -252 LINE",
"114 -129 OFFCURVE",
"28 12 OFFCURVE",
"-141 12 CURVE SMOOTH",
"-235 12 OFFCURVE",
"-296 -42 OFFCURVE",
"-296 -114 CURVE SMOOTH",
"-296 -194 OFFCURVE",
"-230 -244 OFFCURVE",
"-158 -244 CURVE SMOOTH",
"-131 -244 OFFCURVE",
"-109 -239 OFFCURVE",
"-95 -231 CURVE"
);
}
);
width = 0;
}
);
unicode = 0AC2;
},
{
glyphname = gjmvR;
lastChange = "2015-07-03 10:48:40 +0000";
layers = (
{
anchors = (
{
name = _blwm;
position = "{-63, 0}";
},
{
name = _blwm.r;
position = "{-63, 0}";
}
);
background = {
paths = (
{
closed = 1;
nodes = (
"-205 671 LINE",
"-205 0 LINE",
"-63 0 LINE",
"-63 671 LINE"
);
},
{
closed = 1;
nodes = (
"-205 -13 LINE",
"-290 -26 OFFCURVE",
"-345 -76 OFFCURVE",
"-345 -158 CURVE SMOOTH",
"-345 -249 OFFCURVE",
"-266 -324 OFFCURVE",
"-146 -324 CURVE SMOOTH",
"-87 -324 OFFCURVE",
"-34 -314 OFFCURVE",
"14 -293 CURVE",
"14 -180 LINE",
"-34 -201 OFFCURVE",
"-84 -213 OFFCURVE",
"-138 -213 CURVE SMOOTH",
"-167 -213 OFFCURVE",
"-208 -205 OFFCURVE",
"-208 -166 CURVE SMOOTH",
"-208 -133 OFFCURVE",
"-183 -115 OFFCURVE",
"-112 -115 CURVE SMOOTH",
"-63 -115 LINE",
"-63 12 LINE",
"-205 12 LINE"
);
},
{
closed = 1;
nodes = (
"261 7 LINE",
"176 -6 OFFCURVE",
"121 -56 OFFCURVE",
"121 -138 CURVE SMOOTH",
"121 -229 OFFCURVE",
"200 -304 OFFCURVE",
"320 -304 CURVE SMOOTH",
"379 -304 OFFCURVE",
"432 -294 OFFCURVE",
"480 -273 CURVE",
"480 -160 LINE",
"432 -181 OFFCURVE",
"382 -193 OFFCURVE",
"328 -193 CURVE SMOOTH",
"299 -193 OFFCURVE",
"258 -185 OFFCURVE",
"258 -146 CURVE SMOOTH",
"258 -113 OFFCURVE",
"283 -95 OFFCURVE",
"354 -95 CURVE SMOOTH",
"403 -95 LINE",
"403 0 LINE"
);
}
);
};
layerId = UUID0;
name = Bold;
paths = (
{
closed = 1;
nodes = (
"-345 -229 OFFCURVE",
"-266 -304 OFFCURVE",
"-146 -304 CURVE SMOOTH",
"-87 -304 OFFCURVE",
"-34 -294 OFFCURVE",
"14 -273 CURVE",
"14 -160 LINE",
"-34 -181 OFFCURVE",
"-85 -193 OFFCURVE",
"-139 -193 CURVE SMOOTH",
"-168 -193 OFFCURVE",
"-209 -185 OFFCURVE",
"-209 -146 CURVE SMOOTH",
"-209 -115 OFFCURVE",
"-183 -95 OFFCURVE",
"-125 -95 CURVE SMOOTH",
"-106 -95 OFFCURVE",
"-78 -98 OFFCURVE",
"-63 -102 CURVE",
"-63 1 LINE",
"-91 7 OFFCURVE",
"-122 10 OFFCURVE",
"-153 10 CURVE SMOOTH",
"-250 10 OFFCURVE",
"-345 -27 OFFCURVE",
"-345 -138 CURVE SMOOTH"
);
}
);
width = 0;
},
{
anchors = (
{
name = _blwm;
position = "{-95, 0}";
},
{
name = _blwm.r;
position = "{-95, 0}";
}
);
background = {
paths = (
{
closed = 1;
nodes = (
"-157 634 LINE",
"-157 0 LINE",
"-95 0 LINE",
"-95 634 LINE"
);
},
{
closed = 1;
nodes = (
"-157 -14 LINE",
"-248 -17 OFFCURVE",
"-308 -67 OFFCURVE",
"-308 -137 CURVE SMOOTH",
"-308 -224 OFFCURVE",
"-235 -268 OFFCURVE",
"-138 -268 CURVE SMOOTH",
"-79 -268 OFFCURVE",
"-34 -258 OFFCURVE",
"14 -237 CURVE",
"14 -180 LINE",
"-34 -201 OFFCURVE",
"-84 -213 OFFCURVE",
"-138 -213 CURVE SMOOTH",
"-183 -213 OFFCURVE",
"-246 -202 OFFCURVE",
"-246 -143 CURVE SMOOTH",
"-246 -73 OFFCURVE",
"-162 -67 OFFCURVE",
"-112 -67 CURVE SMOOTH",
"-95 -67 LINE",
"-95 12 LINE",
"-157 12 LINE"
);
}
);
};
layerId = "AD34CA4C-F33B-4C65-9C83-752D01B8F810";
name = Light;
paths = (
{
closed = 1;
nodes = (
"-308 -206 OFFCURVE",
"-235 -251 OFFCURVE",
"-138 -251 CURVE SMOOTH",
"-79 -251 OFFCURVE",
"-34 -240 OFFCURVE",
"14 -218 CURVE",
"14 -161 LINE",
"-34 -183 OFFCURVE",
"-84 -196 OFFCURVE",
"-138 -196 CURVE SMOOTH",
"-183 -196 OFFCURVE",
"-246 -185 OFFCURVE",
"-246 -124 CURVE SMOOTH",
"-246 -64 OFFCURVE",
"-185 -50 OFFCURVE",
"-134 -50 CURVE SMOOTH",
"-119 -50 OFFCURVE",
"-106 -51 OFFCURVE",
"-95 -53 CURVE",
"-95 1 LINE",
"-114 4 OFFCURVE",
"-133 5 OFFCURVE",
"-148 5 CURVE SMOOTH",
"-225 5 OFFCURVE",
"-308 -32 OFFCURVE",
"-308 -118 CURVE SMOOTH"
);
}
);
width = 0;
}
);
unicode = 0AC3;
},
{
glyphname = gjmE;
lastChange = "2015-07-03 10:48:40 +0000";
layers = (
{
anchors = (
{
name = _abvm;
position = "{-63, 671}";
},
{
name = _abvm.e;
position = "{-63, 671}";
}
);
background = {
paths = (
{
closed = 1;
nodes = (
"-205 671 LINE",
"-205 0 LINE",
"-63 0 LINE",
"-63 671 LINE"
);
}
);
};
layerId = UUID0;
name = Bold;
paths = (
{
closed = 1;
nodes = (
"-421 875 LINE",
"-401 881 OFFCURVE",
"-378 885 OFFCURVE",
"-360 885 CURVE SMOOTH",
"-329 885 OFFCURVE",
"-304 874 OFFCURVE",
"-281 844 CURVE SMOOTH",
"-201 739 LINE",
"-68 739 LINE",
"-171 908 LINE SMOOTH",
"-210 973 OFFCURVE",
"-267 1002 OFFCURVE",
"-343 1002 CURVE SMOOTH",
"-373 1002 OFFCURVE",
"-399 998 OFFCURVE",
"-421 993 CURVE"
);
}
);
width = 0;
},
{
anchors = (
{
name = _abvm;
position = "{-95, 634}";
},
{
name = _abvm.e;
position = "{-95, 634}";
}
);
background = {
paths = (
{
closed = 1;
nodes = (
"-157 634 LINE",
"-157 0 LINE",
"-95 0 LINE",
"-95 634 LINE"
);
}
);
};
layerId = "AD34CA4C-F33B-4C65-9C83-752D01B8F810";
name = Light;
paths = (
{
closed = 1;
nodes = (
"-381 890 LINE",
"-369 893 OFFCURVE",
"-352 897 OFFCURVE",
"-335 897 CURVE SMOOTH",
"-293 897 OFFCURVE",
"-264 878 OFFCURVE",
"-240 841 CURVE SMOOTH",
"-155 714 LINE",
"-96 714 LINE",
"-187 863 LINE SMOOTH",
"-226 927 OFFCURVE",
"-276 952 OFFCURVE",
"-330 952 CURVE SMOOTH",
"-349 952 OFFCURVE",
"-368 949 OFFCURVE",
"-381 946 CURVE"
);
}
);
width = 0;
}
);
unicode = 0AC7;
},
{
glyphname = gjmAI;
lastChange = "2015-07-03 10:48:40 +0000";
layers = (
{
anchors = (
{
name = _abvm;
position = "{-63, 671}";
},
{
name = _abvm.e;
position = "{-63, 671}";
}
);
background = {
paths = (
{
closed = 1;
nodes = (
"-205 671 LINE",
"-205 0 LINE",
"-63 0 LINE",
"-63 671 LINE"
);
},
{
closed = 1;
nodes = (
"-60 739 LINE",
"-60 739 OFFCURVE",
"-84 841 OFFCURVE",
"-94 880 CURVE SMOOTH",
"-127 1011 OFFCURVE",
"-197 1064 OFFCURVE",
"-296 1064 CURVE SMOOTH",
"-314 1064 OFFCURVE",
"-334 1061 OFFCURVE",
"-350 1058 CURVE",
"-350 946 LINE",
"-342 948 OFFCURVE",
"-324 951 OFFCURVE",
"-311 951 CURVE SMOOTH",
"-267 951 OFFCURVE",
"-230 937 OFFCURVE",
"-201 883 CURVE SMOOTH",
"-158 802 LINE",
"-162 802 LINE",
"-221 886 OFFCURVE",
"-294 920 OFFCURVE",
"-374 920 CURVE SMOOTH",
"-405 920 OFFCURVE",
"-439 914 OFFCURVE",
"-473 904 CURVE",
"-473 791 LINE",
"-439 803 OFFCURVE",
"-403 811 OFFCURVE",
"-366 811 CURVE SMOOTH",
"-310 811 OFFCURVE",
"-255 797 OFFCURVE",
"-215 754 CURVE SMOOTH",
"-201 739 LINE"
);
}
);
};
layerId = UUID0;
name = Bold;
paths = (
{
closed = 1;
nodes = (
"-64 739 LINE",
"-64 739 OFFCURVE",
"-88 841 OFFCURVE",
"-98 880 CURVE SMOOTH",
"-131 1011 OFFCURVE",
"-201 1064 OFFCURVE",
"-300 1064 CURVE SMOOTH",
"-318 1064 OFFCURVE",
"-338 1061 OFFCURVE",
"-354 1058 CURVE",
"-354 946 LINE",
"-346 948 OFFCURVE",
"-328 951 OFFCURVE",
"-315 951 CURVE SMOOTH",
"-271 951 OFFCURVE",
"-234 937 OFFCURVE",
"-205 883 CURVE SMOOTH",
"-162 802 LINE",
"-166 802 LINE",
"-225 886 OFFCURVE",
"-298 920 OFFCURVE",
"-378 920 CURVE SMOOTH",
"-409 920 OFFCURVE",
"-443 914 OFFCURVE",
"-477 904 CURVE",
"-477 791 LINE",
"-443 803 OFFCURVE",
"-407 811 OFFCURVE",
"-370 811 CURVE SMOOTH",
"-314 811 OFFCURVE",
"-259 797 OFFCURVE",
"-219 754 CURVE SMOOTH",
"-205 739 LINE"
);
}
);
width = 0;
},
{
anchors = (
{
name = _abvm;
position = "{-95, 634}";
},
{
name = _abvm.e;
position = "{-95, 634}";
}
);
background = {
paths = (
{
closed = 1;
nodes = (
"-157 634 LINE",
"-157 0 LINE",
"-95 0 LINE",
"-95 634 LINE"
);
}
);
};
layerId = "AD34CA4C-F33B-4C65-9C83-752D01B8F810";
name = Light;
paths = (
{
closed = 1;
nodes = (
"-95 714 LINE",
"-95 714 OFFCURVE",
"-128 841 OFFCURVE",
"-134 862 CURVE SMOOTH",
"-159 955 OFFCURVE",
"-214 1000 OFFCURVE",
"-285 1000 CURVE SMOOTH",
"-299 1000 OFFCURVE",
"-313 998 OFFCURVE",
"-328 995 CURVE",
"-328 941 LINE",
"-314 944 OFFCURVE",
"-301 946 OFFCURVE",
"-290 946 CURVE SMOOTH",
"-240 946 OFFCURVE",
"-210 917 OFFCURVE",
"-184 858 CURVE SMOOTH",
"-138 750 LINE",
"-142 750 LINE",
"-198 829 OFFCURVE",
"-261 861 OFFCURVE",
"-325 861 CURVE SMOOTH",
"-353 861 OFFCURVE",
"-381 856 OFFCURVE",
"-409 847 CURVE",
"-409 788 LINE",
"-382 800 OFFCURVE",
"-354 806 OFFCURVE",
"-327 806 CURVE SMOOTH",
"-271 806 OFFCURVE",
"-216 779 OFFCURVE",
"-169 729 CURVE SMOOTH",
"-155 714 LINE"
);
}
);
width = 0;
}
);
unicode = 0AC8;
},
{
glyphname = gjmEcandra;
lastChange = "2015-07-03 11:04:53 +0000";
layers = (
{
anchors = (
{
name = _abvm;
position = "{-63, 671}";
},
{
name = _abvm.candra;
position = "{-63, 671}";
}
);
background = {
paths = (
{
closed = 1;
nodes = (
"-205 671 LINE",
"-205 0 LINE",
"-63 0 LINE",
"-63 671 LINE"
);
}
);
};
layerId = UUID0;
name = Bold;
paths = (
{
closed = 1;
nodes = (
"-5 737 OFFCURVE",
"107 797 OFFCURVE",
"107 942 CURVE",
"-27 942 LINE",
"-27 882 OFFCURVE",
"-63 842 OFFCURVE",
"-134 842 CURVE SMOOTH",
"-205 842 OFFCURVE",
"-241 882 OFFCURVE",
"-241 942 CURVE",
"-375 942 LINE",
"-375 797 OFFCURVE",
"-263 737 OFFCURVE",
"-134 737 CURVE SMOOTH"
);
}
);
width = 0;
},
{
anchors = (
{
name = _abvm;
position = "{-95, 634}";
},
{
name = _abvm.candra;
position = "{-95, 634}";
}
);
background = {
paths = (
{
closed = 1;
nodes = (
"-157 634 LINE",
"-157 0 LINE",
"-95 0 LINE",
"-95 634 LINE"
);
}
);
};
layerId = "AD34CA4C-F33B-4C65-9C83-752D01B8F810";
name = Light;
paths = (
{
closed = 1;
nodes = (
"-26 727 OFFCURVE",
"68 776 OFFCURVE",
"68 895 CURVE",
"8 895 LINE",
"8 827 OFFCURVE",
"-38 780 OFFCURVE",
"-126 780 CURVE SMOOTH",
"-215 780 OFFCURVE",
"-261 827 OFFCURVE",
"-261 895 CURVE",
"-321 895 LINE",
"-321 776 OFFCURVE",
"-224 727 OFFCURVE",
"-126 727 CURVE SMOOTH"
);
}
);
width = 0;
}
);
unicode = 0AC5;
},
{
glyphname = gjKA;
lastChange = "2015-07-03 10:48:40 +0000";
layers = (
{
anchors = (
{
name = abvm.candra;
position = "{380, 671}";
},
{
name = abvm.e;
position = "{429, 671}";
},
{
name = blwm.r;
position = "{403, -57}";
},
{
name = blwm.u;
position = "{409, -57}";
},
{
name = blwm.uu;
position = "{385, -57}";
},
{
name = blwm.virama;
position = "{358, 0}";
}
);
layerId = UUID0;
name = Bold;
paths = (
{
closed = 1;
nodes = (
"342 388 LINE",
"302 401 OFFCURVE",
"208 418 OFFCURVE",
"208 485 CURVE SMOOTH",
"208 534 OFFCURVE",
"252 556 OFFCURVE",
"313 556 CURVE SMOOTH",
"375 556 OFFCURVE",
"421 549 OFFCURVE",
"485 530 CURVE",
"485 654 LINE",
"431 670 OFFCURVE",
"373 678 OFFCURVE",
"308 678 CURVE SMOOTH",
"165 678 OFFCURVE",
"66 614 OFFCURVE",
"66 498 CURVE SMOOTH",
"66 439 OFFCURVE",
"98 391 OFFCURVE",
"144 363 CURVE",
"160 377 LINE",
"32 348 LINE",
"32 226 LINE",
"345 305 LINE",
"216 310 LINE",
"282 281 OFFCURVE",
"393 271 OFFCURVE",
"393 188 CURVE SMOOTH",
"393 129 OFFCURVE",
"323 115 OFFCURVE",
"280 115 CURVE SMOOTH",
"207 115 OFFCURVE",
"135 134 OFFCURVE",
"65 169 CURVE",
"65 39 LINE",
"133 7 OFFCURVE",
"210 -7 OFFCURVE",
"293 -7 CURVE SMOOTH",
"434 -7 OFFCURVE",
"535 70 OFFCURVE",
"535 181 CURVE SMOOTH",
"535 272 OFFCURVE",
"481 317 OFFCURVE",
"413 345 CURVE",
"417 329 LINE",
"546 358 LINE",
"546 480 LINE",
"222 399 LINE"
);
}
);
width = 581;
},
{
anchors = (
{
name = abvm.candra;
position = "{324, 634}";
},
{
name = abvm.e;
position = "{395, 634}";
},
{
name = blwm.r;
position = "{357, -65}";
},
{
name = blwm.u;
position = "{368, -65}";
},
{
name = blwm.uu;
position = "{326, -65}";
},
{
name = blwm.virama;
position = "{306, 0}";
}
);
layerId = "AD34CA4C-F33B-4C65-9C83-752D01B8F810";
name = Light;
paths = (
{
closed = 1;
nodes = (
"324 354 LINE",
"245 375 OFFCURVE",
"153 400 OFFCURVE",
"153 481 CURVE SMOOTH",
"153 555 OFFCURVE",
"220 584 OFFCURVE",
"297 584 CURVE SMOOTH",
"359 584 OFFCURVE",
"413 573 OFFCURVE",
"455 559 CURVE",
"455 617 LINE",
"403 632 OFFCURVE",
"347 639 OFFCURVE",
"294 639 CURVE SMOOTH",
"190 639 OFFCURVE",
"91 591 OFFCURVE",
"91 485 CURVE SMOOTH",
"91 399 OFFCURVE",
"162 348 OFFCURVE",
"241 326 CURVE",
"243 341 LINE",
"60 293 LINE",
"60 237 LINE",
"327 314 LINE",
"267 317 LINE",
"348 295 OFFCURVE",
"437 263 OFFCURVE",
"437 165 CURVE SMOOTH",
"437 78 OFFCURVE",
"347 50 OFFCURVE",
"280 50 CURVE SMOOTH",
"207 50 OFFCURVE",
"142 69 OFFCURVE",
"83 99 CURVE",
"83 40 LINE",
"149 6 OFFCURVE",
"213 -5 OFFCURVE",
"277 -5 CURVE SMOOTH",
"382 -5 OFFCURVE",
"499 47 OFFCURVE",
"499 169 CURVE SMOOTH",
"499 262 OFFCURVE",
"434 311 OFFCURVE",
"358 338 CURVE",
"361 326 LINE",
"529 370 LINE",
"529 426 LINE",
"271 352 LINE"
);
}
);
width = 580;
}
);
unicode = 0A95;
},
{
glyphname = gjKHA;
lastChange = "2015-07-03 10:48:40 +0000";
layers = (
{
layerId = UUID0;
name = Bold;
paths = (
{
closed = 1;
nodes = (
"632 671 LINE",
"632 0 LINE",
"774 0 LINE",
"774 671 LINE"
);
},
{
closed = 1;
nodes = (
"418 299 LINE",
"670 299 LINE",
"670 416 LINE",
"418 416 LINE"
);
},
{
closed = 1;
nodes = (
"362 517 LINE",
"362 312 LINE SMOOTH",
"362 268 OFFCURVE",
"343 245 OFFCURVE",
"299 245 CURVE SMOOTH",
"256 245 OFFCURVE",
"237 268 OFFCURVE",
"237 312 CURVE SMOOTH",
"237 529 LINE SMOOTH",
"237 620 OFFCURVE",
"167 671 OFFCURVE",
"88 671 CURVE SMOOTH",
"47 671 OFFCURVE",
"18 664 OFFCURVE",
"18 664 CURVE",
"18 547 LINE",
"30 551 OFFCURVE",
"43 554 OFFCURVE",
"55 554 CURVE SMOOTH",
"77 554 OFFCURVE",
"95 545 OFFCURVE",
"95 516 CURVE SMOOTH",
"95 329 LINE SMOOTH",
"95 201 OFFCURVE",
"171 127 OFFCURVE",
"299 127 CURVE SMOOTH",
"428 127 OFFCURVE",
"504 201 OFFCURVE",
"504 329 CURVE SMOOTH",
"504 517 LINE"
);
}
);
width = 837;
},
{
layerId = "AD34CA4C-F33B-4C65-9C83-752D01B8F810";
name = Light;
paths = (
{
closed = 1;
nodes = (
"663 634 LINE",
"663 0 LINE",
"725 0 LINE",
"725 634 LINE"
);
},
{
closed = 1;
nodes = (
"417 313 LINE",
"669 313 LINE",
"669 368 LINE",
"417 368 LINE"
);
},
{
closed = 1;
nodes = (
"388 495 LINE",
"388 299 LINE SMOOTH",
"388 233 OFFCURVE",
"359 191 OFFCURVE",
"284 191 CURVE SMOOTH",
"214 191 OFFCURVE",
"182 238 OFFCURVE",
"182 298 CURVE SMOOTH",
"182 527 LINE SMOOTH",
"182 598 OFFCURVE",
"127 639 OFFCURVE",
"70 639 CURVE SMOOTH",
"58 639 OFFCURVE",
"46 638 OFFCURVE",
"35 636 CURVE",
"35 582 LINE",
"40 583 OFFCURVE",
"48 584 OFFCURVE",
"57 584 CURVE SMOOTH",
"94 584 OFFCURVE",
"120 571 OFFCURVE",
"120 516 CURVE SMOOTH",
"120 305 LINE SMOOTH",
"120 202 OFFCURVE",
"184 136 OFFCURVE",
"284 136 CURVE SMOOTH",
"389 136 OFFCURVE",
"450 195 OFFCURVE",
"450 305 CURVE SMOOTH",
"450 495 LINE"
);
}
);
width = 820;
}
);
unicode = 0A96;
},
{
glyphname = gjGA;
lastChange = "2015-07-03 10:48:40 +0000";
layers = (
{
layerId = UUID0;
name = Bold;
paths = (
{
closed = 1;
nodes = (
"471 671 LINE",
"471 0 LINE",
"613 0 LINE",
"613 671 LINE"
);
},
{
closed = 1;
nodes = (
"390 582 OFFCURVE",
"268 678 OFFCURVE",
"132 678 CURVE SMOOTH",
"104 678 OFFCURVE",
"76 674 OFFCURVE",
"48 666 CURVE",
"48 543 LINE",
"71 552 OFFCURVE",
"96 556 OFFCURVE",
"118 556 CURVE SMOOTH",
"195 556 OFFCURVE",
"245 502 OFFCURVE",
"245 426 CURVE",
"245 350 OFFCURVE",
"195 297 OFFCURVE",
"118 297 CURVE SMOOTH",
"91 297 OFFCURVE",
"61 302 OFFCURVE",
"33 314 CURVE",
"33 191 LINE",
"66 180 OFFCURVE",
"99 174 OFFCURVE",
"132 174 CURVE SMOOTH",
"268 174 OFFCURVE",
"390 270 OFFCURVE",
"390 426 CURVE"
);
}
);
width = 676;
},
{
layerId = "AD34CA4C-F33B-4C65-9C83-752D01B8F810";
name = Light;
paths = (
{
closed = 1;
nodes = (
"490 634 LINE",
"490 0 LINE",
"552 0 LINE",
"552 634 LINE"
);
},
{
closed = 1;
nodes = (
"347 553 OFFCURVE",
"249 639 OFFCURVE",
"135 639 CURVE SMOOTH",
"107 639 OFFCURVE",
"75 634 OFFCURVE",
"54 627 CURVE",
"54 571 LINE",
"77 580 OFFCURVE",
"102 584 OFFCURVE",
"124 584 CURVE SMOOTH",
"228 584 OFFCURVE",
"285 515 OFFCURVE",
"285 419 CURVE SMOOTH",
"285 316 OFFCURVE",
"220 253 OFFCURVE",
"125 253 CURVE SMOOTH",
"102 253 OFFCURVE",
"60 260 OFFCURVE",
"37 270 CURVE",
"37 215 LINE",
"68 203 OFFCURVE",
"100 198 OFFCURVE",
"130 198 CURVE SMOOTH",
"247 198 OFFCURVE",
"347 280 OFFCURVE",
"347 413 CURVE SMOOTH"
);
}
);
width = 647;
}
);
unicode = 0A97;
},
{
glyphname = gjGHA;
lastChange = "2015-07-03 10:48:40 +0000";
layers = (
{
layerId = UUID0;
name = Bold;
paths = (
{
closed = 1;
nodes = (
"451 671 LINE",
"451 0 LINE",
"593 0 LINE",
"593 671 LINE"
);
},
{
closed = 1;
nodes = (
"451 349 LINE",
"451 248 OFFCURVE",
"387 194 OFFCURVE",
"291 194 CURVE",
"231 194 OFFCURVE",
"190 220 OFFCURVE",
"190 264 CURVE SMOOTH",
"190 300 OFFCURVE",
"223 323 OFFCURVE",
"263 323 CURVE SMOOTH",
"333 323 LINE",
"333 442 LINE",
"276 442 LINE SMOOTH",
"239 442 OFFCURVE",
"202 460 OFFCURVE",
"202 502 CURVE SMOOTH",
"202 550 OFFCURVE",
"247 564 OFFCURVE",
"283 564 CURVE SMOOTH",
"318 564 OFFCURVE",
"349 558 OFFCURVE",
"369 553 CURVE",
"369 670 LINE",
"331 678 OFFCURVE",
"294 682 OFFCURVE",
"255 682 CURVE SMOOTH",
"144 682 OFFCURVE",
"58 625 OFFCURVE",
"58 533 CURVE SMOOTH",
"58 418 OFFCURVE",
"170 380 OFFCURVE",
"271 380 CURVE SMOOTH",
"293 380 LINE",
"293 394 LINE",
"263 394 LINE SMOOTH",
"139 394 OFFCURVE",
"45 352 OFFCURVE",
"45 246 CURVE SMOOTH",
"45 138 OFFCURVE",
"156 76 OFFCURVE",
"271 76 CURVE SMOOTH",
"351 76 OFFCURVE",
"429 105 OFFCURVE",
"466 174 CURVE"
);
}
);
width = 656;
},
{
layerId = "AD34CA4C-F33B-4C65-9C83-752D01B8F810";
name = Light;
paths = (
{
closed = 1;
nodes = (
"469 634 LINE",
"469 0 LINE",
"531 0 LINE",
"531 634 LINE"
);
},
{
closed = 1;
nodes = (
"469 330 LINE",
"469 225 OFFCURVE",
"379 155 OFFCURVE",
"273 155 CURVE SMOOTH",
"204 155 OFFCURVE",
"132 184 OFFCURVE",
"132 257 CURVE SMOOTH",
"132 328 OFFCURVE",
"204 357 OFFCURVE",
"269 357 CURVE SMOOTH",
"314 357 LINE",
"314 412 LINE",
"267 412 LINE SMOOTH",
"203 412 OFFCURVE",
"142 436 OFFCURVE",
"142 501 CURVE SMOOTH",
"142 561 OFFCURVE",
"194 591 OFFCURVE",
"263 591 CURVE SMOOTH",
"289 591 OFFCURVE",
"315 588 OFFCURVE",
"340 581 CURVE",
"340 635 LINE",
"312 643 OFFCURVE",
"283 646 OFFCURVE",
"255 646 CURVE SMOOTH",
"160 646 OFFCURVE",
"80 596 OFFCURVE",
"80 508 CURVE SMOOTH",
"80 426 OFFCURVE",
"155 378 OFFCURVE",
"236 378 CURVE SMOOTH",
"283 378 LINE",
"283 390 LINE",
"245 390 LINE SMOOTH",
"157 390 OFFCURVE",
"70 346 OFFCURVE",
"70 253 CURVE SMOOTH",
"70 155 OFFCURVE",
"170 100 OFFCURVE",
"271 100 CURVE SMOOTH",
"366 100 OFFCURVE",
"450 150 OFFCURVE",
"479 217 CURVE"
);
}
);
width = 626;
}
);
unicode = 0A98;
},
{
glyphname = gjNGA;
lastChange = "2015-07-03 10:48:40 +0000";
layers = (
{
anchors = (
{
name = abvm.candra;
position = "{377, 671}";
},
{
name = abvm.e;
position = "{410, 671}";
},
{
name = blwm.r;
position = "{387, -57}";
},
{
name = blwm.u;
position = "{397, -57}";
},
{
name = blwm.uu;
position = "{370, -57}";
},
{
name = blwm.virama;
position = "{361, 0}";
}
);
layerId = UUID0;
name = Bold;
paths = (
{
closed = 1;
nodes = (
"518 315 OFFCURVE",
"425 367 OFFCURVE",
"337 392 CURVE SMOOTH",
"292 405 OFFCURVE",
"188 418 OFFCURVE",
"188 485 CURVE SMOOTH",
"188 534 OFFCURVE",
"232 556 OFFCURVE",
"293 556 CURVE SMOOTH",
"356 556 OFFCURVE",
"401 549 OFFCURVE",
"466 530 CURVE",
"466 654 LINE",
"412 670 OFFCURVE",
"354 678 OFFCURVE",
"288 678 CURVE SMOOTH",
"143 678 OFFCURVE",
"43 610 OFFCURVE",
"43 488 CURVE SMOOTH",
"43 352 OFFCURVE",
"159 307 OFFCURVE",
"246 285 CURVE SMOOTH",
"311 269 OFFCURVE",
"373 253 OFFCURVE",
"373 188 CURVE SMOOTH",
"373 144 OFFCURVE",
"331 115 OFFCURVE",
"271 115 CURVE SMOOTH",
"194 115 OFFCURVE",
"119 135 OFFCURVE",
"45 179 CURVE",
"45 49 LINE",
"113 10 OFFCURVE",
"190 -7 OFFCURVE",
"273 -7 CURVE SMOOTH",
"418 -7 OFFCURVE",
"518 75 OFFCURVE",
"518 191 CURVE SMOOTH"
);
},
{
closed = 1;
nodes = (
"469 378 OFFCURVE",
"505 342 OFFCURVE",
"551 342 CURVE SMOOTH",
"597 342 OFFCURVE",
"633 378 OFFCURVE",
"633 424 CURVE SMOOTH",
"633 470 OFFCURVE",
"597 506 OFFCURVE",
"551 506 CURVE SMOOTH",
"505 506 OFFCURVE",
"469 470 OFFCURVE",
"469 424 CURVE SMOOTH"
);
}
);
width = 643;
},
{
anchors = (
{
name = abvm.candra;
position = "{267, 634}";
},
{
name = abvm.e;
position = "{349, 634}";
},
{
name = blwm.r;
position = "{333, -65}";
},
{
name = blwm.u;
position = "{332, -65}";
},
{
name = blwm.uu;
position = "{296, -65}";
},
{
name = blwm.virama;
position = "{306, 0}";
}
);
layerId = "AD34CA4C-F33B-4C65-9C83-752D01B8F810";
name = Light;
paths = (
{
closed = 1;
nodes = (
"454 291 OFFCURVE",
"355 334 OFFCURVE",
"264 359 CURVE SMOOTH",
"188 380 OFFCURVE",
"117 405 OFFCURVE",
"117 481 CURVE SMOOTH",
"117 555 OFFCURVE",
"184 584 OFFCURVE",
"261 584 CURVE SMOOTH",
"319 584 OFFCURVE",
"370 574 OFFCURVE",
"409 562 CURVE",
"409 620 LINE",
"360 633 OFFCURVE",
"308 639 OFFCURVE",
"258 639 CURVE SMOOTH",
"153 639 OFFCURVE",
"55 590 OFFCURVE",
"55 482 CURVE SMOOTH",
"55 372 OFFCURVE",
"153 331 OFFCURVE",
"244 307 CURVE SMOOTH",
"319 287 OFFCURVE",
"392 260 OFFCURVE",
"392 169 CURVE SMOOTH",
"392 79 OFFCURVE",
"302 50 OFFCURVE",
"235 50 CURVE SMOOTH",
"169 50 OFFCURVE",
"111 66 OFFCURVE",
"58 92 CURVE",
"58 33 LINE",
"117 4 OFFCURVE",
"175 -5 OFFCURVE",
"232 -5 CURVE SMOOTH",
"337 -5 OFFCURVE",
"454 48 OFFCURVE",
"454 173 CURVE SMOOTH"
);
},
{
closed = 1;
nodes = (
"410 404 OFFCURVE",
"429 385 OFFCURVE",
"455 385 CURVE SMOOTH",
"481 385 OFFCURVE",
"500 404 OFFCURVE",
"500 430 CURVE SMOOTH",
"500 456 OFFCURVE",
"481 475 OFFCURVE",
"455 475 CURVE SMOOTH",
"429 475 OFFCURVE",
"410 456 OFFCURVE",
"410 430 CURVE SMOOTH"
);
}
);
width = 540;
}
);
unicode = 0A99;
},
{
glyphname = gjCA;
lastChange = "2015-07-03 10:48:40 +0000";
layers = (
{
layerId = UUID0;
name = Bold;
paths = (
{
closed = 1;
nodes = (
"23 312 LINE",
"207 312 LINE SMOOTH",
"323 312 OFFCURVE",
"417 372 OFFCURVE",
"417 489 CURVE SMOOTH",
"417 613 OFFCURVE",
"315 678 OFFCURVE",
"199 678 CURVE SMOOTH",
"153 678 OFFCURVE",
"111 671 OFFCURVE",
"82 665 CURVE",
"82 545 LINE",
"115 554 OFFCURVE",
"147 558 OFFCURVE",
"185 558 CURVE SMOOTH",
"233 558 OFFCURVE",
"273 535 OFFCURVE",
"273 494 CURVE SMOOTH",
"273 444 OFFCURVE",
"224 431 OFFCURVE",
"186 431 CURVE SMOOTH",
"23 431 LINE"
);
},
{
closed = 1;
nodes = (
"497 347 LINE",
"497 268 OFFCURVE",
"436 212 OFFCURVE",
"348 212 CURVE SMOOTH",
"282 212 OFFCURVE",
"227 243 OFFCURVE",
"221 315 CURVE",
"88 320 LINE",
"102 172 OFFCURVE",
"212 92 OFFCURVE",
"332 92 CURVE SMOOTH",
"409 92 OFFCURVE",
"480 127 OFFCURVE",
"508 181 CURVE"
);
},
{
closed = 1;
nodes = (
"497 671 LINE",
"497 0 LINE",
"639 0 LINE",
"639 671 LINE"
);
}
);
width = 702;
},
{
layerId = "AD34CA4C-F33B-4C65-9C83-752D01B8F810";
name = Light;
paths = (
{
closed = 1;
nodes = (
"35 331 LINE",
"183 331 LINE SMOOTH",
"273 331 OFFCURVE",
"357 381 OFFCURVE",
"357 486 CURVE SMOOTH",
"357 587 OFFCURVE",
"266 639 OFFCURVE",
"173 639 CURVE SMOOTH",
"139 639 OFFCURVE",
"114 635 OFFCURVE",
"94 631 CURVE",
"94 576 LINE",
"117 581 OFFCURVE",
"140 584 OFFCURVE",
"166 584 CURVE SMOOTH",
"240 584 OFFCURVE",
"295 549 OFFCURVE",
"295 484 CURVE SMOOTH",
"295 407 OFFCURVE",
"229 386 OFFCURVE",
"169 386 CURVE SMOOTH",
"35 386 LINE"
);
},
{
closed = 1;
nodes = (
"504 340 LINE",
"504 230 OFFCURVE",
"425 172 OFFCURVE",
"332 172 CURVE SMOOTH",
"246 172 OFFCURVE",
"170 224 OFFCURVE",
"166 340 CURVE",
"104 340 LINE",
"110 188 OFFCURVE",
"219 117 OFFCURVE",
"329 117 CURVE SMOOTH",
"405 117 OFFCURVE",
"499 154 OFFCURVE",
"524 246 CURVE"
);
},
{
closed = 1;
nodes = (
"504 634 LINE",
"504 0 LINE",
"566 0 LINE",
"566 634 LINE"
);
}
);
width = 661;
}
);
unicode = 0A9A;
},
{
glyphname = gjCHA;
lastChange = "2015-07-03 10:48:40 +0000";
layers = (
{
anchors = (
{
name = abvm.candra;
position = "{487, 639}";
},
{
name = abvm.e;
position = "{640, 639}";
},
{
name = blwm.u;
position = "{496, -57}";
},
{
name = blwm.uu;
position = "{462, -57}";
},
{
name = blwm.virama;
position = "{437, 0}";
}
);
layerId = UUID0;
name = Bold;
paths = (
{
closed = 1;
nodes = (
"640 249 OFFCURVE",
"517 116 OFFCURVE",
"341 116 CURVE SMOOTH",
"279 116 OFFCURVE",
"194 137 OFFCURVE",
"194 207 CURVE SMOOTH",
"194 264 OFFCURVE",
"243 287 OFFCURVE",
"291 287 CURVE SMOOTH",
"338 287 LINE",
"338 406 LINE",
"277 406 LINE SMOOTH",
"234 406 OFFCURVE",
"185 425 OFFCURVE",
"185 482 CURVE SMOOTH",
"185 533 OFFCURVE",
"227 557 OFFCURVE",
"281 557 CURVE SMOOTH",
"309 557 OFFCURVE",
"332 553 OFFCURVE",
"357 547 CURVE",
"357 667 LINE",
"335 672 OFFCURVE",
"301 678 OFFCURVE",
"262 678 CURVE SMOOTH",
"149 678 OFFCURVE",
"40 620 OFFCURVE",
"40 505 CURVE SMOOTH",
"40 399 OFFCURVE",
"140 339 OFFCURVE",
"246 339 CURVE SMOOTH",
"287 339 LINE",
"287 351 LINE",
"246 351 LINE SMOOTH",
"157 351 OFFCURVE",
"49 311 OFFCURVE",
"49 199 CURVE SMOOTH",
"49 69 OFFCURVE",
"179 -7 OFFCURVE",
"360 -7 CURVE SMOOTH",
"572 -7 OFFCURVE",
"780 156 OFFCURVE",
"780 388 CURVE SMOOTH",
"780 557 OFFCURVE",
"683 639 OFFCURVE",
"582 639 CURVE SMOOTH",
"460 639 OFFCURVE",
"398 547 OFFCURVE",
"398 435 CURVE SMOOTH",
"398 381 OFFCURVE",
"413 330 OFFCURVE",
"436 289 CURVE",
"573 289 LINE",
"556 319 OFFCURVE",
"539 370 OFFCURVE",
"539 417 CURVE SMOOTH",
"539 481 OFFCURVE",
"558 517 OFFCURVE",
"590 517 CURVE SMOOTH",
"628 517 OFFCURVE",
"640 465 OFFCURVE",
"640 402 CURVE SMOOTH"
);
}
);
width = 810;
},
{
anchors = (
{
name = abvm.candra;
position = "{438, 607}";
},
{
name = abvm.e;
position = "{617, 607}";
},
{
name = blwm.u;
position = "{472, -66}";
},
{
name = blwm.uu;
position = "{419, -66}";
},
{
name = blwm.virama;
position = "{407, 0}";
}
);
layerId = "AD34CA4C-F33B-4C65-9C83-752D01B8F810";
name = Light;
paths = (
{
closed = 1;
nodes = (
"680 154 OFFCURVE",
"490 49 OFFCURVE",
"327 49 CURVE SMOOTH",
"223 49 OFFCURVE",
"141 99 OFFCURVE",
"141 187 CURVE SMOOTH",
"141 272 OFFCURVE",
"213 304 OFFCURVE",
"278 304 CURVE SMOOTH",
"330 304 LINE",
"330 359 LINE",
"276 359 LINE SMOOTH",
"202 359 OFFCURVE",
"132 392 OFFCURVE",
"132 472 CURVE SMOOTH",
"132 548 OFFCURVE",
"192 584 OFFCURVE",
"273 584 CURVE SMOOTH",
"301 584 OFFCURVE",
"332 580 OFFCURVE",
"349 575 CURVE",
"349 629 LINE",
"331 634 OFFCURVE",
"293 639 OFFCURVE",
"267 639 CURVE SMOOTH",
"159 639 OFFCURVE",
"70 581 OFFCURVE",
"70 474 CURVE SMOOTH",
"70 386 OFFCURVE",
"145 325 OFFCURVE",
"226 325 CURVE SMOOTH",
"273 325 LINE",
"273 337 LINE",
"235 337 LINE SMOOTH",
"155 337 OFFCURVE",
"79 287 OFFCURVE",
"79 183 CURVE SMOOTH",
"79 67 OFFCURVE",
"189 -6 OFFCURVE",
"326 -6 CURVE SMOOTH",
"541 -6 OFFCURVE",
"742 139 OFFCURVE",
"742 402 CURVE SMOOTH",
"742 506 OFFCURVE",
"689 607 OFFCURVE",
"584 607 CURVE SMOOTH",
"483 607 OFFCURVE",
"434 522 OFFCURVE",
"434 436 CURVE SMOOTH",
"434 371 OFFCURVE",
"460 304 OFFCURVE",
"501 254 CURVE",
"563 254 LINE",
"524 301 OFFCURVE",
"495 364 OFFCURVE",
"495 425 CURVE SMOOTH",
"495 507 OFFCURVE",
"530 552 OFFCURVE",
"585 552 CURVE SMOOTH",
"663 552 OFFCURVE",
"680 466 OFFCURVE",
"680 399 CURVE SMOOTH"
);
}
);
width = 784;
}
);
unicode = 0A9B;
},
{
glyphname = gjJA;
lastChange = "2015-07-03 10:48:40 +0000";
layers = (
{
anchors = (
{
name = abvm.candra;
position = "{542, 671}";
},
{
name = abvm.e;
position = "{664, 671}";
},
{
name = blwm.r;
position = "{569, -57}";
},
{
name = blwm.u;
position = "{546, -57}";
},
{
name = blwm.uu;
position = "{549, -57}";
},
{
name = blwm.virama;
position = "{534, 0}";
}
);
layerId = UUID0;
name = Bold;
paths = (
{
closed = 1;
nodes = (
"774 671 LINE",
"620 671 LINE",
"376 423 LINE SMOOTH",
"284 329 OFFCURVE",
"243 269 OFFCURVE",
"243 187 CURVE SMOOTH",
"243 54 OFFCURVE",
"359 -7 OFFCURVE",
"464 -7 CURVE SMOOTH",
"604 -7 OFFCURVE",
"681 80 OFFCURVE",
"681 175 CURVE SMOOTH",
"681 261 OFFCURVE",
"632 359 OFFCURVE",
"527 480 CURVE SMOOTH",
"435 587 OFFCURVE",
"339 678 OFFCURVE",
"209 678 CURVE SMOOTH",
"98 678 OFFCURVE",
"15 602 OFFCURVE",
"15 496 CURVE SMOOTH",
"15 403 OFFCURVE",
"89 320 OFFCURVE",
"197 320 CURVE SMOOTH",
"229 320 OFFCURVE",
"255 326 OFFCURVE",
"264 330 CURVE",
"264 446 LINE",
"248 440 OFFCURVE",
"235 439 OFFCURVE",
"222 439 CURVE SMOOTH",
"184 439 OFFCURVE",
"157 465 OFFCURVE",
"157 498 CURVE SMOOTH",
"157 536 OFFCURVE",
"187 556 OFFCURVE",
"219 556 CURVE SMOOTH",
"278 556 OFFCURVE",
"336 500 OFFCURVE",
"418 406 CURVE SMOOTH",
"471 345 OFFCURVE",
"540 269 OFFCURVE",
"540 189 CURVE SMOOTH",
"540 143 OFFCURVE",
"502 112 OFFCURVE",
"462 112 CURVE SMOOTH",
"414 112 OFFCURVE",
"384 149 OFFCURVE",
"384 185 CURVE SMOOTH",
"384 212 OFFCURVE",
"385 239 OFFCURVE",
"458 318 CURVE SMOOTH",
"774 660 LINE"
);
}
);
width = 748;
},
{
anchors = (
{
name = abvm.candra;
position = "{494, 634}";
},
{
name = abvm.e;
position = "{622, 634}";
},
{
name = blwm.r;
position = "{516, -65}";
},
{
name = blwm.u;
position = "{488, -65}";
},
{
name = blwm.uu;
position = "{482, -65}";
},
{
name = blwm.virama;
position = "{470, 0}";
}
);
layerId = "AD34CA4C-F33B-4C65-9C83-752D01B8F810";
name = Light;
paths = (
{
closed = 1;
nodes = (
"684 634 LINE",
"614 634 LINE",
"351 358 LINE SMOOTH",
"285 288 OFFCURVE",
"257 236 OFFCURVE",
"257 169 CURVE SMOOTH",
"257 62 OFFCURVE",
"346 -5 OFFCURVE",
"440 -5 CURVE SMOOTH",
"549 -5 OFFCURVE",
"624 72 OFFCURVE",
"624 175 CURVE SMOOTH",
"624 253 OFFCURVE",
"580 340 OFFCURVE",
"482 453 CURVE SMOOTH",
"397 551 OFFCURVE",
"309 639 OFFCURVE",
"196 639 CURVE SMOOTH",
"98 639 OFFCURVE",
"25 577 OFFCURVE",
"25 486 CURVE SMOOTH",
"25 406 OFFCURVE",
"89 338 OFFCURVE",
"182 338 CURVE SMOOTH",
"207 338 OFFCURVE",
"233 344 OFFCURVE",
"242 348 CURVE",
"242 401 LINE",
"228 396 OFFCURVE",
"206 393 OFFCURVE",
"188 393 CURVE SMOOTH",
"121 393 OFFCURVE",
"87 435 OFFCURVE",
"87 486 CURVE SMOOTH",
"87 545 OFFCURVE",
"134 584 OFFCURVE",
"197 584 CURVE SMOOTH",
"294 584 OFFCURVE",
"376 493 OFFCURVE",
"443 414 CURVE SMOOTH",
"523 319 OFFCURVE",
"563 256 OFFCURVE",
"563 178 CURVE SMOOTH",
"563 102 OFFCURVE",
"511 50 OFFCURVE",
"441 50 CURVE SMOOTH",
"370 50 OFFCURVE",
"317 99 OFFCURVE",
"317 171 CURVE SMOOTH",
"317 219 OFFCURVE",
"337 264 OFFCURVE",
"388 318 CURVE SMOOTH",
"684 630 LINE"
);
}
);
width = 699;
}
);
unicode = 0A9C;
},
{
glyphname = gjJHA;
lastChange = "2015-07-03 10:48:40 +0000";
layers = (
{
anchors = (
{
name = abvm.candra;
position = "{496, 671}";
},
{
name = abvm.e;
position = "{634, 671}";
},
{
name = blwm.r;
position = "{618, -50}";
},
{
name = blwm.u;
position = "{603, -50}";
},
{
name = blwm.uu;
position = "{589, -50}";
},
{
name = blwm.virama;
position = "{482, 0}";
}
);
layerId = UUID0;
name = Bold;
paths = (
{
closed = 1;
nodes = (
"352 19 LINE",
"394 5 OFFCURVE",
"439 0 OFFCURVE",
"482 0 CURVE SMOOTH",
"635 0 OFFCURVE",
"743 102 OFFCURVE",
"743 246 CURVE SMOOTH",
"743 416 OFFCURVE",
"603 496 OFFCURVE",
"478 496 CURVE SMOOTH",
"430 496 OFFCURVE",
"364 485 OFFCURVE",
"316 462 CURVE",
"370 351 LINE",
"402 367 OFFCURVE",
"434 374 OFFCURVE",
"464 374 CURVE SMOOTH",
"534 374 OFFCURVE",
"598 337 OFFCURVE",
"598 248 CURVE SMOOTH",
"598 164 OFFCURVE",
"529 123 OFFCURVE",
"454 123 CURVE SMOOTH",
"417 123 OFFCURVE",
"382 130 OFFCURVE",
"352 142 CURVE"
);
},
{
closed = 1;
nodes = (
"590 671 LINE",
"492 458 LINE",
"621 399 LINE",
"746 671 LINE"
);
},
{
closed = 1;
nodes = (
"393 582 OFFCURVE",
"271 678 OFFCURVE",
"135 678 CURVE SMOOTH",
"107 678 OFFCURVE",
"79 674 OFFCURVE",
"51 666 CURVE",
"51 543 LINE",
"74 552 OFFCURVE",
"99 556 OFFCURVE",
"121 556 CURVE SMOOTH",
"198 556 OFFCURVE",
"248 502 OFFCURVE",
"248 426 CURVE SMOOTH",
"248 345 OFFCURVE",
"186 297 OFFCURVE",
"115 297 CURVE SMOOTH",
"89 297 OFFCURVE",
"60 303 OFFCURVE",
"33 313 CURVE",
"33 190 LINE",
"67 180 OFFCURVE",
"101 174 OFFCURVE",
"135 174 CURVE SMOOTH",
"271 174 OFFCURVE",
"393 270 OFFCURVE",
"393 426 CURVE SMOOTH"
);
}
);
width = 786;
},
{
anchors = (
{
name = abvm.candra;
position = "{475, 634}";
},
{
name = abvm.e;
position = "{622, 634}";
},
{
name = blwm.r;
position = "{534, -65}";
},
{
name = blwm.u;
position = "{520, -65}";
},
{
name = blwm.uu;
position = "{508, -65}";
},
{
name = blwm.virama;
position = "{407, 0}";
}
);
layerId = "AD34CA4C-F33B-4C65-9C83-752D01B8F810";
name = Light;
paths = (
{
closed = 1;
nodes = (
"343 17 LINE",
"370 8 OFFCURVE",
"412 0 OFFCURVE",
"449 0 CURVE SMOOTH",
"593 0 OFFCURVE",
"698 95 OFFCURVE",
"698 227 CURVE SMOOTH",
"698 374 OFFCURVE",
"580 455 OFFCURVE",
"450 455 CURVE SMOOTH",
"406 455 OFFCURVE",
"359 445 OFFCURVE",
"319 425 CURVE",
"332 370 LINE",
"370 390 OFFCURVE",
"413 400 OFFCURVE",
"453 400 CURVE SMOOTH",
"549 400 OFFCURVE",
"636 346 OFFCURVE",
"636 227 CURVE SMOOTH",
"636 119 OFFCURVE",
"551 55 OFFCURVE",
"449 55 CURVE SMOOTH",
"420 55 OFFCURVE",
"375 61 OFFCURVE",
"343 71 CURVE"
);
},
{
closed = 1;
nodes = (
"613 634 LINE",
"519 429 LINE",
"569 399 LINE",
"677 634 LINE"
);
},
{
closed = 1;
nodes = (
"363 544 OFFCURVE",
"278 639 OFFCURVE",
"144 639 CURVE SMOOTH",
"119 639 OFFCURVE",
"93 634 OFFCURVE",
"70 627 CURVE",
"70 571 LINE",
"95 580 OFFCURVE",
"126 584 OFFCURVE",
"142 584 CURVE SMOOTH",
"246 584 OFFCURVE",
"302 516 OFFCURVE",
"302 424 CURVE SMOOTH",
"302 325 OFFCURVE",
"236 263 OFFCURVE",
"141 263 CURVE SMOOTH",
"118 263 OFFCURVE",
"76 270 OFFCURVE",
"53 280 CURVE",
"53 225 LINE",
"84 213 OFFCURVE",
"116 208 OFFCURVE",
"146 208 CURVE SMOOTH",
"263 208 OFFCURVE",
"363 289 OFFCURVE",
"363 418 CURVE SMOOTH"
);
}
);
width = 763;
}
);
unicode = 0A9D;
},
{
glyphname = gjNYA;
lastChange = "2015-07-03 10:48:40 +0000";
layers = (
{
layerId = UUID0;
name = Bold;
paths = (
{
closed = 1;
nodes = (
"490 671 LINE",
"490 0 LINE",
"632 0 LINE",
"632 671 LINE"
);
},
{
closed = 1;
nodes = (
"339 300 LINE",
"535 300 LINE",
"535 417 LINE",
"339 417 LINE"
);
},
{
closed = 1;
nodes = (
"401 544 OFFCURVE",
"279 638 OFFCURVE",
"143 638 CURVE SMOOTH",
"115 638 OFFCURVE",
"87 634 OFFCURVE",
"59 626 CURVE",
"59 503 LINE",
"82 512 OFFCURVE",
"107 516 OFFCURVE",
"129 516 CURVE SMOOTH",
"206 516 OFFCURVE",
"256 464 OFFCURVE",
"256 391 CURVE SMOOTH",
"256 318 OFFCURVE",
"206 267 OFFCURVE",
"129 267 CURVE SMOOTH",
"96 267 OFFCURVE",
"60 273 OFFCURVE",
"26 291 CURVE",
"26 168 LINE",
"65 152 OFFCURVE",
"104 144 OFFCURVE",
"143 144 CURVE SMOOTH",
"279 144 OFFCURVE",
"401 238 OFFCURVE",
"401 391 CURVE SMOOTH"
);
}
);
width = 695;
},
{
layerId = "AD34CA4C-F33B-4C65-9C83-752D01B8F810";
name = Light;
paths = (
{
closed = 1;
nodes = (
"512 634 LINE",
"512 0 LINE",
"574 0 LINE",
"574 634 LINE"
);
},
{
closed = 1;
nodes = (
"308 333 LINE",
"560 333 LINE",
"560 388 LINE",
"308 388 LINE"
);
},
{
closed = 1;
nodes = (
"347 518 OFFCURVE",
"249 601 OFFCURVE",
"135 601 CURVE SMOOTH",
"102 601 OFFCURVE",
"71 595 OFFCURVE",
"54 589 CURVE",
"54 533 LINE",
"79 542 OFFCURVE",
"110 546 OFFCURVE",
"126 546 CURVE SMOOTH",
"230 546 OFFCURVE",
"285 480 OFFCURVE",
"285 390 CURVE SMOOTH",
"285 293 OFFCURVE",
"220 233 OFFCURVE",
"125 233 CURVE SMOOTH",
"102 233 OFFCURVE",
"60 240 OFFCURVE",
"37 250 CURVE",
"37 195 LINE",
"68 183 OFFCURVE",
"100 178 OFFCURVE",
"130 178 CURVE SMOOTH",
"247 178 OFFCURVE",
"347 257 OFFCURVE",
"347 384 CURVE SMOOTH"
);
}
);
width = 669;
}
);
unicode = 0A9E;
},
{
glyphname = gjTTA;
lastChange = "2015-07-03 10:48:40 +0000";
layers = (
{
anchors = (
{
name = abvm.candra;
position = "{386, 671}";
},
{
name = abvm.e;
position = "{445, 671}";
},
{
name = blwm.r;
position = "{390, -58}";
},
{
name = blwm.u;
position = "{400, -58}";
},
{
name = blwm.uu;
position = "{366, -58}";
},
{
name = blwm.virama;
position = "{331, 0}";
}
);
layerId = UUID0;
name = Bold;
paths = (
{
closed = 1;
nodes = (
"92 512 LINE",
"135 536 OFFCURVE",
"202 555 OFFCURVE",
"254 555 CURVE SMOOTH",
"298 555 OFFCURVE",
"361 542 OFFCURVE",
"361 485 CURVE SMOOTH",
"361 432 OFFCURVE",
"299 416 OFFCURVE",
"230 397 CURVE SMOOTH",
"138 372 OFFCURVE",
"37 321 OFFCURVE",
"37 203 CURVE SMOOTH",
"37 64 OFFCURVE",
"156 -8 OFFCURVE",
"296 -8 CURVE SMOOTH",
"379 -8 OFFCURVE",
"447 6 OFFCURVE",
"501 34 CURVE",
"501 168 LINE",
"435 132 OFFCURVE",
"366 114 OFFCURVE",
"292 114 CURVE SMOOTH",
"251 114 OFFCURVE",
"183 126 OFFCURVE",
"183 187 CURVE SMOOTH",
"183 262 OFFCURVE",
"283 273 OFFCURVE",
"348 294 CURVE SMOOTH",
"436 322 OFFCURVE",
"507 373 OFFCURVE",
"507 477 CURVE SMOOTH",
"507 600 OFFCURVE",
"397 678 OFFCURVE",
"266 678 CURVE SMOOTH",
"205 678 OFFCURVE",
"140 667 OFFCURVE",
"92 646 CURVE"
);
}
);
width = 550;
},
{
anchors = (
{
name = abvm.candra;
position = "{320, 634}";
},
{
name = abvm.e;
position = "{387, 634}";
},
{
name = blwm.r;
position = "{318, -65}";
},
{
name = blwm.u;
position = "{364, -65}";
},
{
name = blwm.uu;
position = "{304, -65}";
},
{
name = blwm.virama;
position = "{277, 0}";
}
);
layerId = "AD34CA4C-F33B-4C65-9C83-752D01B8F810";
name = Light;
paths = (
{
closed = 1;
nodes = (
"104 552 LINE",
"142 572 OFFCURVE",
"190 584 OFFCURVE",
"246 584 CURVE SMOOTH",
"323 584 OFFCURVE",
"390 555 OFFCURVE",
"390 481 CURVE SMOOTH",
"390 412 OFFCURVE",
"323 388 OFFCURVE",
"250 362 CURVE SMOOTH",
"158 330 OFFCURVE",
"55 296 OFFCURVE",
"55 173 CURVE SMOOTH",
"55 48 OFFCURVE",
"170 -5 OFFCURVE",
"275 -5 CURVE SMOOTH",
"335 -5 OFFCURVE",
"396 4 OFFCURVE",
"458 33 CURVE",
"458 92 LINE",
"403 66 OFFCURVE",
"341 50 OFFCURVE",
"272 50 CURVE SMOOTH",
"205 50 OFFCURVE",
"117 79 OFFCURVE",
"117 169 CURVE SMOOTH",
"117 260 OFFCURVE",
"203 287 OFFCURVE",
"287 315 CURVE SMOOTH",
"361 339 OFFCURVE",
"452 380 OFFCURVE",
"452 478 CURVE SMOOTH",
"452 586 OFFCURVE",
"351 639 OFFCURVE",
"249 639 CURVE SMOOTH",
"201 639 OFFCURVE",
"151 632 OFFCURVE",
"104 611 CURVE"
);
}
);
width = 507;
}
);
unicode = 0A9F;
},
{
glyphname = gjTTHA;
lastChange = "2015-07-03 10:48:40 +0000";
layers = (
{
anchors = (
{
name = abvm.candra;
position = "{388, 671}";
},
{
name = abvm.e;
position = "{468, 671}";
},
{
name = blwm.r;
position = "{410, -57}";
},
{
name = blwm.u;
position = "{418, -57}";
},
{
name = blwm.uu;
position = "{385, -57}";
},
{
name = blwm.virama;
position = "{364, 0}";
}
);
layerId = UUID0;
name = Bold;
paths = (
{
closed = 1;
nodes = (
"440 149 OFFCURVE",
"391 112 OFFCURVE",
"310 112 CURVE SMOOTH",
"227 112 OFFCURVE",
"178 149 OFFCURVE",
"178 202 CURVE SMOOTH",
"178 255 OFFCURVE",
"227 292 OFFCURVE",
"310 292 CURVE SMOOTH",
"391 292 OFFCURVE",
"440 255 OFFCURVE",
"440 203 CURVE SMOOTH"
);
},
{
closed = 1;
nodes = (
"238 392 LINE",
"115 373 OFFCURVE",
"35 303 OFFCURVE",
"35 202 CURVE SMOOTH",
"35 80 OFFCURVE",
"146 -8 OFFCURVE",
"308 -8 CURVE SMOOTH",
"472 -8 OFFCURVE",
"583 80 OFFCURVE",
"583 203 CURVE SMOOTH",
"583 319 OFFCURVE",
"493 376 OFFCURVE",
"401 401 CURVE SMOOTH",
"331 420 OFFCURVE",
"228 427 OFFCURVE",
"228 491 CURVE SMOOTH",
"228 539 OFFCURVE",
"274 556 OFFCURVE",
"333 556 CURVE SMOOTH",
"396 556 OFFCURVE",
"441 549 OFFCURVE",
"506 530 CURVE",
"506 654 LINE",
"452 670 OFFCURVE",
"394 678 OFFCURVE",
"328 678 CURVE SMOOTH",
"186 678 OFFCURVE",
"83 619 OFFCURVE",
"83 502 CURVE SMOOTH",
"83 397 OFFCURVE",
"186 345 OFFCURVE",
"269 327 CURVE"
);
}
);
width = 613;
},
{
anchors = (
{
name = abvm.candra;
position = "{324, 634}";
},
{
name = abvm.e;
position = "{395, 634}";
},
{
name = blwm.r;
position = "{357, -65}";
},
{
name = blwm.u;
position = "{383, -65}";
},
{
name = blwm.uu;
position = "{331, -65}";
},
{
name = blwm.virama;
position = "{317, 0}";
}
);
layerId = "AD34CA4C-F33B-4C65-9C83-752D01B8F810";
name = Light;
paths = (
{
closed = 1;
nodes = (
"476 103 OFFCURVE",
"410 50 OFFCURVE",
"299 50 CURVE SMOOTH",
"188 50 OFFCURVE",
"122 103 OFFCURVE",
"122 181 CURVE SMOOTH",
"122 259 OFFCURVE",
"188 314 OFFCURVE",
"299 314 CURVE SMOOTH",
"410 314 OFFCURVE",
"476 259 OFFCURVE",
"476 181 CURVE SMOOTH"
);
},
{
closed = 1;
nodes = (
"234 355 LINE",
"128 341 OFFCURVE",
"60 273 OFFCURVE",
"60 181 CURVE SMOOTH",
"60 73 OFFCURVE",
"156 -5 OFFCURVE",
"299 -5 CURVE SMOOTH",
"442 -5 OFFCURVE",
"538 73 OFFCURVE",
"538 181 CURVE SMOOTH",
"538 267 OFFCURVE",
"483 323 OFFCURVE",
"393 353 CURVE SMOOTH",
"321 377 OFFCURVE",
"162 390 OFFCURVE",
"162 490 CURVE SMOOTH",
"162 558 OFFCURVE",
"233 584 OFFCURVE",
"311 584 CURVE SMOOTH",
"367 584 OFFCURVE",
"417 575 OFFCURVE",
"455 566 CURVE",
"455 622 LINE",
"407 634 OFFCURVE",
"353 639 OFFCURVE",
"308 639 CURVE SMOOTH",
"203 639 OFFCURVE",
"100 593 OFFCURVE",
"100 491 CURVE SMOOTH",
"100 408 OFFCURVE",
"169 365 OFFCURVE",
"237 346 CURVE"
);
}
);
width = 578;
}
);
unicode = 0AA0;
},
{
glyphname = gjDDA;
lastChange = "2015-07-03 10:48:40 +0000";
layers = (
{
anchors = (
{
name = abvm.candra;
position = "{344, 671}";
},
{
name = abvm.e;
position = "{410, 671}";
},
{
name = blwm.r;
position = "{387, -57}";
},
{
name = blwm.u;
position = "{397, -57}";
},
{
name = blwm.uu;
position = "{366, -57}";
},
{
name = blwm.virama;
position = "{343, 0}";
}
);
layerId = UUID0;
name = Bold;
paths = (
{
closed = 1;
nodes = (
"466 653 LINE",
"418 670 OFFCURVE",
"348 678 OFFCURVE",
"287 678 CURVE SMOOTH",
"134 678 OFFCURVE",
"42 600 OFFCURVE",
"42 480 CURVE SMOOTH",
"42 384 OFFCURVE",
"107 324 OFFCURVE",
"201 294 CURVE SMOOTH",
"268 273 OFFCURVE",
"373 262 OFFCURVE",
"373 189 CURVE SMOOTH",
"373 133 OFFCURVE",
"314 114 OFFCURVE",
"264 114 CURVE SMOOTH",
"186 114 OFFCURVE",
"114 133 OFFCURVE",
"45 171 CURVE",
"45 37 LINE",
"102 7 OFFCURVE",
"173 -8 OFFCURVE",
"260 -8 CURVE SMOOTH",
"412 -8 OFFCURVE",
"519 62 OFFCURVE",
"519 196 CURVE SMOOTH",
"519 312 OFFCURVE",
"425 369 OFFCURVE",
"319 397 CURVE SMOOTH",
"250 416 OFFCURVE",
"188 432 OFFCURVE",
"188 485 CURVE SMOOTH",
"188 542 OFFCURVE",
"245 555 OFFCURVE",
"302 555 CURVE SMOOTH",
"354 555 OFFCURVE",
"423 542 OFFCURVE",
"466 525 CURVE"
);
}
);
width = 549;
},
{
anchors = (
{
name = abvm.candra;
position = "{267, 634}";
},
{
name = abvm.e;
position = "{349, 634}";
},
{
name = blwm.r;
position = "{333, -65}";
},
{
name = blwm.u;
position = "{332, -65}";
},
{
name = blwm.uu;
position = "{296, -65}";
},
{
name = blwm.virama;
position = "{285, 0}";
}
);
layerId = "AD34CA4C-F33B-4C65-9C83-752D01B8F810";
name = Light;
paths = (
{
closed = 1;
nodes = (
"409 620 LINE",
"360 633 OFFCURVE",
"308 639 OFFCURVE",
"258 639 CURVE SMOOTH",
"153 639 OFFCURVE",
"55 590 OFFCURVE",
"55 482 CURVE SMOOTH",
"55 372 OFFCURVE",
"153 331 OFFCURVE",
"244 307 CURVE SMOOTH",
"319 287 OFFCURVE",
"392 260 OFFCURVE",
"392 169 CURVE SMOOTH",
"392 79 OFFCURVE",
"302 50 OFFCURVE",
"235 50 CURVE SMOOTH",
"169 50 OFFCURVE",
"111 66 OFFCURVE",
"58 92 CURVE",
"58 33 LINE",
"117 4 OFFCURVE",
"175 -5 OFFCURVE",
"232 -5 CURVE SMOOTH",
"337 -5 OFFCURVE",
"454 48 OFFCURVE",
"454 173 CURVE SMOOTH",
"454 291 OFFCURVE",
"355 334 OFFCURVE",
"264 359 CURVE SMOOTH",
"188 380 OFFCURVE",
"117 405 OFFCURVE",
"117 481 CURVE SMOOTH",
"117 555 OFFCURVE",
"184 584 OFFCURVE",
"261 584 CURVE SMOOTH",
"319 584 OFFCURVE",
"370 574 OFFCURVE",
"409 562 CURVE"
);
}
);
width = 492;
}
);
unicode = 0AA1;
},
{
glyphname = gjDDHA;
lastChange = "2015-07-03 10:48:40 +0000";
layers = (
{
anchors = (
{
name = abvm;
position = "{467, 671}";
},
{
name = blwm.r;
position = "{426, -57}";
},
{
name = blwm.u;
position = "{409, -57}";
},
{
name = blwm.uu;
position = "{396, -57}";
},
{
name = blwm.virama;
position = "{393, 0}";
}
);
layerId = UUID0;
name = Bold;
paths = (
{
closed = 1;
nodes = (
"491 628 OFFCURVE",
"474 662 OFFCURVE",
"467 671 CURVE",
"326 671 LINE",
"340 654 OFFCURVE",
"349 634 OFFCURVE",
"349 613 CURVE SMOOTH",
"349 506 OFFCURVE",
"31 498 OFFCURVE",
"31 254 CURVE SMOOTH",
"31 92 OFFCURVE",
"172 -7 OFFCURVE",
"330 -7 CURVE SMOOTH",
"472 -7 OFFCURVE",
"592 64 OFFCURVE",
"592 186 CURVE SMOOTH",
"592 285 OFFCURVE",
"521 358 OFFCURVE",
"409 358 CURVE SMOOTH",
"323 358 OFFCURVE",
"242 312 OFFCURVE",
"242 225 CURVE SMOOTH",
"242 203 OFFCURVE",
"248 180 OFFCURVE",
"254 168 CURVE",
"377 168 LINE",
"373 178 OFFCURVE",
"372 188 OFFCURVE",
"372 197 CURVE SMOOTH",
"372 220 OFFCURVE",
"387 240 OFFCURVE",
"412 240 CURVE SMOOTH",
"431 240 OFFCURVE",
"452 225 OFFCURVE",
"452 193 CURVE SMOOTH",
"452 127 OFFCURVE",
"378 112 OFFCURVE",
"330 112 CURVE SMOOTH",
"239 112 OFFCURVE",
"173 156 OFFCURVE",
"173 239 CURVE SMOOTH",
"173 422 OFFCURVE",
"491 397 OFFCURVE",
"491 592 CURVE SMOOTH"
);
}
);
width = 605;
},
{
anchors = (
{
name = abvm;
position = "{422, 634}";
},
{
name = blwm.r;
position = "{390, -65}";
},
{
name = blwm.u;
position = "{371, -65}";
},
{
name = blwm.uu;
position = "{360, -65}";
},
{
name = blwm.virama;
position = "{333, 0}";
}
);
layerId = "AD34CA4C-F33B-4C65-9C83-752D01B8F810";
name = Light;
paths = (
{
closed = 1;
nodes = (
"443 596 OFFCURVE",
"435 618 OFFCURVE",
"422 634 CURVE",
"361 634 LINE",
"375 620 OFFCURVE",
"382 598 OFFCURVE",
"382 580 CURVE SMOOTH",
"382 460 OFFCURVE",
"60 466 OFFCURVE",
"60 223 CURVE SMOOTH",
"60 78 OFFCURVE",
"182 -5 OFFCURVE",
"319 -5 CURVE SMOOTH",
"430 -5 OFFCURVE",
"548 58 OFFCURVE",
"548 182 CURVE SMOOTH",
"548 266 OFFCURVE",
"487 326 OFFCURVE",
"404 326 CURVE SMOOTH",
"317 326 OFFCURVE",
"266 268 OFFCURVE",
"266 203 CURVE SMOOTH",
"266 185 OFFCURVE",
"269 166 OFFCURVE",
"275 149 CURVE",
"333 149 LINE",
"327 164 OFFCURVE",
"326 179 OFFCURVE",
"326 193 CURVE SMOOTH",
"326 233 OFFCURVE",
"353 271 OFFCURVE",
"407 271 CURVE SMOOTH",
"445 271 OFFCURVE",
"486 244 OFFCURVE",
"486 184 CURVE SMOOTH",
"486 100 OFFCURVE",
"408 50 OFFCURVE",
"319 50 CURVE SMOOTH",
"210 50 OFFCURVE",
"122 111 OFFCURVE",
"122 223 CURVE SMOOTH",
"122 434 OFFCURVE",
"443 412 OFFCURVE",
"443 572 CURVE SMOOTH"
);
}
);
width = 583;
}
);
unicode = 0AA2;
},
{
glyphname = gjNNA;
lastChange = "2015-07-03 10:48:40 +0000";
layers = (
{
layerId = UUID0;
name = Bold;
paths = (
{
closed = 1;
nodes = (
"685 671 LINE",
"685 0 LINE",
"827 0 LINE",
"827 671 LINE"
);
},
{
closed = 1;
nodes = (
"205 671 LINE",
"63 671 LINE",
"63 297 LINE SMOOTH",
"63 70 OFFCURVE",
"241 -7 OFFCURVE",
"417 -7 CURVE SMOOTH",
"481 -7 OFFCURVE",
"544 9 OFFCURVE",
"592 31 CURVE",
"592 156 LINE",
"556 138 OFFCURVE",
"479 115 OFFCURVE",
"407 115 CURVE SMOOTH",
"302 115 OFFCURVE",
"205 151 OFFCURVE",
"205 273 CURVE SMOOTH"
);
},
{
closed = 1;
nodes = (
"602 565 OFFCURVE",
"525 671 OFFCURVE",
"381 671 CURVE SMOOTH",
"361 671 OFFCURVE",
"325 667 OFFCURVE",
"306 661 CURVE",
"306 541 LINE",
"325 547 OFFCURVE",
"344 549 OFFCURVE",
"362 549 CURVE SMOOTH",
"430 549 OFFCURVE",
"464 504 OFFCURVE",
"464 460 CURVE SMOOTH",
"464 416 OFFCURVE",
"430 371 OFFCURVE",
"362 371 CURVE SMOOTH",
"344 371 OFFCURVE",
"325 373 OFFCURVE",
"306 379 CURVE",
"306 259 LINE",
"325 253 OFFCURVE",
"361 249 OFFCURVE",
"381 249 CURVE SMOOTH",
"526 249 OFFCURVE",
"602 355 OFFCURVE",
"602 460 CURVE SMOOTH"
);
}
);
width = 890;
},
{
layerId = "AD34CA4C-F33B-4C65-9C83-752D01B8F810";
name = Light;
paths = (
{
closed = 1;
nodes = (
"683 634 LINE",
"683 0 LINE",
"745 0 LINE",
"745 634 LINE"
);
},
{
closed = 1;
nodes = (
"154 634 LINE",
"92 634 LINE",
"92 290 LINE SMOOTH",
"92 69 OFFCURVE",
"241 -5 OFFCURVE",
"393 -5 CURVE SMOOTH",
"452 -5 OFFCURVE",
"508 7 OFFCURVE",
"555 24 CURVE",
"555 80 LINE",
"517 65 OFFCURVE",
"453 50 OFFCURVE",
"393 50 CURVE SMOOTH",
"269 50 OFFCURVE",
"154 102 OFFCURVE",
"154 279 CURVE SMOOTH"
);
},
{
closed = 1;
nodes = (
"557 560 OFFCURVE",
"466 630 OFFCURVE",
"370 630 CURVE SMOOTH",
"346 630 OFFCURVE",
"316 625 OFFCURVE",
"296 618 CURVE",
"296 562 LINE",
"319 571 OFFCURVE",
"346 575 OFFCURVE",
"368 575 CURVE SMOOTH",
"449 575 OFFCURVE",
"495 516 OFFCURVE",
"495 434 CURVE SMOOTH",
"495 352 OFFCURVE",
"447 293 OFFCURVE",
"363 293 CURVE SMOOTH",
"339 293 OFFCURVE",
"307 298 OFFCURVE",
"279 311 CURVE",
"279 255 LINE",
"302 245 OFFCURVE",
"337 238 OFFCURVE",
"365 238 CURVE SMOOTH",
"464 238 OFFCURVE",
"557 308 OFFCURVE",
"557 434 CURVE SMOOTH"
);
}
);
width = 840;
}
);
unicode = 0AA3;
},
{
glyphname = gjTA;
lastChange = "2015-07-03 10:48:40 +0000";
layers = (
{
layerId = UUID0;
name = Bold;
paths = (
{
closed = 1;
nodes = (
"411 671 LINE",
"411 0 LINE",
"553 0 LINE",
"553 671 LINE"
);
},
{
closed = 1;
nodes = (
"431 388 LINE",
"431 506 LINE",
"298 506 LINE SMOOTH",
"128 506 OFFCURVE",
"30 412 OFFCURVE",
"30 252 CURVE SMOOTH",
"30 101 OFFCURVE",
"128 0 OFFCURVE",
"264 0 CURVE SMOOTH",
"281 0 OFFCURVE",
"304 3 OFFCURVE",
"314 5 CURVE",
"314 122 LINE",
"301 120 OFFCURVE",
"289 119 OFFCURVE",
"278 119 CURVE SMOOTH",
"208 119 OFFCURVE",
"172 169 OFFCURVE",
"172 249 CURVE SMOOTH",
"172 337 OFFCURVE",
"221 388 OFFCURVE",
"302 388 CURVE"
);
}
);
width = 616;
},
{
layerId = "AD34CA4C-F33B-4C65-9C83-752D01B8F810";
name = Light;
paths = (
{
closed = 1;
nodes = (
"435 634 LINE",
"435 0 LINE",
"497 0 LINE",
"497 634 LINE"
);
},
{
closed = 1;
nodes = (
"446 411 LINE",
"446 466 LINE",
"299 466 LINE SMOOTH",
"141 466 OFFCURVE",
"60 377 OFFCURVE",
"60 233 CURVE SMOOTH",
"60 94 OFFCURVE",
"138 0 OFFCURVE",
"270 0 CURVE SMOOTH",
"286 0 OFFCURVE",
"301 2 OFFCURVE",
"312 5 CURVE",
"312 58 LINE",
"297 56 OFFCURVE",
"285 55 OFFCURVE",
"273 55 CURVE SMOOTH",
"166 55 OFFCURVE",
"123 123 OFFCURVE",
"122 233 CURVE",
"122 359 OFFCURVE",
"201 411 OFFCURVE",
"303 411 CURVE SMOOTH"
);
}
);
width = 592;
}
);
unicode = 0AA4;
},
{
glyphname = gjTHA;
lastChange = "2015-07-03 10:48:40 +0000";
layers = (
{
layerId = UUID0;
name = Bold;
paths = (
{
closed = 1;
nodes = (
"490 671 LINE",
"490 0 LINE",
"632 0 LINE",
"632 671 LINE"
);
},
{
closed = 1;
nodes = (
"142 278 LINE",
"269 291 OFFCURVE",
"412 371 OFFCURVE",
"412 507 CURVE SMOOTH",
"412 611 OFFCURVE",
"342 681 OFFCURVE",
"234 681 CURVE SMOOTH",
"126 681 OFFCURVE",
"60 615 OFFCURVE",
"60 524 CURVE SMOOTH",
"60 501 OFFCURVE",
"64 478 OFFCURVE",
"71 457 CURVE",
"203 457 LINE",
"197 473 OFFCURVE",
"192 492 OFFCURVE",
"192 510 CURVE SMOOTH",
"192 539 OFFCURVE",
"205 564 OFFCURVE",
"239 564 CURVE SMOOTH",
"260 564 OFFCURVE",
"282 548 OFFCURVE",
"282 513 CURVE SMOOTH",
"282 446 OFFCURVE",
"216 406 OFFCURVE",
"25 367 CURVE",
"53 204 OFFCURVE",
"175 106 OFFCURVE",
"312 106 CURVE SMOOTH",
"391 106 OFFCURVE",
"468 136 OFFCURVE",
"505 204 CURVE",
"490 375 LINE",
"490 265 OFFCURVE",
"396 224 OFFCURVE",
"320 224 CURVE SMOOTH",
"250 224 OFFCURVE",
"190 256 OFFCURVE",
"177 327 CURVE"
);
}
);
width = 695;
},
{
layerId = "AD34CA4C-F33B-4C65-9C83-752D01B8F810";
name = Light;
paths = (
{
closed = 1;
nodes = (
"480 634 LINE",
"480 0 LINE",
"542 0 LINE",
"542 634 LINE"
);
},
{
closed = 1;
nodes = (
"102 314 LINE",
"232 334 OFFCURVE",
"343 400 OFFCURVE",
"343 504 CURVE SMOOTH",
"343 585 OFFCURVE",
"283 640 OFFCURVE",
"208 640 CURVE SMOOTH",
"119 640 OFFCURVE",
"73 579 OFFCURVE",
"73 513 CURVE SMOOTH",
"73 491 OFFCURVE",
"79 467 OFFCURVE",
"85 453 CURVE",
"146 453 LINE",
"138 471 OFFCURVE",
"135 489 OFFCURVE",
"135 508 CURVE SMOOTH",
"135 544 OFFCURVE",
"155 585 OFFCURVE",
"210 585 CURVE SMOOTH",
"253 585 OFFCURVE",
"281 553 OFFCURVE",
"281 508 CURVE SMOOTH",
"281 401 OFFCURVE",
"118 370 OFFCURVE",
"40 359 CURVE",
"55 206 OFFCURVE",
"167 133 OFFCURVE",
"290 133 CURVE SMOOTH",
"373 133 OFFCURVE",
"463 170 OFFCURVE",
"494 246 CURVE",
"480 351 LINE",
"480 248 OFFCURVE",
"381 188 OFFCURVE",
"290 188 CURVE SMOOTH",
"206 188 OFFCURVE",
"124 236 OFFCURVE",
"109 326 CURVE"
);
}
);
width = 637;
}
);
unicode = 0AA5;
},
{
glyphname = gjDA;
lastChange = "2015-07-03 10:48:40 +0000";
layers = (
{
anchors = (
{
name = abvm.candra;
position = "{353, 671}";
},
{
name = abvm.e;
position = "{386, 671}";
},
{
name = blwm.u;
position = "{381, -57}";
},
{
name = blwm.uu;
position = "{373, -57}";
},
{
name = blwm.virama;
position = "{333, 0}";
}
);
layerId = UUID0;
name = Bold;
paths = (
{
closed = 1;
nodes = (
"295 353 LINE",
"235 353 LINE SMOOTH",
"140 353 OFFCURVE",
"45 302 OFFCURVE",
"45 196 CURVE SMOOTH",
"45 60 OFFCURVE",
"184 -7 OFFCURVE",
"307 -7 CURVE SMOOTH",
"382 -7 OFFCURVE",
"441 9 OFFCURVE",
"484 25 CURVE",
"484 150 LINE",
"428 129 OFFCURVE",
"380 115 OFFCURVE",
"312 115 CURVE SMOOTH",
"247 115 OFFCURVE",
"190 141 OFFCURVE",
"190 203 CURVE SMOOTH",
"190 263 OFFCURVE",
"240 286 OFFCURVE",
"287 286 CURVE SMOOTH",
"387 286 LINE",
"387 405 LINE",
"288 405 LINE SMOOTH",
"245 405 OFFCURVE",
"200 426 OFFCURVE",
"200 479 CURVE SMOOTH",
"200 532 OFFCURVE",
"244 556 OFFCURVE",
"302 556 CURVE SMOOTH",
"355 556 OFFCURVE",
"400 547 OFFCURVE",
"448 532 CURVE",
"448 655 LINE",
"408 667 OFFCURVE",
"349 678 OFFCURVE",
"283 678 CURVE SMOOTH",
"161 678 OFFCURVE",
"55 621 OFFCURVE",
"55 504 CURVE SMOOTH",
"55 399 OFFCURVE",
"155 341 OFFCURVE",
"245 341 CURVE SMOOTH",
"295 341 LINE"
);
}
);
width = 494;
},
{
anchors = (
{
name = abvm.candra;
position = "{296, 634}";
},
{
name = abvm.e;
position = "{353, 634}";
},
{
name = blwm.u;
position = "{340, -65}";
},
{
name = blwm.uu;
position = "{328, -65}";
},
{
name = blwm.virama;
position = "{296, 0}";
}
);
layerId = "AD34CA4C-F33B-4C65-9C83-752D01B8F810";
name = Light;
paths = (
{
closed = 1;
nodes = (
"283 330 LINE",
"245 330 LINE SMOOTH",
"157 330 OFFCURVE",
"70 280 OFFCURVE",
"70 174 CURVE SMOOTH",
"70 56 OFFCURVE",
"190 -5 OFFCURVE",
"300 -5 CURVE SMOOTH",
"348 -5 OFFCURVE",
"402 3 OFFCURVE",
"448 19 CURVE",
"448 75 LINE",
"402 60 OFFCURVE",
"349 50 OFFCURVE",
"300 50 CURVE SMOOTH",
"209 50 OFFCURVE",
"132 90 OFFCURVE",
"132 175 CURVE SMOOTH",
"132 266 OFFCURVE",
"213 297 OFFCURVE",
"288 297 CURVE SMOOTH",
"355 297 LINE",
"355 352 LINE",
"286 352 LINE SMOOTH",
"212 352 OFFCURVE",
"142 386 OFFCURVE",
"142 469 CURVE SMOOTH",
"142 549 OFFCURVE",
"206 584 OFFCURVE",
"290 584 CURVE SMOOTH",
"332 584 OFFCURVE",
"372 577 OFFCURVE",
"413 566 CURVE",
"413 622 LINE",
"368 633 OFFCURVE",
"326 639 OFFCURVE",
"282 639 CURVE SMOOTH",
"172 639 OFFCURVE",
"80 582 OFFCURVE",
"80 471 CURVE SMOOTH",
"80 380 OFFCURVE",
"155 318 OFFCURVE",
"236 318 CURVE SMOOTH",
"283 318 LINE"
);
}
);
width = 458;
}
);
unicode = 0AA6;
},
{
glyphname = gjDHA;
lastChange = "2015-07-03 10:48:40 +0000";
layers = (
{
layerId = UUID0;
name = Bold;
paths = (
{
closed = 1;
nodes = (
"294 740 LINE",
"125 740 LINE",
"94 709 OFFCURVE",
"58 658 OFFCURVE",
"58 588 CURVE SMOOTH",
"58 470 OFFCURVE",
"173 417 OFFCURVE",
"249 417 CURVE SMOOTH",
"261 417 LINE",
"261 431 LINE",
"248 431 LINE SMOOTH",
"180 431 OFFCURVE",
"45 398 OFFCURVE",
"45 267 CURVE SMOOTH",
"45 144 OFFCURVE",
"159 76 OFFCURVE",
"276 76 CURVE SMOOTH",
"347 76 OFFCURVE",
"423 101 OFFCURVE",
"469 157 CURVE",
"459 347 LINE",
"459 259 OFFCURVE",
"392 196 OFFCURVE",
"297 196 CURVE SMOOTH",
"242 196 OFFCURVE",
"190 223 OFFCURVE",
"190 280 CURVE SMOOTH",
"190 330 OFFCURVE",
"228 363 OFFCURVE",
"282 363 CURVE SMOOTH",
"343 363 LINE",
"343 479 LINE",
"298 479 LINE SMOOTH",
"232 479 OFFCURVE",
"200 512 OFFCURVE",
"200 567 CURVE SMOOTH",
"200 624 OFFCURVE",
"239 678 OFFCURVE",
"294 729 CURVE"
);
},
{
closed = 1;
nodes = (
"459 671 LINE",
"459 0 LINE",
"601 0 LINE",
"601 671 LINE"
);
}
);
width = 664;
},
{
layerId = "AD34CA4C-F33B-4C65-9C83-752D01B8F810";
name = Light;
paths = (
{
closed = 1;
nodes = (
"227 706 LINE",
"152 706 LINE",
"105 662 OFFCURVE",
"81 605 OFFCURVE",
"81 553 CURVE SMOOTH",
"81 473 OFFCURVE",
"142 407 OFFCURVE",
"245 407 CURVE",
"283 407 LINE",
"283 417 LINE",
"245 417 LINE SMOOTH",
"159 417 OFFCURVE",
"70 368 OFFCURVE",
"70 268 CURVE SMOOTH",
"70 157 OFFCURVE",
"174 100 OFFCURVE",
"271 100 CURVE SMOOTH",
"370 100 OFFCURVE",
"450 150 OFFCURVE",
"479 217 CURVE",
"469 330 LINE",
"469 225 OFFCURVE",
"379 155 OFFCURVE",
"273 155 CURVE SMOOTH",
"204 155 OFFCURVE",
"132 188 OFFCURVE",
"132 265 CURVE SMOOTH",
"132 347 OFFCURVE",
"204 384 OFFCURVE",
"269 384 CURVE SMOOTH",
"314 384 LINE",
"314 439 LINE",
"271 439 LINE SMOOTH",
"200 439 OFFCURVE",
"143 479 OFFCURVE",
"143 547 CURVE SMOOTH",
"143 600 OFFCURVE",
"173 655 OFFCURVE",
"227 702 CURVE"
);
},
{
closed = 1;
nodes = (
"469 634 LINE",
"469 0 LINE",
"531 0 LINE",
"531 634 LINE"
);
}
);
width = 626;
}
);
unicode = 0AA7;
},
{
glyphname = gjNA;
lastChange = "2015-07-03 10:48:40 +0000";
layers = (
{
layerId = UUID0;
name = Bold;
paths = (
{
closed = 1;
nodes = (
"341 391 LINE",
"570 391 LINE",
"570 506 LINE",
"253 506 LINE SMOOTH",
"115 506 OFFCURVE",
"28 425 OFFCURVE",
"28 300 CURVE SMOOTH",
"28 187 OFFCURVE",
"111 94 OFFCURVE",
"244 94 CURVE SMOOTH",
"370 94 OFFCURVE",
"454 170 OFFCURVE",
"454 273 CURVE SMOOTH",
"454 339 OFFCURVE",
"418 399 OFFCURVE",
"343 433 CURVE"
);
},
{
closed = 1;
nodes = (
"535 671 LINE",
"535 0 LINE",
"677 0 LINE",
"677 671 LINE"
);
},
{
closed = 1;
nodes = (
"201 212 OFFCURVE",
"170 247 OFFCURVE",
"170 300 CURVE SMOOTH",
"170 353 OFFCURVE",
"201 388 OFFCURVE",
"244 388 CURVE SMOOTH",
"286 388 OFFCURVE",
"317 353 OFFCURVE",
"317 300 CURVE SMOOTH",
"317 247 OFFCURVE",
"286 212 OFFCURVE",
"243 212 CURVE SMOOTH"
);
}
);
width = 740;
},
{
layerId = "AD34CA4C-F33B-4C65-9C83-752D01B8F810";
name = Light;
paths = (
{
closed = 1;
nodes = (
"283 412 LINE",
"556 412 LINE",
"556 466 LINE",
"227 466 LINE SMOOTH",
"122 466 OFFCURVE",
"50 405 OFFCURVE",
"50 293 CURVE SMOOTH",
"50 186 OFFCURVE",
"119 120 OFFCURVE",
"215 120 CURVE SMOOTH",
"311 120 OFFCURVE",
"380 185 OFFCURVE",
"380 290 CURVE SMOOTH",
"380 355 OFFCURVE",
"342 412 OFFCURVE",
"283 434 CURVE"
);
},
{
closed = 1;
nodes = (
"532 634 LINE",
"532 0 LINE",
"594 0 LINE",
"594 634 LINE"
);
},
{
closed = 1;
nodes = (
"158 175 OFFCURVE",
"112 213 OFFCURVE",
"112 293 CURVE SMOOTH",
"112 373 OFFCURVE",
"158 411 OFFCURVE",
"215 411 CURVE SMOOTH",
"272 411 OFFCURVE",
"318 373 OFFCURVE",
"318 293 CURVE SMOOTH",
"318 213 OFFCURVE",
"272 175 OFFCURVE",
"215 175 CURVE SMOOTH"
);
}
);
width = 689;
}
);
unicode = 0AA8;
},
{
glyphname = gjPA;
lastChange = "2015-07-03 10:48:40 +0000";
layers = (
{
layerId = UUID0;
name = Bold;
paths = (
{
closed = 1;
nodes = (
"400 376 LINE",
"400 320 OFFCURVE",
"378 283 OFFCURVE",
"314 283 CURVE SMOOTH",
"261 283 OFFCURVE",
"237 314 OFFCURVE",
"237 370 CURVE SMOOTH",
"237 529 LINE SMOOTH",
"237 620 OFFCURVE",
"167 671 OFFCURVE",
"88 671 CURVE SMOOTH",
"47 671 OFFCURVE",
"18 664 OFFCURVE",
"18 664 CURVE",
"18 547 LINE",
"30 551 OFFCURVE",
"43 554 OFFCURVE",
"55 554 CURVE SMOOTH",
"77 554 OFFCURVE",
"95 545 OFFCURVE",
"95 516 CURVE SMOOTH",
"95 375 LINE SMOOTH",
"95 236 OFFCURVE",
"164 171 OFFCURVE",
"283 171 CURVE SMOOTH",
"345 171 OFFCURVE",
"398 195 OFFCURVE",
"422 228 CURVE"
);
},
{
closed = 1;
nodes = (
"400 671 LINE",
"400 0 LINE",
"542 0 LINE",
"542 671 LINE"
);
}
);
width = 605;
},
{
layerId = "AD34CA4C-F33B-4C65-9C83-752D01B8F810";
name = Light;
paths = (
{
closed = 1;
nodes = (
"420 369 LINE",
"420 287 OFFCURVE",
"371 231 OFFCURVE",
"292 231 CURVE SMOOTH",
"205 231 OFFCURVE",
"169 294 OFFCURVE",
"169 358 CURVE SMOOTH",
"169 532 LINE SMOOTH",
"169 600 OFFCURVE",
"116 639 OFFCURVE",
"63 639 CURVE SMOOTH",
"48 639 OFFCURVE",
"37 638 OFFCURVE",
"25 636 CURVE",
"25 582 LINE",
"33 584 OFFCURVE",
"45 585 OFFCURVE",
"55 585 CURVE SMOOTH",
"85 585 OFFCURVE",
"107 572 OFFCURVE",
"107 521 CURVE SMOOTH",
"107 359 LINE SMOOTH",
"107 261 OFFCURVE",
"177 177 OFFCURVE",
"288 177 CURVE SMOOTH",
"354 177 OFFCURVE",
"407 207 OFFCURVE",
"432 262 CURVE"
);
},
{
closed = 1;
nodes = (
"420 634 LINE",
"420 0 LINE",
"482 0 LINE",
"482 634 LINE"
);
}
);
width = 577;
}
);
unicode = 0AAA;
},
{
glyphname = gjPHA;
lastChange = "2015-07-03 10:48:40 +0000";
layers = (
{
anchors = (
{
name = abvm.candra;
position = "{380, 671}";
},
{
name = abvm.e;
position = "{429, 671}";
},
{
name = blwm.r;
position = "{455, -69}";
},
{
name = blwm.u;
position = "{437, -69}";
},
{
name = blwm.uu;
position = "{424, -69}";
},
{
name = blwm.virama;
position = "{358, -99}";
}
);
layerId = UUID0;
name = Bold;
paths = (
{
closed = 1;
nodes = (
"417 329 LINE",
"546 358 LINE",
"546 480 LINE",
"222 399 LINE",
"342 388 LINE",
"302 401 OFFCURVE",
"208 418 OFFCURVE",
"208 485 CURVE SMOOTH",
"208 534 OFFCURVE",
"252 556 OFFCURVE",
"313 556 CURVE SMOOTH",
"375 556 OFFCURVE",
"421 549 OFFCURVE",
"485 530 CURVE",
"485 654 LINE",
"431 670 OFFCURVE",
"373 678 OFFCURVE",
"308 678 CURVE SMOOTH",
"165 678 OFFCURVE",
"66 614 OFFCURVE",
"66 498 CURVE SMOOTH",
"66 439 OFFCURVE",
"98 391 OFFCURVE",
"144 363 CURVE",
"160 377 LINE",
"32 348 LINE",
"32 226 LINE",
"345 305 LINE",
"219 310 LINE",
"285 281 OFFCURVE",
"396 271 OFFCURVE",
"396 188 CURVE SMOOTH",
"396 139 OFFCURVE",
"348 114 OFFCURVE",
"299 114 CURVE SMOOTH",
"254 114 OFFCURVE",
"208 135 OFFCURVE",
"198 179 CURVE",
"68 179 LINE",
"68 -99 LINE",
"202 -99 LINE",
"202 52 LINE",
"178 41 LINE",
"223 11 OFFCURVE",
"277 -3 OFFCURVE",
"329 -3 CURVE SMOOTH",
"437 -3 OFFCURVE",
"538 59 OFFCURVE",
"538 181 CURVE SMOOTH",
"538 272 OFFCURVE",
"484 317 OFFCURVE",
"416 345 CURVE"
);
}
);
width = 581;
},
{
anchors = (
{
name = abvm.candra;
position = "{329, 634}";
},
{
name = abvm.e;
position = "{400, 634}";
},
{
name = blwm.r;
position = "{379, -65}";
},
{
name = blwm.u;
position = "{356, -65}";
},
{
name = blwm.uu;
position = "{369, -65}";
},
{
name = blwm.virama;
position = "{316, -80}";
}
);
layerId = "AD34CA4C-F33B-4C65-9C83-752D01B8F810";
name = Light;
paths = (
{
closed = 1;
nodes = (
"366 326 LINE",
"534 370 LINE",
"534 426 LINE",
"276 352 LINE",
"329 354 LINE",
"250 375 OFFCURVE",
"158 400 OFFCURVE",
"158 481 CURVE SMOOTH",
"158 555 OFFCURVE",
"225 584 OFFCURVE",
"302 584 CURVE SMOOTH",
"364 584 OFFCURVE",
"418 573 OFFCURVE",
"460 559 CURVE",
"460 617 LINE",
"408 632 OFFCURVE",
"352 639 OFFCURVE",
"299 639 CURVE SMOOTH",
"195 639 OFFCURVE",
"96 591 OFFCURVE",
"96 485 CURVE SMOOTH",
"96 399 OFFCURVE",
"167 348 OFFCURVE",
"246 326 CURVE",
"248 341 LINE",
"65 293 LINE",
"65 237 LINE",
"332 314 LINE",
"272 317 LINE",
"352 295 OFFCURVE",
"442 264 OFFCURVE",
"442 168 CURVE SMOOTH",
"442 92 OFFCURVE",
"375 50 OFFCURVE",
"308 50 CURVE SMOOTH",
"238 50 OFFCURVE",
"173 83 OFFCURVE",
"152 147 CURVE",
"98 147 LINE",
"98 -87 LINE",
"156 -87 LINE",
"156 104 LINE",
"127 105 LINE",
"161 30 OFFCURVE",
"236 -3 OFFCURVE",
"311 -3 CURVE SMOOTH",
"414 -3 OFFCURVE",
"504 61 OFFCURVE",
"504 166 CURVE SMOOTH",
"504 256 OFFCURVE",
"439 311 OFFCURVE",
"363 338 CURVE"
);
}
);
width = 585;
}
);
unicode = 0AAB;
},
{
glyphname = gjBA;
lastChange = "2015-07-03 10:48:40 +0000";
layers = (
{
layerId = UUID0;
name = Bold;
paths = (
{
closed = 1;
nodes = (
"604 671 LINE",
"604 0 LINE",
"746 0 LINE",
"746 671 LINE"
);
},
{
closed = 1;
nodes = (
"436 660 LINE",
"400 672 OFFCURVE",
"354 678 OFFCURVE",
"310 678 CURVE SMOOTH",
"164 678 OFFCURVE",
"30 597 OFFCURVE",
"30 376 CURVE SMOOTH",
"30 160 OFFCURVE",
"144 80 OFFCURVE",
"262 80 CURVE SMOOTH",
"376 80 OFFCURVE",
"474 135 OFFCURVE",
"474 310 CURVE SMOOTH",
"474 452 LINE",
"333 452 LINE",
"333 308 LINE SMOOTH",
"333 221 OFFCURVE",
"299 199 OFFCURVE",
"260 199 CURVE SMOOTH",
"220 199 OFFCURVE",
"172 216 OFFCURVE",
"172 368 CURVE SMOOTH",
"172 530 OFFCURVE",
"253 556 OFFCURVE",
"320 556 CURVE SMOOTH",
"368 556 OFFCURVE",
"412 544 OFFCURVE",
"436 537 CURVE"
);
},
{
closed = 1;
nodes = (
"409 246 LINE",
"661 246 LINE",
"661 363 LINE",
"409 363 LINE"
);
}
);
width = 809;
},
{
layerId = "AD34CA4C-F33B-4C65-9C83-752D01B8F810";
name = Light;
paths = (
{
closed = 1;
nodes = (
"610 634 LINE",
"610 0 LINE",
"672 0 LINE",
"672 634 LINE"
);
},
{
closed = 1;
nodes = (
"395 620 LINE",
"364 632 OFFCURVE",
"324 639 OFFCURVE",
"285 639 CURVE SMOOTH",
"145 639 OFFCURVE",
"58 535 OFFCURVE",
"58 371 CURVE SMOOTH",
"58 204 OFFCURVE",
"133 110 OFFCURVE",
"251 110 CURVE SMOOTH",
"363 110 OFFCURVE",
"419 187 OFFCURVE",
"419 281 CURVE SMOOTH",
"419 439 LINE",
"357 439 LINE",
"357 283 LINE SMOOTH",
"357 218 OFFCURVE",
"322 165 OFFCURVE",
"251 165 CURVE SMOOTH",
"163 165 OFFCURVE",
"120 244 OFFCURVE",
"120 368 CURVE SMOOTH",
"120 484 OFFCURVE",
"172 584 OFFCURVE",
"285 584 CURVE SMOOTH",
"330 584 OFFCURVE",
"364 576 OFFCURVE",
"395 565 CURVE"
);
},
{
closed = 1;
nodes = (
"371 282 LINE",
"623 282 LINE",
"623 337 LINE",
"371 337 LINE"
);
}
);
width = 767;
}
);
unicode = 0AAC;
},
{
glyphname = gjBHA;
lastChange = "2015-07-03 10:48:40 +0000";
layers = (
{
layerId = UUID0;
name = Bold;
paths = (
{
closed = 1;
nodes = (
"30 138 OFFCURVE",
"167 0 OFFCURVE",
"358 0 CURVE SMOOTH",
"397 0 OFFCURVE",
"438 4 OFFCURVE",
"482 15 CURVE",
"482 136 LINE",
"445 127 OFFCURVE",
"410 122 OFFCURVE",
"378 122 CURVE SMOOTH",
"227 122 OFFCURVE",
"172 225 OFFCURVE",
"172 353 CURVE SMOOTH",
"172 508 OFFCURVE",
"227 559 OFFCURVE",
"281 559 CURVE SMOOTH",
"330 559 OFFCURVE",
"347 519 OFFCURVE",
"347 475 CURVE SMOOTH",
"347 426 LINE",
"317 418 OFFCURVE",
"302 400 OFFCURVE",
"302 371 CURVE SMOOTH",
"302 356 OFFCURVE",
"311 328 OFFCURVE",
"331 289 CURVE SMOOTH",
"362 229 LINE",
"486 229 LINE",
"486 315 LINE",
"674 315 LINE",
"674 433 LINE",
"486 433 LINE",
"486 466 LINE SMOOTH",
"486 589 OFFCURVE",
"414 678 OFFCURVE",
"282 678 CURVE SMOOTH",
"98 678 OFFCURVE",
"30 528 OFFCURVE",
"30 364 CURVE SMOOTH"
);
},
{
closed = 1;
nodes = (
"614 671 LINE",
"614 0 LINE",
"756 0 LINE",
"756 671 LINE"
);
}
);
width = 819;
},
{
layerId = "AD34CA4C-F33B-4C65-9C83-752D01B8F810";
name = Light;
paths = (
{
closed = 1;
nodes = (
"60 123 OFFCURVE",
"166 1 OFFCURVE",
"346 1 CURVE SMOOTH",
"375 1 OFFCURVE",
"404 4 OFFCURVE",
"436 12 CURVE",
"436 66 LINE",
"403 58 OFFCURVE",
"373 55 OFFCURVE",
"346 55 CURVE SMOOTH",
"197 55 OFFCURVE",
"122 164 OFFCURVE",
"122 336 CURVE SMOOTH",
"122 438 OFFCURVE",
"156 584 OFFCURVE",
"272 584 CURVE SMOOTH",
"348 584 OFFCURVE",
"375 533 OFFCURVE",
"375 480 CURVE SMOOTH",
"375 383 LINE",
"343 375 OFFCURVE",
"333 358 OFFCURVE",
"333 338 CURVE SMOOTH",
"333 318 OFFCURVE",
"343 296 OFFCURVE",
"354 276 CURVE SMOOTH",
"382 229 LINE",
"436 229 LINE",
"436 330 LINE",
"665 330 LINE",
"665 385 LINE",
"436 385 LINE",
"436 476 LINE SMOOTH",
"436 568 OFFCURVE",
"374 639 OFFCURVE",
"274 639 CURVE SMOOTH",
"111 639 OFFCURVE",
"60 467 OFFCURVE",
"60 336 CURVE SMOOTH"
);
},
{
closed = 1;
nodes = (
"634 634 LINE",
"634 0 LINE",
"696 0 LINE",
"696 634 LINE"
);
}
);
width = 791;
}
);
unicode = 0AAD;
},
{
glyphname = gjMA;
lastChange = "2015-07-03 10:48:40 +0000";
layers = (
{
layerId = UUID0;
name = Bold;
paths = (
{
closed = 1;
nodes = (
"414 671 LINE",
"414 0 LINE",
"556 0 LINE",
"556 671 LINE"
);
},
{
closed = 1;
nodes = (
"246 529 LINE SMOOTH",
"246 620 OFFCURVE",
"177 671 OFFCURVE",
"100 671 CURVE SMOOTH",
"59 671 OFFCURVE",
"30 664 OFFCURVE",
"30 664 CURVE",
"30 547 LINE",
"42 551 OFFCURVE",
"55 554 OFFCURVE",
"67 554 CURVE SMOOTH",
"89 554 OFFCURVE",
"107 545 OFFCURVE",
"107 516 CURVE SMOOTH",
"107 366 LINE",
"77 358 OFFCURVE",
"62 340 OFFCURVE",
"62 311 CURVE SMOOTH",
"62 294 OFFCURVE",
"72 263 OFFCURVE",
"91 219 CURVE SMOOTH",
"127 139 LINE",
"246 139 LINE",
"246 256 LINE",
"434 256 LINE",
"434 373 LINE",
"246 373 LINE"
);
}
);
width = 619;
},
{
layerId = "AD34CA4C-F33B-4C65-9C83-752D01B8F810";
name = Light;
paths = (
{
closed = 1;
nodes = (
"419 634 LINE",
"419 0 LINE",
"481 0 LINE",
"481 634 LINE"
);
},
{
closed = 1;
nodes = (
"185 527 LINE SMOOTH",
"185 598 OFFCURVE",
"130 639 OFFCURVE",
"73 639 CURVE SMOOTH",
"61 639 OFFCURVE",
"49 638 OFFCURVE",
"38 636 CURVE",
"38 582 LINE",
"43 583 OFFCURVE",
"51 584 OFFCURVE",
"60 584 CURVE SMOOTH",
"97 584 OFFCURVE",
"124 571 OFFCURVE",
"124 516 CURVE SMOOTH",
"124 341 LINE",
"89 333 OFFCURVE",
"79 315 OFFCURVE",
"79 294 CURVE SMOOTH",
"79 277 OFFCURVE",
"89 251 OFFCURVE",
"100 225 CURVE SMOOTH",
"129 163 LINE",
"185 163 LINE",
"185 288 LINE",
"454 288 LINE",
"454 343 LINE",
"185 343 LINE"
);
}
);
width = 576;
}
);
unicode = 0AAE;
},
{
glyphname = gjYA;
lastChange = "2015-07-03 10:48:40 +0000";
layers = (
{
layerId = UUID0;
name = Bold;
paths = (
{
closed = 1;
nodes = (
"445 671 LINE",
"445 0 LINE",
"587 0 LINE",
"587 671 LINE"
);
},
{
closed = 1;
nodes = (
"59 534 LINE",
"82 547 OFFCURVE",
"110 556 OFFCURVE",
"135 556 CURVE SMOOTH",
"174 556 OFFCURVE",
"207 536 OFFCURVE",
"207 494 CURVE SMOOTH",
"207 437 OFFCURVE",
"133 397 OFFCURVE",
"25 382 CURVE",
"34 197 OFFCURVE",
"155 106 OFFCURVE",
"278 106 CURVE SMOOTH",
"360 106 OFFCURVE",
"427 142 OFFCURVE",
"460 204 CURVE",
"445 371 LINE",
"445 276 OFFCURVE",
"369 227 OFFCURVE",
"299 227 CURVE SMOOTH",
"245 227 OFFCURVE",
"195 252 OFFCURVE",
"182 305 CURVE",
"268 331 OFFCURVE",
"346 386 OFFCURVE",
"346 492 CURVE SMOOTH",
"346 601 OFFCURVE",
"254 677 OFFCURVE",
"151 677 CURVE SMOOTH",
"119 677 OFFCURVE",
"87 671 OFFCURVE",
"59 658 CURVE"
);
}
);
width = 650;
},
{
layerId = "AD34CA4C-F33B-4C65-9C83-752D01B8F810";
name = Light;
paths = (
{
closed = 1;
nodes = (
"461 634 LINE",
"461 0 LINE",
"523 0 LINE",
"523 634 LINE"
);
},
{
closed = 1;
nodes = (
"70 571 LINE",
"93 580 OFFCURVE",
"114 584 OFFCURVE",
"137 584 CURVE SMOOTH",
"191 584 OFFCURVE",
"234 555 OFFCURVE",
"234 498 CURVE SMOOTH",
"234 406 OFFCURVE",
"108 371 OFFCURVE",
"40 360 CURVE",
"54 204 OFFCURVE",
"160 133 OFFCURVE",
"276 133 CURVE SMOOTH",
"364 133 OFFCURVE",
"448 178 OFFCURVE",
"475 246 CURVE",
"461 351 LINE",
"461 249 OFFCURVE",
"365 188 OFFCURVE",
"276 188 CURVE SMOOTH",
"200 188 OFFCURVE",
"129 231 OFFCURVE",
"111 319 CURVE",
"208 343 OFFCURVE",
"296 394 OFFCURVE",
"296 494 CURVE SMOOTH",
"296 586 OFFCURVE",
"224 639 OFFCURVE",
"141 639 CURVE SMOOTH",
"115 639 OFFCURVE",
"91 634 OFFCURVE",
"70 627 CURVE"
);
}
);
width = 618;
}
);
unicode = 0AAF;
},
{
glyphname = gjRA;
lastChange = "2015-07-03 10:48:40 +0000";
layers = (
{
anchors = (
{
name = abvm.candra;
position = "{362, 671}";
},
{
name = abvm.e;
position = "{381, 671}";
},
{
name = blwm.virama;
position = "{358, 0}";
}
);
layerId = UUID0;
name = Bold;
paths = (
{
closed = 1;
nodes = (
"96 285 LINE",
"95 277 OFFCURVE",
"95 271 OFFCURVE",
"95 264 CURVE SMOOTH",
"95 82 OFFCURVE",
"219 -7 OFFCURVE",
"349 -7 CURVE SMOOTH",
"385 -7 OFFCURVE",
"424 -4 OFFCURVE",
"460 8 CURVE",
"460 131 LINE",
"435 122 OFFCURVE",
"404 115 OFFCURVE",
"369 115 CURVE SMOOTH",
"304 115 OFFCURVE",
"238 151 OFFCURVE",
"238 247 CURVE SMOOTH",
"238 254 OFFCURVE",
"238 260 OFFCURVE",
"239 267 CURVE"
);
},
{
closed = 1;
nodes = (
"28 263 LINE",
"218 263 LINE SMOOTH",
"354 263 OFFCURVE",
"474 333 OFFCURVE",
"474 470 CURVE SMOOTH",
"474 607 OFFCURVE",
"365 678 OFFCURVE",
"240 678 CURVE SMOOTH",
"180 678 OFFCURVE",
"126 666 OFFCURVE",
"89 652 CURVE",
"89 529 LINE",
"132 546 OFFCURVE",
"173 556 OFFCURVE",
"221 556 CURVE SMOOTH",
"282 556 OFFCURVE",
"329 527 OFFCURVE",
"329 470 CURVE SMOOTH",
"329 413 OFFCURVE",
"272 384 OFFCURVE",
"199 384 CURVE SMOOTH",
"28 384 LINE"
);
}
);
width = 506;
},
{
anchors = (
{
name = abvm.candra;
position = "{292, 634}";
},
{
name = abvm.e;
position = "{325, 634}";
},
{
name = blwm.virama;
position = "{277, 0}";
}
);
layerId = "AD34CA4C-F33B-4C65-9C83-752D01B8F810";
name = Light;
paths = (
{
closed = 1;
nodes = (
"108 291 LINE",
"106 273 OFFCURVE",
"104 254 OFFCURVE",
"104 236 CURVE SMOOTH",
"104 101 OFFCURVE",
"171 -6 OFFCURVE",
"321 -6 CURVE SMOOTH",
"346 -6 OFFCURVE",
"371 -3 OFFCURVE",
"397 3 CURVE",
"397 61 LINE",
"376 55 OFFCURVE",
"350 50 OFFCURVE",
"321 50 CURVE SMOOTH",
"202 50 OFFCURVE",
"166 134 OFFCURVE",
"166 227 CURVE SMOOTH",
"166 246 OFFCURVE",
"167 265 OFFCURVE",
"170 284 CURVE"
);
},
{
closed = 1;
nodes = (
"35 275 LINE",
"187 275 LINE SMOOTH",
"300 275 OFFCURVE",
"408 337 OFFCURVE",
"408 458 CURVE SMOOTH",
"408 576 OFFCURVE",
"313 639 OFFCURVE",
"205 639 CURVE SMOOTH",
"167 639 OFFCURVE",
"132 634 OFFCURVE",
"103 627 CURVE",
"103 570 LINE",
"133 579 OFFCURVE",
"164 584 OFFCURVE",
"198 584 CURVE SMOOTH",
"282 584 OFFCURVE",
"346 541 OFFCURVE",
"346 458 CURVE SMOOTH",
"346 369 OFFCURVE",
"269 330 OFFCURVE",
"174 330 CURVE SMOOTH",
"35 330 LINE"
);
}
);
width = 458;
}
);
unicode = 0AB0;
},
{
glyphname = gjLA;
lastChange = "2015-07-03 10:48:40 +0000";
layers = (
{
layerId = UUID0;
name = Bold;
paths = (
{
closed = 1;
nodes = (
"519 671 LINE",
"519 0 LINE",
"661 0 LINE",
"661 671 LINE"
);
},
{
closed = 1;
nodes = (
"175 461 OFFCURVE",
"251 555 OFFCURVE",
"368 555 CURVE SMOOTH",
"391 555 OFFCURVE",
"416 551 OFFCURVE",
"443 543 CURVE",
"443 664 LINE",
"407 673 OFFCURVE",
"372 678 OFFCURVE",
"338 678 CURVE SMOOTH",
"154 678 OFFCURVE",
"30 546 OFFCURVE",
"30 335 CURVE",
"30 133 OFFCURVE",
"157 -7 OFFCURVE",
"344 -7 CURVE SMOOTH",
"376 -7 OFFCURVE",
"408 -2 OFFCURVE",
"443 7 CURVE",
"443 128 LINE",
"416 120 OFFCURVE",
"391 116 OFFCURVE",
"368 116 CURVE SMOOTH",
"251 116 OFFCURVE",
"175 198 OFFCURVE",
"175 335 CURVE"
);
},
{
closed = 1;
nodes = (
"289 274 LINE",
"566 274 LINE",
"566 396 LINE",
"289 396 LINE"
);
}
);
width = 724;
},
{
layerId = "AD34CA4C-F33B-4C65-9C83-752D01B8F810";
name = Light;
paths = (
{
closed = 1;
nodes = (
"539 634 LINE",
"539 0 LINE",
"601 0 LINE",
"601 634 LINE"
);
},
{
closed = 1;
nodes = (
"122 468 OFFCURVE",
"213 584 OFFCURVE",
"357 584 CURVE SMOOTH",
"382 584 OFFCURVE",
"407 580 OFFCURVE",
"428 574 CURVE",
"428 629 LINE",
"402 636 OFFCURVE",
"371 639 OFFCURVE",
"345 639 CURVE SMOOTH",
"181 639 OFFCURVE",
"60 508 OFFCURVE",
"60 323 CURVE",
"60 130 OFFCURVE",
"178 -5 OFFCURVE",
"352 -5 CURVE SMOOTH",
"375 -5 OFFCURVE",
"401 -3 OFFCURVE",
"428 5 CURVE",
"428 59 LINE",
"402 53 OFFCURVE",
"379 50 OFFCURVE",
"356 50 CURVE SMOOTH",
"214 50 OFFCURVE",
"122 152 OFFCURVE",
"122 323 CURVE"
);
},
{
closed = 1;
nodes = (
"280 301 LINE",
"542 301 LINE",
"542 356 LINE",
"280 356 LINE"
);
}
);
width = 696;
}
);
unicode = 0AB2;
},
{
glyphname = gjVA;
lastChange = "2015-07-03 10:48:40 +0000";
layers = (
{
layerId = UUID0;
name = Bold;
paths = (
{
closed = 1;
nodes = (
"458 671 LINE",
"458 0 LINE",
"600 0 LINE",
"600 671 LINE"
);
},
{
closed = 1;
nodes = (
"368 652 LINE",
"341 658 OFFCURVE",
"315 660 OFFCURVE",
"290 660 CURVE SMOOTH",
"130 660 OFFCURVE",
"30 539 OFFCURVE",
"30 399 CURVE SMOOTH",
"30 247 OFFCURVE",
"143 136 OFFCURVE",
"295 136 CURVE SMOOTH",
"369 136 OFFCURVE",
"439 167 OFFCURVE",
"473 232 CURVE",
"458 385 LINE",
"453 305 OFFCURVE",
"386 255 OFFCURVE",
"314 255 CURVE SMOOTH",
"222 255 OFFCURVE",
"175 322 OFFCURVE",
"175 395 CURVE SMOOTH",
"175 470 OFFCURVE",
"223 538 OFFCURVE",
"321 538 CURVE SMOOTH",
"336 538 OFFCURVE",
"352 536 OFFCURVE",
"368 533 CURVE"
);
}
);
width = 663;
},
{
layerId = "AD34CA4C-F33B-4C65-9C83-752D01B8F810";
name = Light;
paths = (
{
closed = 1;
nodes = (
"465 634 LINE",
"465 0 LINE",
"527 0 LINE",
"527 634 LINE"
);
},
{
closed = 1;
nodes = (
"346 624 LINE",
"330 628 OFFCURVE",
"309 630 OFFCURVE",
"290 630 CURVE SMOOTH",
"155 630 OFFCURVE",
"55 539 OFFCURVE",
"55 402 CURVE",
"55 264 OFFCURVE",
"155 164 OFFCURVE",
"295 164 CURVE SMOOTH",
"372 164 OFFCURVE",
"444 199 OFFCURVE",
"480 276 CURVE",
"465 369 LINE",
"454 278 OFFCURVE",
"378 223 OFFCURVE",
"295 223 CURVE SMOOTH",
"190 223 OFFCURVE",
"117 293 OFFCURVE",
"117 397 CURVE",
"117 514 OFFCURVE",
"202 574 OFFCURVE",
"301 574 CURVE SMOOTH",
"315 574 OFFCURVE",
"333 572 OFFCURVE",
"346 569 CURVE"
);
}
);
width = 622;
}
);
unicode = 0AB5;
},
{
glyphname = gjSHA;
lastChange = "2015-07-03 10:48:40 +0000";
layers = (
{
layerId = UUID0;
name = Bold;
paths = (
{
closed = 1;
nodes = (
"210 245 LINE SMOOTH",
"362 245 OFFCURVE",
"484 325 OFFCURVE",
"484 470 CURVE SMOOTH",
"484 611 OFFCURVE",
"398 685 OFFCURVE",
"281 685 CURVE SMOOTH",
"169 685 OFFCURVE",
"92 611 OFFCURVE",
"92 510 CURVE SMOOTH",
"92 478 OFFCURVE",
"96 446 OFFCURVE",
"111 419 CURVE",
"250 419 LINE",
"238 439 OFFCURVE",
"231 467 OFFCURVE",
"231 490 CURVE SMOOTH",
"231 528 OFFCURVE",
"248 564 OFFCURVE",
"286 564 CURVE SMOOTH",
"320 564 OFFCURVE",
"340 536 OFFCURVE",
"340 488 CURVE SMOOTH",
"340 399 OFFCURVE",
"261 367 OFFCURVE",
"188 367 CURVE SMOOTH",
"28 367 LINE",
"28 245 LINE"
);
},
{
closed = 1;
nodes = (
"567 671 LINE",
"567 0 LINE",
"709 0 LINE",
"709 671 LINE"
);
},
{
closed = 1;
nodes = (
"96 267 LINE",
"96 82 OFFCURVE",
"217 -7 OFFCURVE",
"356 -7 CURVE SMOOTH",
"395 -7 OFFCURVE",
"437 -2 OFFCURVE",
"477 13 CURVE",
"477 136 LINE",
"446 124 OFFCURVE",
"410 115 OFFCURVE",
"376 115 CURVE SMOOTH",
"303 115 OFFCURVE",
"239 151 OFFCURVE",
"239 249 CURVE"
);
}
);
width = 772;
},
{
layerId = "AD34CA4C-F33B-4C65-9C83-752D01B8F810";
name = Light;
paths = (
{
closed = 1;
nodes = (
"179 248 LINE SMOOTH",
"323 248 OFFCURVE",
"408 350 OFFCURVE",
"408 460 CURVE SMOOTH",
"408 565 OFFCURVE",
"339 639 OFFCURVE",
"245 639 CURVE SMOOTH",
"151 639 OFFCURVE",
"84 576 OFFCURVE",
"84 483 CURVE SMOOTH",
"84 444 OFFCURVE",
"95 413 OFFCURVE",
"104 394 CURVE",
"165 394 LINE",
"153 417 OFFCURVE",
"146 449 OFFCURVE",
"146 479 CURVE SMOOTH",
"146 533 OFFCURVE",
"178 584 OFFCURVE",
"246 584 CURVE SMOOTH",
"306 584 OFFCURVE",
"346 537 OFFCURVE",
"346 463 CURVE SMOOTH",
"346 366 OFFCURVE",
"276 303 OFFCURVE",
"173 303 CURVE SMOOTH",
"35 303 LINE",
"35 248 LINE"
);
},
{
closed = 1;
nodes = (
"548 634 LINE",
"548 0 LINE",
"610 0 LINE",
"610 634 LINE"
);
},
{
closed = 1;
nodes = (
"104 258 LINE",
"104 99 OFFCURVE",
"171 -6 OFFCURVE",
"321 -6 CURVE SMOOTH",
"346 -6 OFFCURVE",
"371 -3 OFFCURVE",
"397 3 CURVE",
"397 61 LINE",
"376 55 OFFCURVE",
"350 50 OFFCURVE",
"321 50 CURVE SMOOTH",
"201 50 OFFCURVE",
"166 133 OFFCURVE",
"166 249 CURVE"
);
}
);
width = 705;
}
);
unicode = 0AB6;
},
{
glyphname = gjSSA;
lastChange = "2015-07-03 10:48:40 +0000";
layers = (
{
layerId = UUID0;
name = Bold;
paths = (
{
closed = 1;
nodes = (
"436 671 LINE",
"436 0 LINE",
"578 0 LINE",
"578 671 LINE"
);
},
{
closed = 1;
nodes = (
"230 436 LINE",
"230 484 OFFCURVE",
"229 493 OFFCURVE",
"225 519 CURVE",
"161 569 LINE",
"446 294 LINE",
"490 344 LINE",
"208 615 LINE SMOOTH",
"164 658 OFFCURVE",
"131 671 OFFCURVE",
"88 671 CURVE SMOOTH",
"47 671 OFFCURVE",
"18 664 OFFCURVE",
"18 664 CURVE",
"18 547 LINE",
"30 551 OFFCURVE",
"43 554 OFFCURVE",
"55 554 CURVE SMOOTH",
"77 554 OFFCURVE",
"95 545 OFFCURVE",
"95 516 CURVE SMOOTH",
"95 378 LINE SMOOTH",
"95 240 OFFCURVE",
"185 166 OFFCURVE",
"307 166 CURVE SMOOTH",
"373 166 OFFCURVE",
"437 194 OFFCURVE",
"471 246 CURVE",
"436 375 LINE",
"436 311 OFFCURVE",
"389 277 OFFCURVE",
"331 277 CURVE SMOOTH",
"263 277 OFFCURVE",
"230 315 OFFCURVE",
"230 376 CURVE SMOOTH"
);
}
);
width = 641;
},
{
layerId = "AD34CA4C-F33B-4C65-9C83-752D01B8F810";
name = Light;
paths = (
{
closed = 1;
nodes = (
"440 634 LINE",
"440 0 LINE",
"502 0 LINE",
"502 634 LINE"
);
},
{
closed = 1;
nodes = (
"169 476 LINE SMOOTH",
"169 506 OFFCURVE",
"167 521 OFFCURVE",
"162 540 CURVE",
"132 552 LINE",
"454 286 LINE",
"479 330 LINE",
"134 614 LINE SMOOTH",
"115 629 OFFCURVE",
"89 639 OFFCURVE",
"63 639 CURVE SMOOTH",
"48 639 OFFCURVE",
"37 638 OFFCURVE",
"25 636 CURVE",
"25 582 LINE",
"33 584 OFFCURVE",
"45 585 OFFCURVE",
"55 585 CURVE SMOOTH",
"85 585 OFFCURVE",
"107 572 OFFCURVE",
"107 521 CURVE SMOOTH",
"107 359 LINE SMOOTH",
"107 261 OFFCURVE",
"181 177 OFFCURVE",
"298 177 CURVE SMOOTH",
"375 177 OFFCURVE",
"430 215 OFFCURVE",
"452 262 CURVE",
"440 361 LINE",
"440 284 OFFCURVE",
"384 231 OFFCURVE",
"302 231 CURVE SMOOTH",
"208 231 OFFCURVE",
"169 294 OFFCURVE",
"169 358 CURVE SMOOTH"
);
}
);
width = 597;
}
);
unicode = 0AB7;
},
{
glyphname = gjSA;
lastChange = "2015-07-03 10:48:40 +0000";
layers = (
{
layerId = UUID0;
name = Bold;
paths = (
{
closed = 1;
nodes = (
"113 361 LINE",
"103 340 OFFCURVE",
"97 296 OFFCURVE",
"97 268 CURVE SMOOTH",
"97 83 OFFCURVE",
"217 -7 OFFCURVE",
"345 -7 CURVE SMOOTH",
"379 -7 OFFCURVE",
"419 -3 OFFCURVE",
"455 10 CURVE",
"455 133 LINE",
"426 122 OFFCURVE",
"398 115 OFFCURVE",
"365 115 CURVE SMOOTH",
"301 115 OFFCURVE",
"238 151 OFFCURVE",
"238 250 CURVE SMOOTH",
"238 274 OFFCURVE",
"242 306 OFFCURVE",
"250 330 CURVE"
);
},
{
closed = 1;
nodes = (
"28 254 LINE",
"191 254 LINE SMOOTH",
"327 254 OFFCURVE",
"448 325 OFFCURVE",
"448 464 CURVE SMOOTH",
"448 606 OFFCURVE",
"334 678 OFFCURVE",
"204 678 CURVE SMOOTH",
"162 678 OFFCURVE",
"124 673 OFFCURVE",
"98 666 CURVE",
"98 543 LINE",
"127 552 OFFCURVE",
"153 556 OFFCURVE",
"185 556 CURVE SMOOTH",
"252 556 OFFCURVE",
"303 526 OFFCURVE",
"303 464 CURVE SMOOTH",
"303 405 OFFCURVE",
"251 376 OFFCURVE",
"172 376 CURVE SMOOTH",
"28 376 LINE"
);
},
{
closed = 1;
nodes = (
"585 671 LINE",
"585 0 LINE",
"727 0 LINE",
"727 671 LINE"
);
},
{
closed = 1;
nodes = (
"266 287 LINE",
"630 287 LINE",
"630 404 LINE",
"307 404 LINE"
);
}
);
width = 790;
},
{
layerId = "AD34CA4C-F33B-4C65-9C83-752D01B8F810";
name = Light;
paths = (
{
closed = 1;
nodes = (
"107 300 LINE",
"105 279 OFFCURVE",
"104 260 OFFCURVE",
"104 243 CURVE SMOOTH",
"104 93 OFFCURVE",
"176 -6 OFFCURVE",
"321 -6 CURVE SMOOTH",
"346 -6 OFFCURVE",
"371 -3 OFFCURVE",
"397 3 CURVE",
"397 61 LINE",
"376 55 OFFCURVE",
"350 50 OFFCURVE",
"321 50 CURVE SMOOTH",
"209 50 OFFCURVE",
"166 123 OFFCURVE",
"166 228 CURVE SMOOTH",
"166 252 OFFCURVE",
"167 274 OFFCURVE",
"169 295 CURVE"
);
},
{
closed = 1;
nodes = (
"35 275 LINE",
"177 275 LINE SMOOTH",
"290 275 OFFCURVE",
"398 337 OFFCURVE",
"398 458 CURVE SMOOTH",
"398 576 OFFCURVE",
"303 639 OFFCURVE",
"195 639 CURVE SMOOTH",
"162 639 OFFCURVE",
"132 636 OFFCURVE",
"107 631 CURVE",
"107 574 LINE",
"133 580 OFFCURVE",
"159 584 OFFCURVE",
"188 584 CURVE SMOOTH",
"272 584 OFFCURVE",
"336 541 OFFCURVE",
"336 458 CURVE SMOOTH",
"336 369 OFFCURVE",
"263 330 OFFCURVE",
"164 330 CURVE SMOOTH",
"35 330 LINE"
);
},
{
closed = 1;
nodes = (
"581 634 LINE",
"581 0 LINE",
"643 0 LINE",
"643 634 LINE"
);
},
{
closed = 1;
nodes = (
"297 306 LINE",
"614 306 LINE",
"614 361 LINE",
"297 361 LINE"
);
}
);
width = 738;
}
);
unicode = 0AB8;
},
{
glyphname = gjHA;
lastChange = "2015-07-03 10:48:40 +0000";
layers = (
{
anchors = (
{
name = abvm;
position = "{409, 671}";
},
{
name = blwm.r;
position = "{428, -61}";
},
{
name = blwm.u;
position = "{437, -61}";
},
{
name = blwm.uu;
position = "{398, -61}";
},
{
name = blwm.virama;
position = "{390, 0}";
}
);
layerId = UUID0;
name = Bold;
paths = (
{
closed = 1;
nodes = (
"266 365 LINE",
"266 236 LINE",
"310 207 OFFCURVE",
"363 195 OFFCURVE",
"404 195 CURVE SMOOTH",
"496 195 OFFCURVE",
"577 249 OFFCURVE",
"577 344 CURVE SMOOTH",
"577 512 OFFCURVE",
"381 494 OFFCURVE",
"381 600 CURVE SMOOTH",
"381 634 OFFCURVE",
"396 653 OFFCURVE",
"409 667 CURVE",
"409 671 LINE",
"270 671 LINE",
"258 658 OFFCURVE",
"240 625 OFFCURVE",
"240 585 CURVE SMOOTH",
"240 432 OFFCURVE",
"437 425 OFFCURVE",
"437 354 CURVE SMOOTH",
"437 330 OFFCURVE",
"417 316 OFFCURVE",
"388 316 CURVE SMOOTH",
"347 316 OFFCURVE",
"305 337 OFFCURVE",
"271 365 CURVE"
);
},
{
closed = 1;
nodes = (
"64 476 LINE",
"44 435 OFFCURVE",
"30 376 OFFCURVE",
"30 321 CURVE SMOOTH",
"30 138 OFFCURVE",
"162 -11 OFFCURVE",
"395 -11 CURVE SMOOTH",
"488 -11 OFFCURVE",
"551 9 OFFCURVE",
"597 35 CURVE",
"597 171 LINE",
"544 135 OFFCURVE",
"480 110 OFFCURVE",
"397 110 CURVE SMOOTH",
"241 110 OFFCURVE",
"170 206 OFFCURVE",
"170 318 CURVE SMOOTH",
"170 376 OFFCURVE",
"185 429 OFFCURVE",
"209 476 CURVE"
);
}
);
width = 622;
},
{
anchors = (
{
name = abvm;
position = "{343, 634}";
},
{
name = blwm.r;
position = "{385, -66}";
},
{
name = blwm.u;
position = "{401, -66}";
},
{
name = blwm.uu;
position = "{363, -66}";
},
{
name = blwm.virama;
position = "{334, 0}";
}
);
layerId = "AD34CA4C-F33B-4C65-9C83-752D01B8F810";
name = Light;
paths = (
{
closed = 1;
nodes = (
"273 302 LINE",
"273 240 LINE",
"304 212 OFFCURVE",
"351 203 OFFCURVE",
"382 203 CURVE SMOOTH",
"461 203 OFFCURVE",
"527 249 OFFCURVE",
"527 329 CURVE SMOOTH",
"527 472 OFFCURVE",
"317 473 OFFCURVE",
"317 572 CURVE SMOOTH",
"317 597 OFFCURVE",
"329 617 OFFCURVE",
"343 631 CURVE",
"343 634 LINE",
"278 634 LINE",
"265 620 OFFCURVE",
"255 599 OFFCURVE",
"255 573 CURVE SMOOTH",
"255 437 OFFCURVE",
"465 439 OFFCURVE",
"465 330 CURVE SMOOTH",
"465 285 OFFCURVE",
"432 258 OFFCURVE",
"382 258 CURVE SMOOTH",
"341 258 OFFCURVE",
"304 276 OFFCURVE",
"277 302 CURVE"
);
},
{
closed = 1;
nodes = (
"97 448 LINE",
"74 405 OFFCURVE",
"60 350 OFFCURVE",
"60 296 CURVE SMOOTH",
"60 119 OFFCURVE",
"193 -6 OFFCURVE",
"379 -6 CURVE SMOOTH",
"441 -6 OFFCURVE",
"500 6 OFFCURVE",
"547 28 CURVE",
"547 88 LINE",
"502 65 OFFCURVE",
"443 49 OFFCURVE",
"379 49 CURVE SMOOTH",
"227 49 OFFCURVE",
"122 151 OFFCURVE",
"122 296 CURVE SMOOTH",
"122 351 OFFCURVE",
"137 405 OFFCURVE",
"162 448 CURVE"
);
}
);
width = 597;
}
);
unicode = 0AB9;
},
{
glyphname = gjLLA;
lastChange = "2015-07-03 10:48:40 +0000";
layers = (
{
layerId = UUID0;
name = Bold;
paths = (
{
closed = 1;
nodes = (
"274 665 LINE",
"259 669 OFFCURVE",
"238 671 OFFCURVE",
"226 671 CURVE SMOOTH",
"71 671 OFFCURVE",
"30 539 OFFCURVE",
"30 391 CURVE SMOOTH",
"30 198 OFFCURVE",
"107 96 OFFCURVE",
"251 96 CURVE SMOOTH",
"410 96 OFFCURVE",
"454 206 OFFCURVE",
"454 344 CURVE SMOOTH",
"454 371 OFFCURVE",
"453 403 OFFCURVE",
"453 444 CURVE SMOOTH",
"453 510 OFFCURVE",
"467 557 OFFCURVE",
"517 557 CURVE SMOOTH",
"556 557 OFFCURVE",
"574 530 OFFCURVE",
"574 461 CURVE SMOOTH",
"574 0 LINE",
"715 0 LINE",
"715 456 LINE SMOOTH",
"715 592 OFFCURVE",
"650 677 OFFCURVE",
"515 677 CURVE SMOOTH",
"369 677 OFFCURVE",
"317 585 OFFCURVE",
"317 443 CURVE SMOOTH",
"317 404 OFFCURVE",
"318 379 OFFCURVE",
"318 365 CURVE SMOOTH",
"318 258 OFFCURVE",
"300 216 OFFCURVE",
"247 216 CURVE SMOOTH",
"189 216 OFFCURVE",
"170 269 OFFCURVE",
"170 387 CURVE SMOOTH",
"170 514 OFFCURVE",
"201 550 OFFCURVE",
"246 550 CURVE SMOOTH",
"257 550 OFFCURVE",
"267 548 OFFCURVE",
"274 546 CURVE"
);
}
);
width = 778;
},
{
layerId = "AD34CA4C-F33B-4C65-9C83-752D01B8F810";
name = Light;
paths = (
{
closed = 1;
nodes = (
"258 630 LINE",
"247 633 OFFCURVE",
"232 634 OFFCURVE",
"223 634 CURVE SMOOTH",
"94 634 OFFCURVE",
"60 516 OFFCURVE",
"60 388 CURVE SMOOTH",
"60 227 OFFCURVE",
"113 118 OFFCURVE",
"242 118 CURVE SMOOTH",
"368 118 OFFCURVE",
"403 218 OFFCURVE",
"403 343 CURVE SMOOTH",
"403 367 OFFCURVE",
"400 426 OFFCURVE",
"400 468 CURVE SMOOTH",
"400 539 OFFCURVE",
"426 584 OFFCURVE",
"498 584 CURVE SMOOTH",
"563 584 OFFCURVE",
"588 542 OFFCURVE",
"588 491 CURVE SMOOTH",
"588 0 LINE",
"650 0 LINE",
"650 480 LINE SMOOTH",
"650 579 OFFCURVE",
"590 639 OFFCURVE",
"494 639 CURVE SMOOTH",
"378 639 OFFCURVE",
"340 562 OFFCURVE",
"340 455 CURVE SMOOTH",
"340 400 OFFCURVE",
"343 365 OFFCURVE",
"343 344 CURVE SMOOTH",
"343 259 OFFCURVE",
"330 173 OFFCURVE",
"236 173 CURVE SMOOTH",
"127 173 OFFCURVE",
"121 305 OFFCURVE",
"121 386 CURVE SMOOTH",
"121 471 OFFCURVE",
"134 579 OFFCURVE",
"232 579 CURVE SMOOTH",
"242 579 OFFCURVE",
"253 577 OFFCURVE",
"258 576 CURVE"
);
}
);
width = 745;
}
);
unicode = 0AB3;
},
{
glyphname = gjK_SSA;
lastChange = "2015-07-03 10:48:41 +0000";
layers = (
{
layerId = UUID0;
name = Bold;
paths = (
{
closed = 1;
nodes = (
"611 419 LINE",
"415 419 LINE SMOOTH",
"342 419 OFFCURVE",
"229 419 OFFCURVE",
"229 506 CURVE SMOOTH",
"229 538 OFFCURVE",
"254 566 OFFCURVE",
"292 566 CURVE SMOOTH",
"326 566 OFFCURVE",
"347 542 OFFCURVE",
"347 512 CURVE SMOOTH",
"347 456 OFFCURVE",
"287 433 OFFCURVE",
"219 408 CURVE SMOOTH",
"130 375 OFFCURVE",
"28 337 OFFCURVE",
"28 211 CURVE SMOOTH",
"28 104 OFFCURVE",
"110 31 OFFCURVE",
"226 31 CURVE SMOOTH",
"285 31 OFFCURVE",
"338 60 OFFCURVE",
"358 88 CURVE",
"358 0 LINE",
"498 0 LINE",
"498 249 LINE",
"360 249 LINE",
"360 185 OFFCURVE",
"314 141 OFFCURVE",
"255 141 CURVE SMOOTH",
"208 141 OFFCURVE",
"171 171 OFFCURVE",
"171 218 CURVE SMOOTH",
"171 353 OFFCURVE",
"475 346 OFFCURVE",
"475 523 CURVE SMOOTH",
"475 619 OFFCURVE",
"401 681 OFFCURVE",
"287 681 CURVE SMOOTH",
"173 681 OFFCURVE",
"97 613 OFFCURVE",
"97 514 CURVE SMOOTH",
"97 366 OFFCURVE",
"261 312 OFFCURVE",
"377 312 CURVE SMOOTH",
"611 312 LINE"
);
},
{
closed = 1;
nodes = (
"591 671 LINE",
"591 0 LINE",
"733 0 LINE",
"733 671 LINE"
);
}
);
width = 796;
},
{
layerId = "AD34CA4C-F33B-4C65-9C83-752D01B8F810";
name = Light;
paths = (
{
closed = 1;
nodes = (
"604 379 LINE",
"314 379 LINE SMOOTH",
"224 379 OFFCURVE",
"173 426 OFFCURVE",
"173 495 CURVE SMOOTH",
"173 549 OFFCURVE",
"219 587 OFFCURVE",
"272 587 CURVE SMOOTH",
"327 587 OFFCURVE",
"369 547 OFFCURVE",
"369 495 CURVE SMOOTH",
"369 421 OFFCURVE",
"302 395 OFFCURVE",
"235 371 CURVE SMOOTH",
"153 342 OFFCURVE",
"65 302 OFFCURVE",
"65 203 CURVE SMOOTH",
"65 104 OFFCURVE",
"152 47 OFFCURVE",
"245 47 CURVE SMOOTH",
"299 47 OFFCURVE",
"355 74 OFFCURVE",
"381 119 CURVE",
"381 0 LINE",
"439 0 LINE",
"439 222 LINE",
"384 222 LINE",
"384 157 OFFCURVE",
"315 101 OFFCURVE",
"247 101 CURVE SMOOTH",
"181 101 OFFCURVE",
"127 138 OFFCURVE",
"127 203 CURVE SMOOTH",
"127 368 OFFCURVE",
"431 310 OFFCURVE",
"431 497 CURVE SMOOTH",
"431 584 OFFCURVE",
"354 639 OFFCURVE",
"271 639 CURVE SMOOTH",
"188 639 OFFCURVE",
"111 584 OFFCURVE",
"111 497 CURVE SMOOTH",
"111 380 OFFCURVE",
"220 328 OFFCURVE",
"325 328 CURVE SMOOTH",
"604 328 LINE"
);
},
{
closed = 1;
nodes = (
"584 634 LINE",
"584 0 LINE",
"646 0 LINE",
"646 634 LINE"
);
}
);
width = 741;
}
);
},
{
glyphname = gjJ_NYA;
lastChange = "2015-07-03 10:48:41 +0000";
layers = (
{
layerId = UUID0;
name = Bold;
paths = (
{
closed = 1;
nodes = (
"99 154 LINE",
"96 142 OFFCURVE",
"95 132 OFFCURVE",
"95 121 CURVE SMOOTH",
"95 -2 OFFCURVE",
"194 -64 OFFCURVE",
"311 -64 CURVE SMOOTH",
"346 -64 OFFCURVE",
"390 -61 OFFCURVE",
"418 -52 CURVE",
"418 65 LINE",
"391 58 OFFCURVE",
"360 52 OFFCURVE",
"322 52 CURVE SMOOTH",
"268 52 OFFCURVE",
"230 72 OFFCURVE",
"230 112 CURVE SMOOTH",
"230 121 OFFCURVE",
"231 127 OFFCURVE",
"234 136 CURVE"
);
},
{
closed = 1;
nodes = (
"508 0 LINE",
"650 0 LINE",
"650 671 LINE",
"508 671 LINE"
);
},
{
closed = 1;
nodes = (
"529 476 LINE",
"529 590 LINE",
"237 590 LINE SMOOTH",
"148 590 OFFCURVE",
"66 543 OFFCURVE",
"66 444 CURVE SMOOTH",
"66 355 OFFCURVE",
"133 300 OFFCURVE",
"229 300 CURVE SMOOTH",
"267 300 OFFCURVE",
"293 297 OFFCURVE",
"293 270 CURVE SMOOTH",
"293 241 OFFCURVE",
"264 236 OFFCURVE",
"229 236 CURVE SMOOTH",
"28 236 LINE",
"28 123 LINE",
"246 123 LINE SMOOTH",
"344 123 OFFCURVE",
"432 160 OFFCURVE",
"432 267 CURVE SMOOTH",
"432 376 OFFCURVE",
"345 418 OFFCURVE",
"246 418 CURVE SMOOTH",
"225 418 OFFCURVE",
"200 422 OFFCURVE",
"200 447 CURVE SMOOTH",
"200 472 OFFCURVE",
"225 476 OFFCURVE",
"246 476 CURVE SMOOTH"
);
}
);
width = 713;
},
{
layerId = "AD34CA4C-F33B-4C65-9C83-752D01B8F810";
name = Light;
paths = (
{
closed = 1;
nodes = (
"111 175 LINE",
"109 167 OFFCURVE",
"107 153 OFFCURVE",
"107 136 CURVE SMOOTH",
"107 43 OFFCURVE",
"163 -31 OFFCURVE",
"299 -31 CURVE SMOOTH",
"321 -31 OFFCURVE",
"345 -29 OFFCURVE",
"368 -25 CURVE",
"368 30 LINE",
"349 26 OFFCURVE",
"326 24 OFFCURVE",
"299 24 CURVE SMOOTH",
"198 24 OFFCURVE",
"167 72 OFFCURVE",
"167 122 CURVE SMOOTH",
"167 134 OFFCURVE",
"167 149 OFFCURVE",
"171 168 CURVE"
);
},
{
closed = 1;
nodes = (
"508 0 LINE",
"570 0 LINE",
"570 634 LINE",
"508 634 LINE"
);
},
{
closed = 1;
nodes = (
"530 499 LINE",
"530 554 LINE",
"206 554 LINE SMOOTH",
"132 554 OFFCURVE",
"69 517 OFFCURVE",
"69 448 CURVE SMOOTH",
"69 363 OFFCURVE",
"141 333 OFFCURVE",
"228 333 CURVE SMOOTH",
"277 333 OFFCURVE",
"318 320 OFFCURVE",
"318 270 CURVE SMOOTH",
"318 227 OFFCURVE",
"279 210 OFFCURVE",
"232 210 CURVE SMOOTH",
"38 210 LINE",
"38 155 LINE",
"245 155 LINE SMOOTH",
"313 155 OFFCURVE",
"380 195 OFFCURVE",
"380 272 CURVE SMOOTH",
"380 358 OFFCURVE",
"301 388 OFFCURVE",
"231 388 CURVE SMOOTH",
"172 388 OFFCURVE",
"131 399 OFFCURVE",
"131 445 CURVE SMOOTH",
"131 485 OFFCURVE",
"170 499 OFFCURVE",
"211 499 CURVE SMOOTH"
);
}
);
width = 665;
}
);
},
{
glyphname = gjAnusvara;
lastChange = "2015-07-03 10:48:40 +0000";
layers = (
{
anchors = (
{
name = _abvm;
position = "{-63, 671}";
},
{
name = _abvm.candra;
position = "{-63, 671}";
}
);
background = {
paths = (
{
closed = 1;
nodes = (
"-205 671 LINE",
"-205 0 LINE",
"-63 0 LINE",
"-63 671 LINE"
);
}
);
};
layerId = UUID0;
name = Bold;
paths = (
{
closed = 1;
nodes = (
"-216 774 OFFCURVE",
"-180 738 OFFCURVE",
"-134 738 CURVE SMOOTH",
"-88 738 OFFCURVE",
"-52 774 OFFCURVE",
"-52 820 CURVE SMOOTH",
"-52 866 OFFCURVE",
"-88 902 OFFCURVE",
"-134 902 CURVE SMOOTH",
"-180 902 OFFCURVE",
"-216 866 OFFCURVE",
"-216 820 CURVE SMOOTH"
);
}
);
width = 0;
},
{
anchors = (
{
name = _abvm;
position = "{-95, 634}";
},
{
name = _abvm.candra;
position = "{-95, 634}";
}
);
background = {
paths = (
{
closed = 1;
nodes = (
"-157 634 LINE",
"-157 0 LINE",
"-95 0 LINE",
"-95 634 LINE"
);
}
);
};
layerId = "AD34CA4C-F33B-4C65-9C83-752D01B8F810";
name = Light;
paths = (
{
closed = 1;
nodes = (
"-171 759 OFFCURVE",
"-152 740 OFFCURVE",
"-126 740 CURVE SMOOTH",
"-100 740 OFFCURVE",
"-81 759 OFFCURVE",
"-81 785 CURVE SMOOTH",
"-81 811 OFFCURVE",
"-100 830 OFFCURVE",
"-126 830 CURVE SMOOTH",
"-152 830 OFFCURVE",
"-171 811 OFFCURVE",
"-171 785 CURVE SMOOTH"
);
}
);
width = 0;
}
);
unicode = 0A82;
},
{
glyphname = gjCandrabindu;
lastChange = "2015-07-03 10:48:40 +0000";
layers = (
{
anchors = (
{
name = _abvm;
position = "{-63, 671}";
},
{
name = _abvm.candra;
position = "{-63, 671}";
}
);
background = {
paths = (
{
closed = 1;
nodes = (
"-205 671 LINE",
"-205 0 LINE",
"-63 0 LINE",
"-63 671 LINE"
);
}
);
};
components = (
{
name = gjmEcandra;
},
{
name = gjAnusvara;
transform = "{0.866, 0, 0, 0.866, -18, 238}";
}
);
layerId = UUID0;
name = Bold;
width = 0;
},
{
anchors = (
{
name = _abvm;
position = "{-95, 634}";
},
{
name = _abvm.candra;
position = "{-95, 634}";
}
);
background = {
paths = (
{
closed = 1;
nodes = (
"-157 634 LINE",
"-157 0 LINE",
"-95 0 LINE",
"-95 634 LINE"
);
}
);
};
components = (
{
name = gjmEcandra;
},
{
name = gjAnusvara;
transform = "{1, 0, 0, 1, 0, 126}";
}
);
layerId = "AD34CA4C-F33B-4C65-9C83-752D01B8F810";
name = Light;
width = 0;
}
);
unicode = 0A81;
},
{
glyphname = gjVisarga;
lastChange = "2015-07-03 10:48:40 +0000";
layers = (
{
layerId = UUID0;
name = Bold;
paths = (
{
closed = 1;
nodes = (
"58 455 OFFCURVE",
"94 419 OFFCURVE",
"140 419 CURVE SMOOTH",
"186 419 OFFCURVE",
"222 455 OFFCURVE",
"222 501 CURVE SMOOTH",
"222 547 OFFCURVE",
"186 583 OFFCURVE",
"140 583 CURVE SMOOTH",
"94 583 OFFCURVE",
"58 547 OFFCURVE",
"58 501 CURVE SMOOTH"
);
},
{
closed = 1;
nodes = (
"58 124 OFFCURVE",
"94 88 OFFCURVE",
"140 88 CURVE SMOOTH",
"186 88 OFFCURVE",
"222 124 OFFCURVE",
"222 170 CURVE SMOOTH",
"222 216 OFFCURVE",
"186 252 OFFCURVE",
"140 252 CURVE SMOOTH",
"94 252 OFFCURVE",
"58 216 OFFCURVE",
"58 170 CURVE SMOOTH"
);
}
);
width = 280;
},
{
layerId = "AD34CA4C-F33B-4C65-9C83-752D01B8F810";
name = Light;
paths = (
{
closed = 1;
nodes = (
"65 467 OFFCURVE",
"84 448 OFFCURVE",
"110 448 CURVE SMOOTH",
"136 448 OFFCURVE",
"155 467 OFFCURVE",
"155 493 CURVE SMOOTH",
"155 519 OFFCURVE",
"136 538 OFFCURVE",
"110 538 CURVE SMOOTH",
"84 538 OFFCURVE",
"65 519 OFFCURVE",
"65 493 CURVE SMOOTH"
);
},
{
closed = 1;
nodes = (
"65 116 OFFCURVE",
"84 97 OFFCURVE",
"110 97 CURVE SMOOTH",
"136 97 OFFCURVE",
"155 116 OFFCURVE",
"155 142 CURVE SMOOTH",
"155 168 OFFCURVE",
"136 187 OFFCURVE",
"110 187 CURVE SMOOTH",
"84 187 OFFCURVE",
"65 168 OFFCURVE",
"65 142 CURVE SMOOTH"
);
}
);
width = 220;
}
);
unicode = 0A83;
},
{
glyphname = gjVirama;
lastChange = "2015-07-03 10:48:40 +0000";
layers = (
{
anchors = (
{
name = _blwm.virama;
position = "{-63, 0}";
}
);
background = {
paths = (
{
closed = 1;
nodes = (
"-205 671 LINE",
"-205 0 LINE",
"-63 0 LINE",
"-63 671 LINE"
);
}
);
};
layerId = UUID0;
name = Bold;
paths = (
{
closed = 1;
nodes = (
"-60 -65 LINE",
"-206 -65 LINE",
"-86 -241 LINE",
"82 -241 LINE"
);
}
);
width = 0;
},
{
anchors = (
{
name = _blwm.virama;
position = "{-95, 0}";
}
);
background = {
paths = (
{
closed = 1;
nodes = (
"-157 634 LINE",
"-157 0 LINE",
"-95 0 LINE",
"-95 634 LINE"
);
}
);
};
layerId = "AD34CA4C-F33B-4C65-9C83-752D01B8F810";
name = Light;
paths = (
{
closed = 1;
nodes = (
"-93 -69 LINE",
"-159 -69 LINE",
"-35 -231 LINE",
"43 -231 LINE"
);
}
);
width = 0;
}
);
unicode = 0ACD;
},
{
glyphname = gjNukta;
lastChange = "2015-07-03 10:48:41 +0000";
layers = (
{
layerId = UUID0;
name = Bold;
paths = (
{
closed = 1;
nodes = (
"-389 -261 OFFCURVE",
"-353 -297 OFFCURVE",
"-307 -297 CURVE SMOOTH",
"-261 -297 OFFCURVE",
"-225 -261 OFFCURVE",
"-225 -215 CURVE SMOOTH",
"-225 -169 OFFCURVE",
"-261 -133 OFFCURVE",
"-307 -133 CURVE SMOOTH",
"-353 -133 OFFCURVE",
"-389 -169 OFFCURVE",
"-389 -215 CURVE SMOOTH"
);
}
);
width = 0;
},
{
layerId = "AD34CA4C-F33B-4C65-9C83-752D01B8F810";
name = Light;
paths = (
{
closed = 1;
nodes = (
"-302 -151 OFFCURVE",
"-283 -170 OFFCURVE",
"-257 -170 CURVE SMOOTH",
"-231 -170 OFFCURVE",
"-212 -151 OFFCURVE",
"-212 -125 CURVE SMOOTH",
"-212 -99 OFFCURVE",
"-231 -80 OFFCURVE",
"-257 -80 CURVE SMOOTH",
"-283 -80 OFFCURVE",
"-302 -99 OFFCURVE",
"-302 -125 CURVE SMOOTH"
);
}
);
width = 0;
}
);
},
{
glyphname = gjAvagraha;
lastChange = "2015-07-03 10:48:40 +0000";
layers = (
{
layerId = UUID0;
name = Bold;
paths = (
{
closed = 1;
nodes = (
"45 58 LINE",
"114 20 OFFCURVE",
"190 -3 OFFCURVE",
"278 -3 CURVE SMOOTH",
"425 -3 OFFCURVE",
"502 74 OFFCURVE",
"502 175 CURVE SMOOTH",
"502 368 OFFCURVE",
"205 415 OFFCURVE",
"205 506 CURVE SMOOTH",
"205 530 OFFCURVE",
"221 545 OFFCURVE",
"253 545 CURVE SMOOTH",
"466 545 LINE",
"466 671 LINE",
"237 671 LINE SMOOTH",
"120 671 OFFCURVE",
"49 612 OFFCURVE",
"49 517 CURVE SMOOTH",
"49 321 OFFCURVE",
"355 282 OFFCURVE",
"355 182 CURVE SMOOTH",
"355 145 OFFCURVE",
"328 126 OFFCURVE",
"273 126 CURVE SMOOTH",
"201 126 OFFCURVE",
"101 166 OFFCURVE",
"45 203 CURVE"
);
}
);
width = 538;
},
{
layerId = "AD34CA4C-F33B-4C65-9C83-752D01B8F810";
name = Light;
paths = (
{
closed = 1;
nodes = (
"58 52 LINE",
"112 20 OFFCURVE",
"189 -3 OFFCURVE",
"262 -3 CURVE SMOOTH",
"386 -3 OFFCURVE",
"456 59 OFFCURVE",
"456 139 CURVE SMOOTH",
"456 324 OFFCURVE",
"120 391 OFFCURVE",
"120 519 CURVE SMOOTH",
"120 561 OFFCURVE",
"152 579 OFFCURVE",
"205 579 CURVE SMOOTH",
"426 579 LINE",
"426 634 LINE",
"196 634 LINE SMOOTH",
"117 634 OFFCURVE",
"58 596 OFFCURVE",
"58 521 CURVE SMOOTH",
"58 350 OFFCURVE",
"394 287 OFFCURVE",
"394 145 CURVE SMOOTH",
"394 87 OFFCURVE",
"346 52 OFFCURVE",
"264 52 CURVE SMOOTH",
"191 52 OFFCURVE",
"123 72 OFFCURVE",
"58 115 CURVE"
);
}
);
width = 494;
}
);
},
{
glyphname = gjOm;
lastChange = "2015-07-03 10:48:41 +0000";
layers = (
{
layerId = UUID0;
name = Bold;
paths = (
{
closed = 1;
nodes = (
"567 60 OFFCURVE",
"527 83 OFFCURVE",
"499 129 CURVE",
"470 53 OFFCURVE",
"384 -1 OFFCURVE",
"287 -1 CURVE SMOOTH",
"216 -1 OFFCURVE",
"153 13 OFFCURVE",
"98 41 CURVE",
"98 171 LINE",
"159 135 OFFCURVE",
"219 117 OFFCURVE",
"280 117 CURVE SMOOTH",
"335 117 OFFCURVE",
"373 147 OFFCURVE",
"373 195 CURVE SMOOTH",
"373 239 OFFCURVE",
"343 261 OFFCURVE",
"282 261 CURVE SMOOTH",
"201 261 LINE",
"201 373 LINE",
"230 373 LINE SMOOTH",
"307 373 OFFCURVE",
"337 409 OFFCURVE",
"337 452 CURVE SMOOTH",
"337 493 OFFCURVE",
"305 521 OFFCURVE",
"257 521 CURVE SMOOTH",
"210 521 OFFCURVE",
"159 504 OFFCURVE",
"117 474 CURVE",
"117 594 LINE",
"157 621 OFFCURVE",
"224 637 OFFCURVE",
"276 637 CURVE SMOOTH",
"399 637 OFFCURVE",
"478 571 OFFCURVE",
"478 466 CURVE SMOOTH",
"478 411 OFFCURVE",
"448 364 OFFCURVE",
"400 342 CURVE",
"446 336 OFFCURVE",
"484 305 OFFCURVE",
"509 264 CURVE SMOOTH",
"531 228 OFFCURVE",
"559 193 OFFCURVE",
"600 193 CURVE SMOOTH",
"720 193 OFFCURVE",
"766 516 OFFCURVE",
"974 516 CURVE SMOOTH",
"1090 516 OFFCURVE",
"1168 430 OFFCURVE",
"1168 290 CURVE SMOOTH",
"1168 158 OFFCURVE",
"1085 47 OFFCURVE",
"955 47 CURVE SMOOTH",
"918 47 OFFCURVE",
"885 53 OFFCURVE",
"854 65 CURVE",
"854 185 LINE",
"879 170 OFFCURVE",
"906 162 OFFCURVE",
"936 162 CURVE SMOOTH",
"1000 162 OFFCURVE",
"1029 219 OFFCURVE",
"1029 286 CURVE SMOOTH",
"1029 354 OFFCURVE",
"1005 385 OFFCURVE",
"971 385 CURVE SMOOTH",
"860 385 OFFCURVE",
"809 60 OFFCURVE",
"619 60 CURVE SMOOTH"
);
},
{
closed = 1;
nodes = (
"837 511 OFFCURVE",
"951 571 OFFCURVE",
"951 716 CURVE",
"815 716 LINE",
"815 656 OFFCURVE",
"779 616 OFFCURVE",
"706 616 CURVE SMOOTH",
"633 616 OFFCURVE",
"597 656 OFFCURVE",
"597 716 CURVE",
"461 716 LINE",
"461 571 OFFCURVE",
"575 511 OFFCURVE",
"706 511 CURVE SMOOTH"
);
},
{
closed = 1;
nodes = (
"635 718 OFFCURVE",
"666 687 OFFCURVE",
"706 687 CURVE SMOOTH",
"746 687 OFFCURVE",
"777 718 OFFCURVE",
"777 758 CURVE SMOOTH",
"777 798 OFFCURVE",
"746 829 OFFCURVE",
"706 829 CURVE SMOOTH",
"666 829 OFFCURVE",
"635 798 OFFCURVE",
"635 758 CURVE SMOOTH"
);
}
);
width = 1237;
},
{
layerId = "AD34CA4C-F33B-4C65-9C83-752D01B8F810";
name = Light;
paths = (
{
closed = 1;
nodes = (
"464 41 OFFCURVE",
"417 83 OFFCURVE",
"395 128 CURVE",
"391 69 OFFCURVE",
"330 0 OFFCURVE",
"213 0 CURVE SMOOTH",
"154 0 OFFCURVE",
"92 16 OFFCURVE",
"48 44 CURVE",
"48 106 LINE",
"97 69 OFFCURVE",
"156 54 OFFCURVE",
"214 54 CURVE SMOOTH",
"297 54 OFFCURVE",
"345 97 OFFCURVE",
"345 161 CURVE SMOOTH",
"345 225 OFFCURVE",
"299 267 OFFCURVE",
"207 267 CURVE SMOOTH",
"160 267 LINE",
"160 322 LINE",
"197 322 LINE SMOOTH",
"274 322 OFFCURVE",
"316 368 OFFCURVE",
"316 428 CURVE SMOOTH",
"316 495 OFFCURVE",
"266 531 OFFCURVE",
"205 531 CURVE SMOOTH",
"165 531 OFFCURVE",
"120 514 OFFCURVE",
"87 492 CURVE",
"87 552 LINE",
"126 575 OFFCURVE",
"167 586 OFFCURVE",
"214 586 CURVE SMOOTH",
"318 586 OFFCURVE",
"378 507 OFFCURVE",
"378 430 CURVE SMOOTH",
"378 370 OFFCURVE",
"342 319 OFFCURVE",
"301 303 CURVE",
"337 298 OFFCURVE",
"373 270 OFFCURVE",
"398 226 CURVE SMOOTH",
"430 169 OFFCURVE",
"460 96 OFFCURVE",
"534 96 CURVE SMOOTH",
"678 96 OFFCURVE",
"695 461 OFFCURVE",
"891 461 CURVE SMOOTH",
"988 461 OFFCURVE",
"1050 383 OFFCURVE",
"1050 258 CURVE SMOOTH",
"1050 129 OFFCURVE",
"967 42 OFFCURVE",
"862 42 CURVE SMOOTH",
"835 42 OFFCURVE",
"807 48 OFFCURVE",
"779 60 CURVE",
"779 118 LINE",
"808 103 OFFCURVE",
"834 97 OFFCURVE",
"858 97 CURVE SMOOTH",
"937 97 OFFCURVE",
"988 167 OFFCURVE",
"988 261 CURVE SMOOTH",
"988 344 OFFCURVE",
"947 406 OFFCURVE",
"893 406 CURVE SMOOTH",
"739 406 OFFCURVE",
"729 41 OFFCURVE",
"535 41 CURVE SMOOTH"
);
},
{
closed = 1;
nodes = (
"716 517 OFFCURVE",
"810 566 OFFCURVE",
"810 685 CURVE",
"750 685 LINE",
"750 617 OFFCURVE",
"704 570 OFFCURVE",
"616 570 CURVE SMOOTH",
"527 570 OFFCURVE",
"481 617 OFFCURVE",
"481 685 CURVE",
"421 685 LINE",
"421 566 OFFCURVE",
"518 517 OFFCURVE",
"616 517 CURVE SMOOTH"
);
},
{
closed = 1;
nodes = (
"570 695 OFFCURVE",
"589 676 OFFCURVE",
"615 676 CURVE SMOOTH",
"641 676 OFFCURVE",
"660 695 OFFCURVE",
"660 721 CURVE SMOOTH",
"660 747 OFFCURVE",
"641 766 OFFCURVE",
"615 766 CURVE SMOOTH",
"589 766 OFFCURVE",
"570 747 OFFCURVE",
"570 721 CURVE SMOOTH"
);
}
);
width = 1110;
}
);
},
{
glyphname = gjAbbreviationsign;
lastChange = "2015-07-03 11:06:19 +0000";
layers = (
{
layerId = UUID0;
name = Bold;
paths = (
{
closed = 1;
nodes = (
"30 194 OFFCURVE",
"102 131 OFFCURVE",
"208 131 CURVE SMOOTH",
"316 131 OFFCURVE",
"388 200 OFFCURVE",
"388 305 CURVE SMOOTH",
"388 413 OFFCURVE",
"317 477 OFFCURVE",
"210 477 CURVE SMOOTH",
"103 477 OFFCURVE",
"30 408 OFFCURVE",
"30 303 CURVE SMOOTH"
);
},
{
closed = 1;
nodes = (
"143 348 OFFCURVE",
"166 377 OFFCURVE",
"208 377 CURVE SMOOTH",
"253 377 OFFCURVE",
"274 349 OFFCURVE",
"274 303 CURVE SMOOTH",
"274 260 OFFCURVE",
"254 231 OFFCURVE",
"211 231 CURVE SMOOTH",
"167 231 OFFCURVE",
"143 259 OFFCURVE",
"143 305 CURVE SMOOTH"
);
}
);
width = 418;
},
{
layerId = "AD34CA4C-F33B-4C65-9C83-752D01B8F810";
name = Light;
paths = (
{
closed = 1;
nodes = (
"60 206 OFFCURVE",
"121 146 OFFCURVE",
"205 146 CURVE SMOOTH",
"289 146 OFFCURVE",
"352 202 OFFCURVE",
"352 289 CURVE SMOOTH",
"352 373 OFFCURVE",
"291 434 OFFCURVE",
"207 434 CURVE SMOOTH",
"123 434 OFFCURVE",
"60 379 OFFCURVE",
"60 292 CURVE SMOOTH"
);
},
{
closed = 1;
nodes = (
"115 348 OFFCURVE",
"152 384 OFFCURVE",
"205 384 CURVE SMOOTH",
"258 384 OFFCURVE",
"297 345 OFFCURVE",
"297 289 CURVE SMOOTH",
"297 232 OFFCURVE",
"260 196 OFFCURVE",
"207 196 CURVE SMOOTH",
"154 196 OFFCURVE",
"115 235 OFFCURVE",
"115 291 CURVE SMOOTH"
);
}
);
width = 412;
}
);
},
{
color = 0;
glyphname = zerowidthnonjoiner;
lastChange = "2015-07-03 13:16:16 +0000";
layers = (
{
layerId = "AD34CA4C-F33B-4C65-9C83-752D01B8F810";
name = Light;
paths = (
{
closed = 1;
nodes = (
"-24 794 LINE",
"-24 -346 LINE",
"27 -346 LINE",
"27 794 LINE"
);
}
);
width = 0;
},
{
layerId = UUID0;
name = Bold;
paths = (
{
closed = 1;
nodes = (
"-24 794 LINE",
"-24 -346 LINE",
"27 -346 LINE",
"27 794 LINE"
);
}
);
width = 0;
}
);
unicode = 200C;
},
{
color = 0;
glyphname = zerowidthjoiner;
lastChange = "2015-07-03 13:16:16 +0000";
layers = (
{
layerId = "AD34CA4C-F33B-4C65-9C83-752D01B8F810";
name = Light;
paths = (
{
closed = 1;
nodes = (
"-33 666 LINE",
"-33 -346 LINE",
"18 -346 LINE",
"18 666 LINE"
);
},
{
closed = 1;
nodes = (
"133 570 LINE",
"29 665 LINE",
"133 761 LINE",
"93 799 LINE",
"-7 700 LINE",
"-108 799 LINE",
"-149 761 LINE",
"-45 665 LINE",
"-149 570 LINE",
"-107 531 LINE",
"-7 630 LINE",
"92 531 LINE"
);
}
);
width = 0;
},
{
layerId = UUID0;
name = Bold;
paths = (
{
closed = 1;
nodes = (
"-33 666 LINE",
"-33 -346 LINE",
"18 -346 LINE",
"18 666 LINE"
);
},
{
closed = 1;
nodes = (
"133 570 LINE",
"29 665 LINE",
"133 761 LINE",
"93 799 LINE",
"-7 700 LINE",
"-108 799 LINE",
"-149 761 LINE",
"-45 665 LINE",
"-149 570 LINE",
"-107 531 LINE",
"-7 630 LINE",
"92 531 LINE"
);
}
);
width = 0;
}
);
unicode = 200D;
},
{
color = 0;
glyphname = dottedcircle;
lastChange = "2015-07-03 13:16:16 +0000";
layers = (
{
layerId = "AD34CA4C-F33B-4C65-9C83-752D01B8F810";
name = Light;
paths = (
{
closed = 1;
nodes = (
"139 517 CURVE SMOOTH",
"139 491 OFFCURVE",
"157 472 OFFCURVE",
"183 472 CURVE SMOOTH",
"209 472 OFFCURVE",
"227 491 OFFCURVE",
"227 517 CURVE SMOOTH",
"227 542 OFFCURVE",
"209 561 OFFCURVE",
"183 561 CURVE SMOOTH",
"157 561 OFFCURVE",
"139 542 OFFCURVE"
);
},
{
closed = 1;
nodes = (
"57 407 CURVE SMOOTH",
"57 382 OFFCURVE",
"77 363 OFFCURVE",
"103 363 CURVE SMOOTH",
"127 363 OFFCURVE",
"147 382 OFFCURVE",
"147 407 CURVE SMOOTH",
"147 432 OFFCURVE",
"127 451 OFFCURVE",
"103 451 CURVE SMOOTH",
"77 451 OFFCURVE",
"57 432 OFFCURVE"
);
},
{
closed = 1;
nodes = (
"44 281 CURVE SMOOTH",
"44 256 OFFCURVE",
"63 238 OFFCURVE",
"88 238 CURVE SMOOTH",
"114 238 OFFCURVE",
"132 256 OFFCURVE",
"132 281 CURVE SMOOTH",
"132 307 OFFCURVE",
"114 326 OFFCURVE",
"88 326 CURVE SMOOTH",
"63 326 OFFCURVE",
"44 307 OFFCURVE"
);
},
{
closed = 1;
nodes = (
"96 165 CURVE SMOOTH",
"96 139 OFFCURVE",
"114 121 OFFCURVE",
"140 121 CURVE SMOOTH",
"165 121 OFFCURVE",
"184 139 OFFCURVE",
"184 165 CURVE SMOOTH",
"184 190 OFFCURVE",
"165 209 OFFCURVE",
"140 209 CURVE SMOOTH",
"114 209 OFFCURVE",
"96 190 OFFCURVE"
);
},
{
closed = 1;
nodes = (
"197 90 CURVE SMOOTH",
"197 64 OFFCURVE",
"216 44 OFFCURVE",
"242 44 CURVE SMOOTH",
"267 44 OFFCURVE",
"286 64 OFFCURVE",
"286 90 CURVE SMOOTH",
"286 114 OFFCURVE",
"267 134 OFFCURVE",
"242 134 CURVE SMOOTH",
"216 134 OFFCURVE",
"197 114 OFFCURVE"
);
},
{
closed = 1;
nodes = (
"324 74 CURVE SMOOTH",
"324 48 OFFCURVE",
"342 30 OFFCURVE",
"368 30 CURVE SMOOTH",
"394 30 OFFCURVE",
"413 48 OFFCURVE",
"413 74 CURVE SMOOTH",
"413 100 OFFCURVE",
"394 118 OFFCURVE",
"368 118 CURVE SMOOTH",
"342 118 OFFCURVE",
"324 100 OFFCURVE"
);
},
{
closed = 1;
nodes = (
"445 127 CURVE SMOOTH",
"445 101 OFFCURVE",
"464 83 OFFCURVE",
"489 83 CURVE SMOOTH",
"514 83 OFFCURVE",
"534 101 OFFCURVE",
"534 127 CURVE SMOOTH",
"534 152 OFFCURVE",
"514 171 OFFCURVE",
"489 171 CURVE SMOOTH",
"464 171 OFFCURVE",
"445 152 OFFCURVE"
);
},
{
closed = 1;
nodes = (
"518 225 CURVE SMOOTH",
"518 200 OFFCURVE",
"537 181 OFFCURVE",
"563 181 CURVE SMOOTH",
"587 181 OFFCURVE",
"606 200 OFFCURVE",
"606 225 CURVE SMOOTH",
"606 251 OFFCURVE",
"587 270 OFFCURVE",
"563 270 CURVE SMOOTH",
"537 270 OFFCURVE",
"518 251 OFFCURVE"
);
},
{
closed = 1;
nodes = (
"528 359 CURVE SMOOTH",
"528 333 OFFCURVE",
"546 315 OFFCURVE",
"572 315 CURVE SMOOTH",
"597 315 OFFCURVE",
"616 333 OFFCURVE",
"616 359 CURVE SMOOTH",
"616 385 OFFCURVE",
"597 403 OFFCURVE",
"572 403 CURVE SMOOTH",
"546 403 OFFCURVE",
"528 385 OFFCURVE"
);
},
{
closed = 1;
nodes = (
"478 477 CURVE SMOOTH",
"478 452 OFFCURVE",
"497 433 OFFCURVE",
"522 433 CURVE SMOOTH",
"548 433 OFFCURVE",
"566 452 OFFCURVE",
"566 477 CURVE SMOOTH",
"566 503 OFFCURVE",
"548 522 OFFCURVE",
"522 522 CURVE SMOOTH",
"497 522 OFFCURVE",
"478 503 OFFCURVE"
);
},
{
closed = 1;
nodes = (
"383 545 CURVE SMOOTH",
"383 521 OFFCURVE",
"402 501 OFFCURVE",
"428 501 CURVE SMOOTH",
"453 501 OFFCURVE",
"471 521 OFFCURVE",
"471 545 CURVE SMOOTH",
"471 571 OFFCURVE",
"453 590 OFFCURVE",
"428 590 CURVE SMOOTH",
"402 590 OFFCURVE",
"383 571 OFFCURVE"
);
},
{
closed = 1;
nodes = (
"257 560 CURVE SMOOTH",
"257 534 OFFCURVE",
"275 516 OFFCURVE",
"301 516 CURVE SMOOTH",
"327 516 OFFCURVE",
"345 534 OFFCURVE",
"345 560 CURVE SMOOTH",
"345 586 OFFCURVE",
"327 604 OFFCURVE",
"301 604 CURVE SMOOTH",
"275 604 OFFCURVE",
"257 586 OFFCURVE"
);
}
);
width = 660;
},
{
layerId = UUID0;
name = Bold;
paths = (
{
closed = 1;
nodes = (
"139 517 CURVE SMOOTH",
"139 491 OFFCURVE",
"157 472 OFFCURVE",
"183 472 CURVE SMOOTH",
"209 472 OFFCURVE",
"227 491 OFFCURVE",
"227 517 CURVE SMOOTH",
"227 542 OFFCURVE",
"209 561 OFFCURVE",
"183 561 CURVE SMOOTH",
"157 561 OFFCURVE",
"139 542 OFFCURVE"
);
},
{
closed = 1;
nodes = (
"57 407 CURVE SMOOTH",
"57 382 OFFCURVE",
"77 363 OFFCURVE",
"103 363 CURVE SMOOTH",
"127 363 OFFCURVE",
"147 382 OFFCURVE",
"147 407 CURVE SMOOTH",
"147 432 OFFCURVE",
"127 451 OFFCURVE",
"103 451 CURVE SMOOTH",
"77 451 OFFCURVE",
"57 432 OFFCURVE"
);
},
{
closed = 1;
nodes = (
"44 281 CURVE SMOOTH",
"44 256 OFFCURVE",
"63 238 OFFCURVE",
"88 238 CURVE SMOOTH",
"114 238 OFFCURVE",
"132 256 OFFCURVE",
"132 281 CURVE SMOOTH",
"132 307 OFFCURVE",
"114 326 OFFCURVE",
"88 326 CURVE SMOOTH",
"63 326 OFFCURVE",
"44 307 OFFCURVE"
);
},
{
closed = 1;
nodes = (
"96 165 CURVE SMOOTH",
"96 139 OFFCURVE",
"114 121 OFFCURVE",
"140 121 CURVE SMOOTH",
"165 121 OFFCURVE",
"184 139 OFFCURVE",
"184 165 CURVE SMOOTH",
"184 190 OFFCURVE",
"165 209 OFFCURVE",
"140 209 CURVE SMOOTH",
"114 209 OFFCURVE",
"96 190 OFFCURVE"
);
},
{
closed = 1;
nodes = (
"197 90 CURVE SMOOTH",
"197 64 OFFCURVE",
"216 44 OFFCURVE",
"242 44 CURVE SMOOTH",
"267 44 OFFCURVE",
"286 64 OFFCURVE",
"286 90 CURVE SMOOTH",
"286 114 OFFCURVE",
"267 134 OFFCURVE",
"242 134 CURVE SMOOTH",
"216 134 OFFCURVE",
"197 114 OFFCURVE"
);
},
{
closed = 1;
nodes = (
"324 74 CURVE SMOOTH",
"324 48 OFFCURVE",
"342 30 OFFCURVE",
"368 30 CURVE SMOOTH",
"394 30 OFFCURVE",
"413 48 OFFCURVE",
"413 74 CURVE SMOOTH",
"413 100 OFFCURVE",
"394 118 OFFCURVE",
"368 118 CURVE SMOOTH",
"342 118 OFFCURVE",
"324 100 OFFCURVE"
);
},
{
closed = 1;
nodes = (
"445 127 CURVE SMOOTH",
"445 101 OFFCURVE",
"464 83 OFFCURVE",
"489 83 CURVE SMOOTH",
"514 83 OFFCURVE",
"534 101 OFFCURVE",
"534 127 CURVE SMOOTH",
"534 152 OFFCURVE",
"514 171 OFFCURVE",
"489 171 CURVE SMOOTH",
"464 171 OFFCURVE",
"445 152 OFFCURVE"
);
},
{
closed = 1;
nodes = (
"518 225 CURVE SMOOTH",
"518 200 OFFCURVE",
"537 181 OFFCURVE",
"563 181 CURVE SMOOTH",
"587 181 OFFCURVE",
"606 200 OFFCURVE",
"606 225 CURVE SMOOTH",
"606 251 OFFCURVE",
"587 270 OFFCURVE",
"563 270 CURVE SMOOTH",
"537 270 OFFCURVE",
"518 251 OFFCURVE"
);
},
{
closed = 1;
nodes = (
"528 359 CURVE SMOOTH",
"528 333 OFFCURVE",
"546 315 OFFCURVE",
"572 315 CURVE SMOOTH",
"597 315 OFFCURVE",
"616 333 OFFCURVE",
"616 359 CURVE SMOOTH",
"616 385 OFFCURVE",
"597 403 OFFCURVE",
"572 403 CURVE SMOOTH",
"546 403 OFFCURVE",
"528 385 OFFCURVE"
);
},
{
closed = 1;
nodes = (
"478 477 CURVE SMOOTH",
"478 452 OFFCURVE",
"497 433 OFFCURVE",
"522 433 CURVE SMOOTH",
"548 433 OFFCURVE",
"566 452 OFFCURVE",
"566 477 CURVE SMOOTH",
"566 503 OFFCURVE",
"548 522 OFFCURVE",
"522 522 CURVE SMOOTH",
"497 522 OFFCURVE",
"478 503 OFFCURVE"
);
},
{
closed = 1;
nodes = (
"383 545 CURVE SMOOTH",
"383 521 OFFCURVE",
"402 501 OFFCURVE",
"428 501 CURVE SMOOTH",
"453 501 OFFCURVE",
"471 521 OFFCURVE",
"471 545 CURVE SMOOTH",
"471 571 OFFCURVE",
"453 590 OFFCURVE",
"428 590 CURVE SMOOTH",
"402 590 OFFCURVE",
"383 571 OFFCURVE"
);
},
{
closed = 1;
nodes = (
"257 560 CURVE SMOOTH",
"257 534 OFFCURVE",
"275 516 OFFCURVE",
"301 516 CURVE SMOOTH",
"327 516 OFFCURVE",
"345 534 OFFCURVE",
"345 560 CURVE SMOOTH",
"345 586 OFFCURVE",
"327 604 OFFCURVE",
"301 604 CURVE SMOOTH",
"275 604 OFFCURVE",
"257 586 OFFCURVE"
);
}
);
width = 660;
}
);
unicode = 25CC;
},
{
glyphname = gjReph;
lastChange = "2015-07-03 10:48:41 +0000";
layers = (
{
anchors = (
{
name = _abvm;
position = "{-63, 671}";
},
{
name = _abvm.e;
position = "{-63, 671}";
}
);
background = {
paths = (
{
closed = 1;
nodes = (
"-205 671 LINE",
"-205 0 LINE",
"-63 0 LINE",
"-63 671 LINE"
);
}
);
};
layerId = UUID0;
name = Bold;
paths = (
{
closed = 1;
nodes = (
"36 987 LINE",
"4 998 OFFCURVE",
"-29 1003 OFFCURVE",
"-61 1003 CURVE SMOOTH",
"-158 1003 OFFCURVE",
"-242 952 OFFCURVE",
"-242 848 CURVE SMOOTH",
"-242 809 OFFCURVE",
"-229 773 OFFCURVE",
"-206 739 CURVE",
"-71 739 LINE",
"-87 761 OFFCURVE",
"-111 788 OFFCURVE",
"-111 823 CURVE SMOOTH",
"-111 868 OFFCURVE",
"-78 885 OFFCURVE",
"-38 885 CURVE SMOOTH",
"-14 885 OFFCURVE",
"12 879 OFFCURVE",
"36 869 CURVE"
);
}
);
width = 0;
},
{
anchors = (
{
name = _abvm;
position = "{-95, 634}";
},
{
name = _abvm.e;
position = "{-95, 634}";
}
);
background = {
paths = (
{
closed = 1;
nodes = (
"-157 634 LINE",
"-157 0 LINE",
"-95 0 LINE",
"-95 634 LINE"
);
}
);
};
layerId = "AD34CA4C-F33B-4C65-9C83-752D01B8F810";
name = Light;
paths = (
{
closed = 1;
nodes = (
"18 942 LINE",
"-3 948 OFFCURVE",
"-25 952 OFFCURVE",
"-47 952 CURVE SMOOTH",
"-123 952 OFFCURVE",
"-196 913 OFFCURVE",
"-196 817 CURVE SMOOTH",
"-196 771 OFFCURVE",
"-177 736 OFFCURVE",
"-160 714 CURVE",
"-93 714 LINE",
"-112 737 OFFCURVE",
"-134 771 OFFCURVE",
"-134 812 CURVE SMOOTH",
"-134 874 OFFCURVE",
"-89 895 OFFCURVE",
"-39 895 CURVE SMOOTH",
"-20 895 OFFCURVE",
"0 892 OFFCURVE",
"18 887 CURVE"
);
}
);
width = 0;
}
);
},
{
glyphname = gjRAc2;
lastChange = "2015-08-06 15:14:57 +0000";
layers = (
{
background = {
paths = (
{
closed = 1;
nodes = (
"-205 671 LINE",
"-205 0 LINE",
"-63 0 LINE",
"-63 671 LINE"
);
}
);
};
layerId = UUID0;
name = Bold;
paths = (
{
closed = 1;
nodes = (
"-396 -199 LINE",
"-226 -199 LINE",
"-134 -80 LINE",
"-42 -199 LINE",
"128 -199 LINE",
"-48 0 LINE",
"-220 0 LINE"
);
}
);
width = 0;
},
{
background = {
paths = (
{
closed = 1;
nodes = (
"-157 634 LINE",
"-157 0 LINE",
"-95 0 LINE",
"-95 634 LINE"
);
}
);
};
layerId = "AD34CA4C-F33B-4C65-9C83-752D01B8F810";
name = Light;
paths = (
{
closed = 1;
nodes = (
"-300 -156 LINE",
"-228 -156 LINE",
"-126 -28 LINE",
"-25 -156 LINE",
"46 -156 LINE",
"-82 0 LINE",
"-172 0 LINE"
);
}
);
width = 0;
}
);
},
{
glyphname = gjK;
lastChange = "2015-07-03 10:48:41 +0000";
layers = (
{
layerId = UUID0;
name = Bold;
paths = (
{
closed = 1;
nodes = (
"342 388 LINE",
"302 401 OFFCURVE",
"208 418 OFFCURVE",
"208 485 CURVE SMOOTH",
"208 534 OFFCURVE",
"252 556 OFFCURVE",
"313 556 CURVE SMOOTH",
"375 556 OFFCURVE",
"421 549 OFFCURVE",
"485 530 CURVE",
"485 654 LINE",
"431 670 OFFCURVE",
"373 678 OFFCURVE",
"308 678 CURVE SMOOTH",
"165 678 OFFCURVE",
"66 614 OFFCURVE",
"66 498 CURVE SMOOTH",
"66 439 OFFCURVE",
"98 391 OFFCURVE",
"144 363 CURVE",
"160 377 LINE",
"32 348 LINE",
"32 226 LINE",
"345 305 LINE",
"216 310 LINE",
"282 281 OFFCURVE",
"393 271 OFFCURVE",
"393 188 CURVE SMOOTH",
"393 129 OFFCURVE",
"323 115 OFFCURVE",
"280 115 CURVE SMOOTH",
"207 115 OFFCURVE",
"135 134 OFFCURVE",
"65 169 CURVE",
"65 39 LINE",
"133 7 OFFCURVE",
"210 -7 OFFCURVE",
"293 -7 CURVE SMOOTH",
"434 -7 OFFCURVE",
"535 70 OFFCURVE",
"535 181 CURVE SMOOTH",
"535 266 OFFCURVE",
"478 317 OFFCURVE",
"413 340 CURVE",
"417 329 LINE",
"440 335 OFFCURVE",
"517 335 OFFCURVE",
"715 335 CURVE",
"745 335 LINE",
"745 444 LINE",
"549 444 LINE",
"470 444 OFFCURVE",
"411 444 OFFCURVE",
"322 423 CURVE SMOOTH",
"222 399 LINE"
);
}
);
width = 571;
},
{
layerId = "AD34CA4C-F33B-4C65-9C83-752D01B8F810";
name = Light;
paths = (
{
closed = 1;
nodes = (
"324 354 LINE",
"245 375 OFFCURVE",
"153 400 OFFCURVE",
"153 481 CURVE SMOOTH",
"153 555 OFFCURVE",
"220 584 OFFCURVE",
"297 584 CURVE SMOOTH",
"359 584 OFFCURVE",
"413 573 OFFCURVE",
"455 559 CURVE",
"455 617 LINE",
"403 632 OFFCURVE",
"347 639 OFFCURVE",
"294 639 CURVE SMOOTH",
"190 639 OFFCURVE",
"91 591 OFFCURVE",
"91 485 CURVE SMOOTH",
"91 399 OFFCURVE",
"162 348 OFFCURVE",
"241 326 CURVE",
"243 341 LINE",
"60 293 LINE",
"60 237 LINE",
"327 314 LINE",
"267 317 LINE",
"348 295 OFFCURVE",
"437 263 OFFCURVE",
"437 165 CURVE SMOOTH",
"437 78 OFFCURVE",
"347 50 OFFCURVE",
"280 50 CURVE SMOOTH",
"207 50 OFFCURVE",
"142 69 OFFCURVE",
"83 99 CURVE",
"83 40 LINE",
"149 6 OFFCURVE",
"213 -5 OFFCURVE",
"277 -5 CURVE SMOOTH",
"382 -5 OFFCURVE",
"499 47 OFFCURVE",
"499 169 CURVE SMOOTH",
"499 259 OFFCURVE",
"434 309 OFFCURVE",
"358 336 CURVE",
"358 327 LINE",
"386 333 OFFCURVE",
"421 335 OFFCURVE",
"534 335 CURVE",
"679 335 LINE",
"679 385 LINE",
"476 385 LINE SMOOTH",
"385 385 OFFCURVE",
"352 377 OFFCURVE",
"278 354 CURVE",
"271 352 LINE"
);
}
);
width = 562;
}
);
},
{
glyphname = gjKH;
lastChange = "2015-07-03 10:48:41 +0000";
layers = (
{
layerId = UUID0;
name = Bold;
paths = (
{
closed = 1;
nodes = (
"418 299 LINE",
"750 299 LINE",
"750 416 LINE",
"418 416 LINE"
);
},
{
closed = 1;
nodes = (
"362 517 LINE",
"362 312 LINE SMOOTH",
"362 268 OFFCURVE",
"343 245 OFFCURVE",
"299 245 CURVE SMOOTH",
"256 245 OFFCURVE",
"237 268 OFFCURVE",
"237 312 CURVE SMOOTH",
"237 529 LINE SMOOTH",
"237 620 OFFCURVE",
"167 671 OFFCURVE",
"88 671 CURVE SMOOTH",
"47 671 OFFCURVE",
"18 664 OFFCURVE",
"18 664 CURVE",
"18 547 LINE",
"30 551 OFFCURVE",
"43 554 OFFCURVE",
"55 554 CURVE SMOOTH",
"77 554 OFFCURVE",
"95 545 OFFCURVE",
"95 516 CURVE SMOOTH",
"95 329 LINE SMOOTH",
"95 201 OFFCURVE",
"171 127 OFFCURVE",
"299 127 CURVE SMOOTH",
"428 127 OFFCURVE",
"504 201 OFFCURVE",
"504 329 CURVE SMOOTH",
"504 517 LINE"
);
}
);
width = 584;
},
{
layerId = "AD34CA4C-F33B-4C65-9C83-752D01B8F810";
name = Light;
paths = (
{
closed = 1;
nodes = (
"417 313 LINE",
"692 313 LINE",
"692 368 LINE",
"417 368 LINE"
);
},
{
closed = 1;
nodes = (
"388 495 LINE",
"388 299 LINE SMOOTH",
"388 233 OFFCURVE",
"359 191 OFFCURVE",
"284 191 CURVE SMOOTH",
"214 191 OFFCURVE",
"182 238 OFFCURVE",
"182 298 CURVE SMOOTH",
"182 527 LINE SMOOTH",
"182 598 OFFCURVE",
"127 639 OFFCURVE",
"70 639 CURVE SMOOTH",
"58 639 OFFCURVE",
"46 638 OFFCURVE",
"35 636 CURVE",
"35 582 LINE",
"40 583 OFFCURVE",
"48 584 OFFCURVE",
"57 584 CURVE SMOOTH",
"94 584 OFFCURVE",
"120 571 OFFCURVE",
"120 516 CURVE SMOOTH",
"120 305 LINE SMOOTH",
"120 202 OFFCURVE",
"184 136 OFFCURVE",
"284 136 CURVE SMOOTH",
"389 136 OFFCURVE",
"450 195 OFFCURVE",
"450 305 CURVE SMOOTH",
"450 495 LINE"
);
}
);
width = 574;
}
);
},
{
glyphname = gjG;
lastChange = "2015-07-03 10:48:41 +0000";
layers = (
{
layerId = UUID0;
name = Bold;
paths = (
{
closed = 1;
nodes = (
"390 582 OFFCURVE",
"268 678 OFFCURVE",
"132 678 CURVE SMOOTH",
"104 678 OFFCURVE",
"76 674 OFFCURVE",
"48 666 CURVE",
"48 543 LINE",
"71 552 OFFCURVE",
"96 556 OFFCURVE",
"118 556 CURVE SMOOTH",
"195 556 OFFCURVE",
"245 502 OFFCURVE",
"245 426 CURVE",
"245 350 OFFCURVE",
"195 297 OFFCURVE",
"118 297 CURVE SMOOTH",
"91 297 OFFCURVE",
"61 302 OFFCURVE",
"33 314 CURVE",
"33 191 LINE",
"66 180 OFFCURVE",
"99 174 OFFCURVE",
"132 174 CURVE SMOOTH",
"268 174 OFFCURVE",
"390 270 OFFCURVE",
"390 426 CURVE"
);
}
);
width = 433;
},
{
layerId = "AD34CA4C-F33B-4C65-9C83-752D01B8F810";
name = Light;
paths = (
{
closed = 1;
nodes = (
"347 553 OFFCURVE",
"249 639 OFFCURVE",
"135 639 CURVE SMOOTH",
"107 639 OFFCURVE",
"75 634 OFFCURVE",
"54 627 CURVE",
"54 571 LINE",
"77 580 OFFCURVE",
"102 584 OFFCURVE",
"124 584 CURVE SMOOTH",
"228 584 OFFCURVE",
"285 515 OFFCURVE",
"285 419 CURVE SMOOTH",
"285 316 OFFCURVE",
"220 253 OFFCURVE",
"125 253 CURVE SMOOTH",
"102 253 OFFCURVE",
"60 260 OFFCURVE",
"37 270 CURVE",
"37 215 LINE",
"68 203 OFFCURVE",
"100 198 OFFCURVE",
"130 198 CURVE SMOOTH",
"247 198 OFFCURVE",
"347 280 OFFCURVE",
"347 413 CURVE SMOOTH"
);
}
);
width = 407;
}
);
},
{
glyphname = gjGH;
lastChange = "2015-07-03 10:48:41 +0000";
layers = (
{
layerId = UUID0;
name = Bold;
paths = (
{
closed = 1;
nodes = (
"480 310 LINE",
"437 244 OFFCURVE",
"380 194 OFFCURVE",
"291 194 CURVE SMOOTH",
"231 194 OFFCURVE",
"190 220 OFFCURVE",
"190 264 CURVE SMOOTH",
"190 300 OFFCURVE",
"223 323 OFFCURVE",
"263 323 CURVE SMOOTH",
"333 323 LINE",
"333 442 LINE",
"276 442 LINE SMOOTH",
"239 442 OFFCURVE",
"202 460 OFFCURVE",
"202 502 CURVE SMOOTH",
"202 550 OFFCURVE",
"247 564 OFFCURVE",
"283 564 CURVE SMOOTH",
"318 564 OFFCURVE",
"349 558 OFFCURVE",
"369 553 CURVE",
"369 670 LINE",
"331 678 OFFCURVE",
"294 682 OFFCURVE",
"255 682 CURVE SMOOTH",
"144 682 OFFCURVE",
"58 625 OFFCURVE",
"58 533 CURVE SMOOTH",
"58 418 OFFCURVE",
"170 380 OFFCURVE",
"271 380 CURVE SMOOTH",
"293 380 LINE",
"293 394 LINE",
"263 394 LINE SMOOTH",
"139 394 OFFCURVE",
"45 352 OFFCURVE",
"45 246 CURVE SMOOTH",
"45 138 OFFCURVE",
"157 76 OFFCURVE",
"273 76 CURVE SMOOTH",
"408 76 OFFCURVE",
"515 148 OFFCURVE",
"577 257 CURVE"
);
}
);
width = 410;
},
{
layerId = "AD34CA4C-F33B-4C65-9C83-752D01B8F810";
name = Light;
paths = (
{
closed = 1;
nodes = (
"485 270 LINE",
"441 200 OFFCURVE",
"362 155 OFFCURVE",
"273 155 CURVE SMOOTH",
"204 155 OFFCURVE",
"132 184 OFFCURVE",
"132 257 CURVE SMOOTH",
"132 328 OFFCURVE",
"204 357 OFFCURVE",
"269 357 CURVE SMOOTH",
"314 357 LINE",
"314 412 LINE",
"267 412 LINE SMOOTH",
"203 412 OFFCURVE",
"142 436 OFFCURVE",
"142 501 CURVE SMOOTH",
"142 561 OFFCURVE",
"194 591 OFFCURVE",
"263 591 CURVE SMOOTH",
"289 591 OFFCURVE",
"315 588 OFFCURVE",
"340 581 CURVE",
"340 635 LINE",
"312 643 OFFCURVE",
"283 646 OFFCURVE",
"255 646 CURVE SMOOTH",
"160 646 OFFCURVE",
"80 596 OFFCURVE",
"80 508 CURVE SMOOTH",
"80 426 OFFCURVE",
"155 378 OFFCURVE",
"236 378 CURVE SMOOTH",
"283 378 LINE",
"283 390 LINE",
"245 390 LINE SMOOTH",
"157 390 OFFCURVE",
"70 346 OFFCURVE",
"70 253 CURVE SMOOTH",
"70 155 OFFCURVE",
"170 100 OFFCURVE",
"271 100 CURVE SMOOTH",
"384 100 OFFCURVE",
"474 153 OFFCURVE",
"526 230 CURVE"
);
}
);
width = 393;
}
);
},
{
glyphname = gjC;
lastChange = "2015-07-03 10:48:41 +0000";
layers = (
{
layerId = UUID0;
name = Bold;
paths = (
{
closed = 1;
nodes = (
"530 332 LINE",
"510 293 OFFCURVE",
"458 212 OFFCURVE",
"349 212 CURVE SMOOTH",
"282 212 OFFCURVE",
"229 243 OFFCURVE",
"221 315 CURVE",
"88 320 LINE",
"102 165 OFFCURVE",
"225 91 OFFCURVE",
"352 91 CURVE SMOOTH",
"479 91 OFFCURVE",
"586 171 OFFCURVE",
"634 275 CURVE"
);
},
{
closed = 1;
nodes = (
"23 312 LINE",
"207 312 LINE SMOOTH",
"323 312 OFFCURVE",
"417 372 OFFCURVE",
"417 489 CURVE SMOOTH",
"417 613 OFFCURVE",
"315 678 OFFCURVE",
"199 678 CURVE SMOOTH",
"153 678 OFFCURVE",
"111 671 OFFCURVE",
"82 665 CURVE",
"82 545 LINE",
"115 554 OFFCURVE",
"147 558 OFFCURVE",
"185 558 CURVE SMOOTH",
"233 558 OFFCURVE",
"273 535 OFFCURVE",
"273 494 CURVE SMOOTH",
"273 444 OFFCURVE",
"224 431 OFFCURVE",
"186 431 CURVE SMOOTH",
"23 431 LINE"
);
}
);
width = 458;
},
{
layerId = "AD34CA4C-F33B-4C65-9C83-752D01B8F810";
name = Light;
paths = (
{
closed = 1;
nodes = (
"540 278 LINE",
"498 213 OFFCURVE",
"429 172 OFFCURVE",
"349 172 CURVE SMOOTH",
"254 172 OFFCURVE",
"170 224 OFFCURVE",
"166 340 CURVE",
"104 340 LINE",
"110 188 OFFCURVE",
"229 117 OFFCURVE",
"347 117 CURVE SMOOTH",
"451 117 OFFCURVE",
"532 167 OFFCURVE",
"580 240 CURVE"
);
},
{
closed = 1;
nodes = (
"35 331 LINE",
"183 331 LINE SMOOTH",
"273 331 OFFCURVE",
"357 381 OFFCURVE",
"357 486 CURVE SMOOTH",
"357 587 OFFCURVE",
"266 639 OFFCURVE",
"173 639 CURVE SMOOTH",
"139 639 OFFCURVE",
"114 635 OFFCURVE",
"94 631 CURVE",
"94 576 LINE",
"117 581 OFFCURVE",
"140 584 OFFCURVE",
"166 584 CURVE SMOOTH",
"240 584 OFFCURVE",
"295 549 OFFCURVE",
"295 484 CURVE SMOOTH",
"295 407 OFFCURVE",
"229 386 OFFCURVE",
"169 386 CURVE SMOOTH",
"35 386 LINE"
);
}
);
width = 433;
}
);
},
{
glyphname = gjJ;
lastChange = "2015-07-03 10:48:41 +0000";
layers = (
{
layerId = UUID0;
name = Bold;
paths = (
{
closed = 1;
nodes = (
"834 553 LINE",
"797 564 OFFCURVE",
"762 567 OFFCURVE",
"727 567 CURVE SMOOTH",
"502 567 OFFCURVE",
"250 369 OFFCURVE",
"250 190 CURVE SMOOTH",
"250 59 OFFCURVE",
"362 -7 OFFCURVE",
"464 -7 CURVE SMOOTH",
"604 -7 OFFCURVE",
"681 80 OFFCURVE",
"681 175 CURVE SMOOTH",
"681 261 OFFCURVE",
"632 359 OFFCURVE",
"527 480 CURVE SMOOTH",
"435 587 OFFCURVE",
"339 678 OFFCURVE",
"209 678 CURVE SMOOTH",
"98 678 OFFCURVE",
"15 602 OFFCURVE",
"15 496 CURVE SMOOTH",
"15 403 OFFCURVE",
"89 320 OFFCURVE",
"197 320 CURVE SMOOTH",
"229 320 OFFCURVE",
"255 326 OFFCURVE",
"264 330 CURVE",
"264 446 LINE",
"248 440 OFFCURVE",
"235 439 OFFCURVE",
"222 439 CURVE SMOOTH",
"184 439 OFFCURVE",
"157 465 OFFCURVE",
"157 498 CURVE SMOOTH",
"157 536 OFFCURVE",
"187 556 OFFCURVE",
"219 556 CURVE SMOOTH",
"278 556 OFFCURVE",
"335 499 OFFCURVE",
"418 406 CURVE SMOOTH",
"471 346 OFFCURVE",
"540 269 OFFCURVE",
"540 189 CURVE SMOOTH",
"540 143 OFFCURVE",
"502 112 OFFCURVE",
"462 112 CURVE SMOOTH",
"418 112 OFFCURVE",
"391 148 OFFCURVE",
"391 182 CURVE SMOOTH",
"391 295 OFFCURVE",
"569 444 OFFCURVE",
"741 444 CURVE SMOOTH",
"777 444 OFFCURVE",
"809 439 OFFCURVE",
"834 430 CURVE"
);
}
);
width = 729;
},
{
layerId = "AD34CA4C-F33B-4C65-9C83-752D01B8F810";
name = Light;
paths = (
{
closed = 1;
nodes = (
"773 502 LINE",
"748 506 OFFCURVE",
"723 508 OFFCURVE",
"695 508 CURVE SMOOTH",
"465 508 OFFCURVE",
"257 333 OFFCURVE",
"257 169 CURVE SMOOTH",
"257 62 OFFCURVE",
"346 -5 OFFCURVE",
"440 -5 CURVE SMOOTH",
"549 -5 OFFCURVE",
"624 72 OFFCURVE",
"624 175 CURVE SMOOTH",
"624 253 OFFCURVE",
"580 340 OFFCURVE",
"482 453 CURVE SMOOTH",
"397 551 OFFCURVE",
"309 639 OFFCURVE",
"196 639 CURVE SMOOTH",
"98 639 OFFCURVE",
"25 577 OFFCURVE",
"25 486 CURVE SMOOTH",
"25 406 OFFCURVE",
"89 338 OFFCURVE",
"182 338 CURVE SMOOTH",
"207 338 OFFCURVE",
"233 344 OFFCURVE",
"242 348 CURVE",
"242 401 LINE",
"228 396 OFFCURVE",
"206 393 OFFCURVE",
"188 393 CURVE SMOOTH",
"121 393 OFFCURVE",
"87 435 OFFCURVE",
"87 486 CURVE SMOOTH",
"87 545 OFFCURVE",
"134 584 OFFCURVE",
"197 584 CURVE SMOOTH",
"294 584 OFFCURVE",
"376 493 OFFCURVE",
"443 414 CURVE SMOOTH",
"523 319 OFFCURVE",
"563 256 OFFCURVE",
"563 178 CURVE SMOOTH",
"563 102 OFFCURVE",
"511 50 OFFCURVE",
"441 50 CURVE SMOOTH",
"370 50 OFFCURVE",
"317 99 OFFCURVE",
"317 171 CURVE SMOOTH",
"317 298 OFFCURVE",
"492 453 OFFCURVE",
"697 453 CURVE SMOOTH",
"725 453 OFFCURVE",
"749 452 OFFCURVE",
"773 447 CURVE SMOOTH"
);
}
);
width = 687;
}
);
},
{
glyphname = gjJH;
lastChange = "2015-07-03 10:48:41 +0000";
layers = (
{
layerId = UUID0;
name = Bold;
paths = (
{
closed = 1;
nodes = (
"352 19 LINE",
"394 5 OFFCURVE",
"439 0 OFFCURVE",
"482 0 CURVE SMOOTH",
"635 0 OFFCURVE",
"743 102 OFFCURVE",
"743 246 CURVE SMOOTH",
"743 416 OFFCURVE",
"603 496 OFFCURVE",
"478 496 CURVE SMOOTH",
"430 496 OFFCURVE",
"364 485 OFFCURVE",
"316 462 CURVE",
"370 351 LINE",
"402 367 OFFCURVE",
"434 374 OFFCURVE",
"464 374 CURVE SMOOTH",
"534 374 OFFCURVE",
"598 337 OFFCURVE",
"598 248 CURVE SMOOTH",
"598 164 OFFCURVE",
"529 123 OFFCURVE",
"454 123 CURVE SMOOTH",
"417 123 OFFCURVE",
"382 130 OFFCURVE",
"352 142 CURVE"
);
},
{
closed = 1;
nodes = (
"393 582 OFFCURVE",
"271 678 OFFCURVE",
"135 678 CURVE SMOOTH",
"107 678 OFFCURVE",
"79 674 OFFCURVE",
"51 666 CURVE",
"51 543 LINE",
"74 552 OFFCURVE",
"99 556 OFFCURVE",
"121 556 CURVE SMOOTH",
"198 556 OFFCURVE",
"248 502 OFFCURVE",
"248 426 CURVE SMOOTH",
"248 345 OFFCURVE",
"186 297 OFFCURVE",
"115 297 CURVE SMOOTH",
"89 297 OFFCURVE",
"60 303 OFFCURVE",
"33 313 CURVE",
"33 190 LINE",
"67 180 OFFCURVE",
"101 174 OFFCURVE",
"135 174 CURVE SMOOTH",
"271 174 OFFCURVE",
"393 270 OFFCURVE",
"393 426 CURVE SMOOTH"
);
}
);
width = 766;
},
{
layerId = "AD34CA4C-F33B-4C65-9C83-752D01B8F810";
name = Light;
paths = (
{
closed = 1;
nodes = (
"343 17 LINE",
"370 8 OFFCURVE",
"412 0 OFFCURVE",
"449 0 CURVE SMOOTH",
"593 0 OFFCURVE",
"698 95 OFFCURVE",
"698 227 CURVE SMOOTH",
"698 374 OFFCURVE",
"580 455 OFFCURVE",
"450 455 CURVE SMOOTH",
"406 455 OFFCURVE",
"359 445 OFFCURVE",
"319 425 CURVE",
"332 370 LINE",
"370 390 OFFCURVE",
"413 400 OFFCURVE",
"453 400 CURVE SMOOTH",
"549 400 OFFCURVE",
"636 346 OFFCURVE",
"636 227 CURVE SMOOTH",
"636 119 OFFCURVE",
"551 55 OFFCURVE",
"449 55 CURVE SMOOTH",
"420 55 OFFCURVE",
"375 61 OFFCURVE",
"343 71 CURVE"
);
},
{
closed = 1;
nodes = (
"363 544 OFFCURVE",
"278 639 OFFCURVE",
"144 639 CURVE SMOOTH",
"119 639 OFFCURVE",
"93 634 OFFCURVE",
"70 627 CURVE",
"70 571 LINE",
"95 580 OFFCURVE",
"126 584 OFFCURVE",
"142 584 CURVE SMOOTH",
"246 584 OFFCURVE",
"302 516 OFFCURVE",
"302 424 CURVE SMOOTH",
"302 325 OFFCURVE",
"236 263 OFFCURVE",
"141 263 CURVE SMOOTH",
"118 263 OFFCURVE",
"76 270 OFFCURVE",
"53 280 CURVE",
"53 225 LINE",
"84 213 OFFCURVE",
"116 208 OFFCURVE",
"146 208 CURVE SMOOTH",
"263 208 OFFCURVE",
"363 289 OFFCURVE",
"363 418 CURVE SMOOTH"
);
}
);
width = 763;
}
);
},
{
glyphname = gjNY;
lastChange = "2015-07-03 10:48:41 +0000";
layers = (
{
layerId = UUID0;
name = Bold;
paths = (
{
closed = 1;
nodes = (
"339 300 LINE",
"612 300 LINE",
"612 417 LINE",
"339 417 LINE"
);
},
{
closed = 1;
nodes = (
"401 544 OFFCURVE",
"279 638 OFFCURVE",
"143 638 CURVE SMOOTH",
"115 638 OFFCURVE",
"87 634 OFFCURVE",
"59 626 CURVE",
"59 503 LINE",
"82 512 OFFCURVE",
"107 516 OFFCURVE",
"129 516 CURVE SMOOTH",
"206 516 OFFCURVE",
"256 464 OFFCURVE",
"256 391 CURVE SMOOTH",
"256 318 OFFCURVE",
"206 267 OFFCURVE",
"129 267 CURVE SMOOTH",
"96 267 OFFCURVE",
"60 273 OFFCURVE",
"26 291 CURVE",
"26 168 LINE",
"65 152 OFFCURVE",
"104 144 OFFCURVE",
"143 144 CURVE SMOOTH",
"279 144 OFFCURVE",
"401 238 OFFCURVE",
"401 391 CURVE SMOOTH"
);
}
);
width = 448;
},
{
layerId = "AD34CA4C-F33B-4C65-9C83-752D01B8F810";
name = Light;
paths = (
{
closed = 1;
nodes = (
"308 333 LINE",
"549 333 LINE",
"549 388 LINE",
"308 388 LINE"
);
},
{
closed = 1;
nodes = (
"347 518 OFFCURVE",
"249 601 OFFCURVE",
"135 601 CURVE SMOOTH",
"102 601 OFFCURVE",
"71 595 OFFCURVE",
"54 589 CURVE",
"54 533 LINE",
"79 542 OFFCURVE",
"110 546 OFFCURVE",
"126 546 CURVE SMOOTH",
"230 546 OFFCURVE",
"285 480 OFFCURVE",
"285 390 CURVE SMOOTH",
"285 293 OFFCURVE",
"220 233 OFFCURVE",
"125 233 CURVE SMOOTH",
"102 233 OFFCURVE",
"60 240 OFFCURVE",
"37 250 CURVE",
"37 195 LINE",
"68 183 OFFCURVE",
"100 178 OFFCURVE",
"130 178 CURVE SMOOTH",
"247 178 OFFCURVE",
"347 257 OFFCURVE",
"347 384 CURVE SMOOTH"
);
}
);
width = 434;
}
);
},
{
glyphname = gjNN;
lastChange = "2015-07-03 10:48:41 +0000";
layers = (
{
layerId = UUID0;
name = Bold;
paths = (
{
closed = 1;
nodes = (
"205 671 LINE",
"63 671 LINE",
"63 297 LINE SMOOTH",
"63 70 OFFCURVE",
"241 -7 OFFCURVE",
"417 -7 CURVE SMOOTH",
"481 -7 OFFCURVE",
"544 9 OFFCURVE",
"592 31 CURVE",
"592 156 LINE",
"556 138 OFFCURVE",
"479 115 OFFCURVE",
"407 115 CURVE SMOOTH",
"302 115 OFFCURVE",
"205 151 OFFCURVE",
"205 273 CURVE SMOOTH"
);
},
{
closed = 1;
nodes = (
"602 565 OFFCURVE",
"525 671 OFFCURVE",
"381 671 CURVE SMOOTH",
"361 671 OFFCURVE",
"325 667 OFFCURVE",
"306 661 CURVE",
"306 541 LINE",
"325 547 OFFCURVE",
"344 549 OFFCURVE",
"362 549 CURVE SMOOTH",
"430 549 OFFCURVE",
"464 504 OFFCURVE",
"464 460 CURVE SMOOTH",
"464 416 OFFCURVE",
"430 371 OFFCURVE",
"362 371 CURVE SMOOTH",
"344 371 OFFCURVE",
"325 373 OFFCURVE",
"306 379 CURVE",
"306 259 LINE",
"325 253 OFFCURVE",
"361 249 OFFCURVE",
"381 249 CURVE SMOOTH",
"526 249 OFFCURVE",
"602 355 OFFCURVE",
"602 460 CURVE SMOOTH"
);
}
);
width = 645;
},
{
layerId = "AD34CA4C-F33B-4C65-9C83-752D01B8F810";
name = Light;
paths = (
{
closed = 1;
nodes = (
"154 634 LINE",
"92 634 LINE",
"92 290 LINE SMOOTH",
"92 69 OFFCURVE",
"241 -5 OFFCURVE",
"393 -5 CURVE SMOOTH",
"452 -5 OFFCURVE",
"508 7 OFFCURVE",
"555 24 CURVE",
"555 80 LINE",
"517 65 OFFCURVE",
"453 50 OFFCURVE",
"393 50 CURVE SMOOTH",
"269 50 OFFCURVE",
"154 102 OFFCURVE",
"154 279 CURVE SMOOTH"
);
},
{
closed = 1;
nodes = (
"557 560 OFFCURVE",
"466 630 OFFCURVE",
"370 630 CURVE SMOOTH",
"346 630 OFFCURVE",
"316 625 OFFCURVE",
"296 618 CURVE",
"296 562 LINE",
"319 571 OFFCURVE",
"346 575 OFFCURVE",
"368 575 CURVE SMOOTH",
"449 575 OFFCURVE",
"495 516 OFFCURVE",
"495 434 CURVE SMOOTH",
"495 352 OFFCURVE",
"447 293 OFFCURVE",
"363 293 CURVE SMOOTH",
"339 293 OFFCURVE",
"307 298 OFFCURVE",
"279 311 CURVE",
"279 255 LINE",
"302 245 OFFCURVE",
"337 238 OFFCURVE",
"365 238 CURVE SMOOTH",
"464 238 OFFCURVE",
"557 308 OFFCURVE",
"557 434 CURVE SMOOTH"
);
}
);
width = 617;
}
);
},
{
glyphname = gjT;
lastChange = "2015-07-03 10:48:41 +0000";
layers = (
{
layerId = UUID0;
name = Bold;
paths = (
{
closed = 1;
nodes = (
"531 388 LINE",
"531 506 LINE",
"298 506 LINE SMOOTH",
"128 506 OFFCURVE",
"30 412 OFFCURVE",
"30 252 CURVE SMOOTH",
"30 101 OFFCURVE",
"128 0 OFFCURVE",
"264 0 CURVE SMOOTH",
"281 0 OFFCURVE",
"304 3 OFFCURVE",
"314 5 CURVE",
"314 122 LINE",
"301 120 OFFCURVE",
"289 119 OFFCURVE",
"278 119 CURVE SMOOTH",
"208 119 OFFCURVE",
"172 169 OFFCURVE",
"172 249 CURVE SMOOTH",
"172 337 OFFCURVE",
"221 388 OFFCURVE",
"302 388 CURVE"
);
}
);
width = 366;
},
{
layerId = "AD34CA4C-F33B-4C65-9C83-752D01B8F810";
name = Light;
paths = (
{
closed = 1;
nodes = (
"477 411 LINE",
"477 466 LINE",
"299 466 LINE SMOOTH",
"141 466 OFFCURVE",
"60 377 OFFCURVE",
"60 233 CURVE SMOOTH",
"60 94 OFFCURVE",
"138 0 OFFCURVE",
"270 0 CURVE SMOOTH",
"286 0 OFFCURVE",
"301 2 OFFCURVE",
"312 5 CURVE",
"312 58 LINE",
"297 56 OFFCURVE",
"285 55 OFFCURVE",
"273 55 CURVE SMOOTH",
"166 55 OFFCURVE",
"123 123 OFFCURVE",
"122 233 CURVE",
"122 359 OFFCURVE",
"201 411 OFFCURVE",
"303 411 CURVE SMOOTH"
);
}
);
width = 361;
}
);
},
{
glyphname = gjTH;
lastChange = "2015-07-03 10:48:41 +0000";
layers = (
{
layerId = UUID0;
name = Bold;
paths = (
{
closed = 1;
nodes = (
"531 351 LINE",
"484 273 OFFCURVE",
"412 224 OFFCURVE",
"320 224 CURVE SMOOTH",
"254 224 OFFCURVE",
"189 256 OFFCURVE",
"176 327 CURVE",
"142 278 LINE",
"269 291 OFFCURVE",
"412 371 OFFCURVE",
"412 507 CURVE SMOOTH",
"412 611 OFFCURVE",
"342 681 OFFCURVE",
"234 681 CURVE SMOOTH",
"126 681 OFFCURVE",
"60 615 OFFCURVE",
"60 524 CURVE SMOOTH",
"60 501 OFFCURVE",
"64 478 OFFCURVE",
"71 457 CURVE",
"203 457 LINE",
"197 473 OFFCURVE",
"192 492 OFFCURVE",
"192 510 CURVE SMOOTH",
"192 539 OFFCURVE",
"205 564 OFFCURVE",
"239 564 CURVE SMOOTH",
"260 564 OFFCURVE",
"282 548 OFFCURVE",
"282 513 CURVE SMOOTH",
"282 446 OFFCURVE",
"216 406 OFFCURVE",
"25 367 CURVE",
"53 204 OFFCURVE",
"173 106 OFFCURVE",
"322 106 CURVE SMOOTH",
"447 106 OFFCURVE",
"556 172 OFFCURVE",
"617 277 CURVE"
);
}
);
width = 445;
},
{
layerId = "AD34CA4C-F33B-4C65-9C83-752D01B8F810";
name = Light;
paths = (
{
closed = 1;
nodes = (
"481 294 LINE",
"437 227 OFFCURVE",
"365 188 OFFCURVE",
"290 188 CURVE SMOOTH",
"206 188 OFFCURVE",
"124 236 OFFCURVE",
"109 326 CURVE",
"102 314 LINE",
"232 334 OFFCURVE",
"343 400 OFFCURVE",
"343 504 CURVE SMOOTH",
"343 585 OFFCURVE",
"283 640 OFFCURVE",
"208 640 CURVE SMOOTH",
"119 640 OFFCURVE",
"73 579 OFFCURVE",
"73 513 CURVE SMOOTH",
"73 491 OFFCURVE",
"79 467 OFFCURVE",
"85 453 CURVE",
"146 453 LINE",
"138 471 OFFCURVE",
"135 489 OFFCURVE",
"135 508 CURVE SMOOTH",
"135 544 OFFCURVE",
"155 585 OFFCURVE",
"210 585 CURVE SMOOTH",
"253 585 OFFCURVE",
"281 553 OFFCURVE",
"281 508 CURVE SMOOTH",
"281 401 OFFCURVE",
"118 370 OFFCURVE",
"40 359 CURVE",
"55 206 OFFCURVE",
"167 133 OFFCURVE",
"290 133 CURVE SMOOTH",
"381 133 OFFCURVE",
"465 174 OFFCURVE",
"521 256 CURVE"
);
}
);
width = 401;
}
);
},
{
glyphname = gjDH;
lastChange = "2015-07-03 10:48:41 +0000";
layers = (
{
layerId = UUID0;
name = Bold;
paths = (
{
closed = 1;
nodes = (
"411 76 OFFCURVE",
"523 151 OFFCURVE",
"580 257 CURVE",
"483 310 LINE",
"440 244 OFFCURVE",
"386 196 OFFCURVE",
"297 196 CURVE",
"242 196 OFFCURVE",
"190 223 OFFCURVE",
"190 280 CURVE SMOOTH",
"190 330 OFFCURVE",
"228 363 OFFCURVE",
"282 363 CURVE SMOOTH",
"343 363 LINE",
"343 479 LINE",
"298 479 LINE SMOOTH",
"232 479 OFFCURVE",
"200 512 OFFCURVE",
"200 567 CURVE SMOOTH",
"200 624 OFFCURVE",
"239 678 OFFCURVE",
"294 729 CURVE",
"294 740 LINE",
"125 740 LINE",
"94 709 OFFCURVE",
"58 658 OFFCURVE",
"58 588 CURVE SMOOTH",
"58 470 OFFCURVE",
"173 417 OFFCURVE",
"249 417 CURVE SMOOTH",
"261 417 LINE",
"261 431 LINE",
"248 431 LINE SMOOTH",
"180 431 OFFCURVE",
"45 398 OFFCURVE",
"45 267 CURVE SMOOTH",
"45 144 OFFCURVE",
"159 76 OFFCURVE",
"276 76 CURVE SMOOTH"
);
}
);
width = 413;
},
{
layerId = "AD34CA4C-F33B-4C65-9C83-752D01B8F810";
name = Light;
paths = (
{
closed = 1;
nodes = (
"384 100 OFFCURVE",
"474 153 OFFCURVE",
"526 230 CURVE",
"485 270 LINE",
"441 200 OFFCURVE",
"362 155 OFFCURVE",
"273 155 CURVE",
"204 155 OFFCURVE",
"132 188 OFFCURVE",
"132 265 CURVE SMOOTH",
"132 347 OFFCURVE",
"204 384 OFFCURVE",
"269 384 CURVE SMOOTH",
"314 384 LINE",
"314 439 LINE",
"271 439 LINE SMOOTH",
"200 439 OFFCURVE",
"143 479 OFFCURVE",
"143 547 CURVE SMOOTH",
"143 600 OFFCURVE",
"173 655 OFFCURVE",
"227 702 CURVE",
"227 706 LINE",
"152 706 LINE",
"105 662 OFFCURVE",
"81 605 OFFCURVE",
"81 553 CURVE SMOOTH",
"81 473 OFFCURVE",
"142 407 OFFCURVE",
"245 407 CURVE SMOOTH",
"283 407 LINE",
"283 417 LINE",
"245 417 LINE SMOOTH",
"159 417 OFFCURVE",
"70 368 OFFCURVE",
"70 268 CURVE SMOOTH",
"70 157 OFFCURVE",
"174 100 OFFCURVE",
"271 100 CURVE"
);
}
);
width = 393;
}
);
},
{
glyphname = gjN;
lastChange = "2015-07-03 10:48:41 +0000";
layers = (
{
layerId = UUID0;
name = Bold;
paths = (
{
closed = 1;
nodes = (
"341 391 LINE",
"662 391 LINE",
"662 506 LINE",
"253 506 LINE SMOOTH",
"115 506 OFFCURVE",
"28 425 OFFCURVE",
"28 300 CURVE SMOOTH",
"28 187 OFFCURVE",
"111 94 OFFCURVE",
"244 94 CURVE SMOOTH",
"370 94 OFFCURVE",
"454 170 OFFCURVE",
"454 273 CURVE SMOOTH",
"454 339 OFFCURVE",
"418 399 OFFCURVE",
"343 433 CURVE"
);
},
{
closed = 1;
nodes = (
"201 212 OFFCURVE",
"170 247 OFFCURVE",
"170 300 CURVE SMOOTH",
"170 353 OFFCURVE",
"201 388 OFFCURVE",
"244 388 CURVE SMOOTH",
"286 388 OFFCURVE",
"317 353 OFFCURVE",
"317 300 CURVE SMOOTH",
"317 247 OFFCURVE",
"286 212 OFFCURVE",
"243 212 CURVE SMOOTH"
);
}
);
width = 496;
},
{
layerId = "AD34CA4C-F33B-4C65-9C83-752D01B8F810";
name = Light;
paths = (
{
closed = 1;
nodes = (
"283 412 LINE",
"596 412 LINE",
"596 466 LINE",
"227 466 LINE SMOOTH",
"122 466 OFFCURVE",
"50 405 OFFCURVE",
"50 293 CURVE SMOOTH",
"50 186 OFFCURVE",
"119 120 OFFCURVE",
"215 120 CURVE SMOOTH",
"311 120 OFFCURVE",
"380 185 OFFCURVE",
"380 290 CURVE SMOOTH",
"380 355 OFFCURVE",
"342 412 OFFCURVE",
"283 434 CURVE"
);
},
{
closed = 1;
nodes = (
"158 175 OFFCURVE",
"112 213 OFFCURVE",
"112 293 CURVE SMOOTH",
"112 373 OFFCURVE",
"158 411 OFFCURVE",
"215 411 CURVE SMOOTH",
"272 411 OFFCURVE",
"318 373 OFFCURVE",
"318 293 CURVE SMOOTH",
"318 213 OFFCURVE",
"272 175 OFFCURVE",
"215 175 CURVE SMOOTH"
);
}
);
width = 465;
}
);
},
{
glyphname = gjP;
lastChange = "2015-07-03 10:48:41 +0000";
layers = (
{
layerId = UUID0;
name = Bold;
paths = (
{
closed = 1;
nodes = (
"432 364 LINE",
"408 324 OFFCURVE",
"369 283 OFFCURVE",
"314 283 CURVE SMOOTH",
"261 283 OFFCURVE",
"237 314 OFFCURVE",
"237 370 CURVE SMOOTH",
"237 529 LINE SMOOTH",
"237 620 OFFCURVE",
"167 671 OFFCURVE",
"88 671 CURVE SMOOTH",
"47 671 OFFCURVE",
"18 664 OFFCURVE",
"18 664 CURVE",
"18 547 LINE",
"30 551 OFFCURVE",
"43 554 OFFCURVE",
"55 554 CURVE SMOOTH",
"77 554 OFFCURVE",
"95 545 OFFCURVE",
"95 516 CURVE SMOOTH",
"95 375 LINE SMOOTH",
"95 245 OFFCURVE",
"175 163 OFFCURVE",
"304 163 CURVE SMOOTH",
"400 163 OFFCURVE",
"481 225 OFFCURVE",
"514 284 CURVE"
);
}
);
width = 365;
},
{
layerId = "AD34CA4C-F33B-4C65-9C83-752D01B8F810";
name = Light;
paths = (
{
closed = 1;
nodes = (
"440 332 LINE",
"411 270 OFFCURVE",
"356 231 OFFCURVE",
"292 231 CURVE SMOOTH",
"205 231 OFFCURVE",
"169 294 OFFCURVE",
"169 358 CURVE SMOOTH",
"169 532 LINE SMOOTH",
"169 600 OFFCURVE",
"116 639 OFFCURVE",
"63 639 CURVE SMOOTH",
"48 639 OFFCURVE",
"37 638 OFFCURVE",
"25 636 CURVE",
"25 582 LINE",
"33 584 OFFCURVE",
"45 585 OFFCURVE",
"55 585 CURVE SMOOTH",
"85 585 OFFCURVE",
"107 572 OFFCURVE",
"107 521 CURVE SMOOTH",
"107 359 LINE SMOOTH",
"107 261 OFFCURVE",
"177 177 OFFCURVE",
"288 177 CURVE SMOOTH",
"377 177 OFFCURVE",
"449 226 OFFCURVE",
"483 296 CURVE"
);
}
);
width = 367;
}
);
},
{
glyphname = gjPH;
lastChange = "2015-07-03 10:48:41 +0000";
layers = (
{
layerId = UUID0;
name = Bold;
paths = (
{
closed = 1;
nodes = (
"222 399 LINE",
"342 388 LINE",
"302 401 OFFCURVE",
"208 418 OFFCURVE",
"208 485 CURVE SMOOTH",
"208 534 OFFCURVE",
"252 556 OFFCURVE",
"313 556 CURVE SMOOTH",
"375 556 OFFCURVE",
"421 549 OFFCURVE",
"485 530 CURVE",
"485 654 LINE",
"431 670 OFFCURVE",
"373 678 OFFCURVE",
"308 678 CURVE SMOOTH",
"165 678 OFFCURVE",
"66 614 OFFCURVE",
"66 498 CURVE SMOOTH",
"66 439 OFFCURVE",
"98 391 OFFCURVE",
"144 363 CURVE",
"160 377 LINE",
"32 348 LINE",
"32 226 LINE",
"345 305 LINE",
"219 310 LINE",
"285 281 OFFCURVE",
"396 271 OFFCURVE",
"396 188 CURVE SMOOTH",
"396 139 OFFCURVE",
"348 114 OFFCURVE",
"299 114 CURVE SMOOTH",
"254 114 OFFCURVE",
"208 135 OFFCURVE",
"198 179 CURVE",
"68 179 LINE",
"68 -99 LINE",
"202 -99 LINE",
"202 52 LINE",
"178 41 LINE",
"223 11 OFFCURVE",
"277 -3 OFFCURVE",
"329 -3 CURVE SMOOTH",
"436 -3 OFFCURVE",
"536 57 OFFCURVE",
"536 176 CURVE SMOOTH",
"536 260 OFFCURVE",
"483 311 OFFCURVE",
"415 338 CURVE",
"417 329 LINE",
"440 335 OFFCURVE",
"515 335 OFFCURVE",
"708 335 CURVE",
"745 335 LINE",
"745 444 LINE",
"549 444 LINE SMOOTH",
"470 444 OFFCURVE",
"411 444 OFFCURVE",
"322 423 CURVE SMOOTH"
);
}
);
width = 571;
},
{
layerId = "AD34CA4C-F33B-4C65-9C83-752D01B8F810";
name = Light;
paths = (
{
closed = 1;
nodes = (
"276 352 LINE",
"329 354 LINE",
"250 375 OFFCURVE",
"158 400 OFFCURVE",
"158 481 CURVE SMOOTH",
"158 555 OFFCURVE",
"225 584 OFFCURVE",
"302 584 CURVE SMOOTH",
"364 584 OFFCURVE",
"418 573 OFFCURVE",
"460 559 CURVE",
"460 617 LINE",
"408 632 OFFCURVE",
"352 639 OFFCURVE",
"299 639 CURVE SMOOTH",
"195 639 OFFCURVE",
"96 591 OFFCURVE",
"96 485 CURVE SMOOTH",
"96 399 OFFCURVE",
"167 348 OFFCURVE",
"246 326 CURVE",
"248 341 LINE",
"65 293 LINE",
"65 237 LINE",
"332 314 LINE",
"272 317 LINE",
"352 295 OFFCURVE",
"442 264 OFFCURVE",
"442 168 CURVE SMOOTH",
"442 92 OFFCURVE",
"375 50 OFFCURVE",
"308 50 CURVE SMOOTH",
"238 50 OFFCURVE",
"173 83 OFFCURVE",
"152 147 CURVE",
"98 147 LINE",
"98 -87 LINE",
"156 -87 LINE",
"156 104 LINE",
"127 105 LINE",
"161 30 OFFCURVE",
"236 -3 OFFCURVE",
"311 -3 CURVE SMOOTH",
"414 -3 OFFCURVE",
"504 61 OFFCURVE",
"504 166 CURVE SMOOTH",
"504 256 OFFCURVE",
"439 311 OFFCURVE",
"363 338 CURVE",
"363 327 LINE",
"391 333 OFFCURVE",
"426 335 OFFCURVE",
"539 335 CURVE SMOOTH",
"684 335 LINE",
"684 385 LINE",
"481 385 LINE SMOOTH",
"390 385 OFFCURVE",
"357 377 OFFCURVE",
"283 354 CURVE SMOOTH"
);
}
);
width = 567;
}
);
},
{
glyphname = gjB;
lastChange = "2015-07-03 10:48:41 +0000";
layers = (
{
layerId = UUID0;
name = Bold;
paths = (
{
closed = 1;
nodes = (
"436 660 LINE",
"400 672 OFFCURVE",
"354 678 OFFCURVE",
"310 678 CURVE SMOOTH",
"164 678 OFFCURVE",
"30 597 OFFCURVE",
"30 376 CURVE SMOOTH",
"30 160 OFFCURVE",
"144 80 OFFCURVE",
"262 80 CURVE SMOOTH",
"376 80 OFFCURVE",
"474 135 OFFCURVE",
"474 310 CURVE SMOOTH",
"474 452 LINE",
"333 452 LINE",
"333 308 LINE SMOOTH",
"333 221 OFFCURVE",
"299 199 OFFCURVE",
"260 199 CURVE SMOOTH",
"220 199 OFFCURVE",
"172 216 OFFCURVE",
"172 368 CURVE SMOOTH",
"172 530 OFFCURVE",
"253 556 OFFCURVE",
"320 556 CURVE SMOOTH",
"368 556 OFFCURVE",
"412 544 OFFCURVE",
"436 537 CURVE"
);
},
{
closed = 1;
nodes = (
"388 246 LINE",
"720 246 LINE",
"720 363 LINE",
"388 363 LINE"
);
}
);
width = 554;
},
{
layerId = "AD34CA4C-F33B-4C65-9C83-752D01B8F810";
name = Light;
paths = (
{
closed = 1;
nodes = (
"395 620 LINE",
"364 632 OFFCURVE",
"324 639 OFFCURVE",
"285 639 CURVE SMOOTH",
"145 639 OFFCURVE",
"58 535 OFFCURVE",
"58 371 CURVE SMOOTH",
"58 204 OFFCURVE",
"133 110 OFFCURVE",
"251 110 CURVE SMOOTH",
"363 110 OFFCURVE",
"419 187 OFFCURVE",
"419 281 CURVE SMOOTH",
"419 439 LINE",
"357 439 LINE",
"357 283 LINE SMOOTH",
"357 218 OFFCURVE",
"322 165 OFFCURVE",
"251 165 CURVE SMOOTH",
"163 165 OFFCURVE",
"120 244 OFFCURVE",
"120 368 CURVE SMOOTH",
"120 484 OFFCURVE",
"172 584 OFFCURVE",
"285 584 CURVE SMOOTH",
"330 584 OFFCURVE",
"364 576 OFFCURVE",
"395 565 CURVE"
);
},
{
closed = 1;
nodes = (
"386 282 LINE",
"661 282 LINE",
"661 337 LINE",
"386 337 LINE"
);
}
);
width = 543;
}
);
},
{
glyphname = gjBH;
lastChange = "2015-07-03 10:48:41 +0000";
layers = (
{
layerId = UUID0;
name = Bold;
paths = (
{
closed = 1;
nodes = (
"30 138 OFFCURVE",
"167 0 OFFCURVE",
"358 0 CURVE SMOOTH",
"397 0 OFFCURVE",
"438 4 OFFCURVE",
"482 15 CURVE",
"482 136 LINE",
"445 127 OFFCURVE",
"410 122 OFFCURVE",
"378 122 CURVE SMOOTH",
"227 122 OFFCURVE",
"172 225 OFFCURVE",
"172 353 CURVE SMOOTH",
"172 508 OFFCURVE",
"227 559 OFFCURVE",
"281 559 CURVE SMOOTH",
"330 559 OFFCURVE",
"347 519 OFFCURVE",
"347 475 CURVE SMOOTH",
"347 426 LINE",
"317 418 OFFCURVE",
"302 400 OFFCURVE",
"302 371 CURVE SMOOTH",
"302 356 OFFCURVE",
"311 328 OFFCURVE",
"331 289 CURVE SMOOTH",
"362 229 LINE",
"486 229 LINE",
"486 315 LINE",
"740 315 LINE",
"740 433 LINE",
"486 433 LINE",
"486 466 LINE SMOOTH",
"486 589 OFFCURVE",
"414 678 OFFCURVE",
"282 678 CURVE SMOOTH",
"98 678 OFFCURVE",
"30 528 OFFCURVE",
"30 364 CURVE SMOOTH"
);
}
);
width = 566;
},
{
layerId = "AD34CA4C-F33B-4C65-9C83-752D01B8F810";
name = Light;
paths = (
{
closed = 1;
nodes = (
"60 123 OFFCURVE",
"166 1 OFFCURVE",
"346 1 CURVE SMOOTH",
"375 1 OFFCURVE",
"404 4 OFFCURVE",
"436 12 CURVE",
"436 66 LINE",
"403 58 OFFCURVE",
"373 55 OFFCURVE",
"346 55 CURVE SMOOTH",
"197 55 OFFCURVE",
"122 164 OFFCURVE",
"122 336 CURVE SMOOTH",
"122 438 OFFCURVE",
"156 584 OFFCURVE",
"272 584 CURVE SMOOTH",
"348 584 OFFCURVE",
"375 533 OFFCURVE",
"375 480 CURVE SMOOTH",
"375 383 LINE",
"343 375 OFFCURVE",
"333 358 OFFCURVE",
"333 338 CURVE SMOOTH",
"333 318 OFFCURVE",
"343 296 OFFCURVE",
"354 276 CURVE SMOOTH",
"382 229 LINE",
"436 229 LINE",
"436 330 LINE",
"673 330 LINE",
"673 385 LINE",
"436 385 LINE",
"436 476 LINE SMOOTH",
"436 568 OFFCURVE",
"374 639 OFFCURVE",
"274 639 CURVE SMOOTH",
"111 639 OFFCURVE",
"60 467 OFFCURVE",
"60 336 CURVE SMOOTH"
);
}
);
width = 560;
}
);
},
{
glyphname = gjM;
lastChange = "2015-07-03 10:48:41 +0000";
layers = (
{
layerId = UUID0;
name = Bold;
paths = (
{
closed = 1;
nodes = (
"246 529 LINE SMOOTH",
"246 620 OFFCURVE",
"177 671 OFFCURVE",
"100 671 CURVE SMOOTH",
"59 671 OFFCURVE",
"30 664 OFFCURVE",
"30 664 CURVE",
"30 547 LINE",
"42 551 OFFCURVE",
"55 554 OFFCURVE",
"67 554 CURVE SMOOTH",
"89 554 OFFCURVE",
"107 545 OFFCURVE",
"107 516 CURVE SMOOTH",
"107 366 LINE",
"77 358 OFFCURVE",
"62 340 OFFCURVE",
"62 311 CURVE SMOOTH",
"62 294 OFFCURVE",
"72 263 OFFCURVE",
"91 219 CURVE SMOOTH",
"127 139 LINE",
"246 139 LINE",
"246 256 LINE",
"507 256 LINE",
"507 373 LINE",
"246 373 LINE"
);
}
);
width = 349;
},
{
layerId = "AD34CA4C-F33B-4C65-9C83-752D01B8F810";
name = Light;
paths = (
{
closed = 1;
nodes = (
"185 527 LINE SMOOTH",
"185 598 OFFCURVE",
"130 639 OFFCURVE",
"73 639 CURVE SMOOTH",
"61 639 OFFCURVE",
"49 638 OFFCURVE",
"38 636 CURVE",
"38 582 LINE",
"43 583 OFFCURVE",
"51 584 OFFCURVE",
"60 584 CURVE SMOOTH",
"97 584 OFFCURVE",
"124 571 OFFCURVE",
"124 516 CURVE SMOOTH",
"124 341 LINE",
"89 333 OFFCURVE",
"79 315 OFFCURVE",
"79 294 CURVE SMOOTH",
"79 277 OFFCURVE",
"89 251 OFFCURVE",
"100 225 CURVE SMOOTH",
"129 163 LINE",
"185 163 LINE",
"185 288 LINE",
"448 288 LINE",
"448 343 LINE",
"185 343 LINE"
);
}
);
width = 337;
}
);
},
{
glyphname = gjY;
lastChange = "2015-07-03 10:48:41 +0000";
layers = (
{
layerId = UUID0;
name = Bold;
paths = (
{
closed = 1;
nodes = (
"492 327 LINE",
"451 272 OFFCURVE",
"390 227 OFFCURVE",
"299 227 CURVE SMOOTH",
"245 227 OFFCURVE",
"195 252 OFFCURVE",
"182 305 CURVE",
"268 331 OFFCURVE",
"346 386 OFFCURVE",
"346 492 CURVE SMOOTH",
"346 601 OFFCURVE",
"254 677 OFFCURVE",
"151 677 CURVE SMOOTH",
"119 677 OFFCURVE",
"87 671 OFFCURVE",
"59 658 CURVE",
"59 534 LINE",
"82 547 OFFCURVE",
"110 556 OFFCURVE",
"135 556 CURVE SMOOTH",
"174 556 OFFCURVE",
"207 536 OFFCURVE",
"207 494 CURVE SMOOTH",
"207 437 OFFCURVE",
"133 397 OFFCURVE",
"25 382 CURVE",
"34 182 OFFCURVE",
"172 105 OFFCURVE",
"309 105 CURVE SMOOTH",
"438 105 OFFCURVE",
"534 179 OFFCURVE",
"583 252 CURVE"
);
}
);
width = 407;
},
{
layerId = "AD34CA4C-F33B-4C65-9C83-752D01B8F810";
name = Light;
paths = (
{
closed = 1;
nodes = (
"467 294 LINE",
"423 227 OFFCURVE",
"351 188 OFFCURVE",
"276 188 CURVE",
"200 188 OFFCURVE",
"129 231 OFFCURVE",
"111 319 CURVE",
"208 343 OFFCURVE",
"296 394 OFFCURVE",
"296 494 CURVE SMOOTH",
"296 586 OFFCURVE",
"224 639 OFFCURVE",
"141 639 CURVE SMOOTH",
"115 639 OFFCURVE",
"91 634 OFFCURVE",
"70 627 CURVE",
"70 571 LINE",
"93 580 OFFCURVE",
"114 584 OFFCURVE",
"137 584 CURVE SMOOTH",
"191 584 OFFCURVE",
"234 555 OFFCURVE",
"234 498 CURVE SMOOTH",
"234 406 OFFCURVE",
"108 371 OFFCURVE",
"40 360 CURVE",
"54 204 OFFCURVE",
"160 133 OFFCURVE",
"276 133 CURVE",
"367 133 OFFCURVE",
"451 174 OFFCURVE",
"507 256 CURVE"
);
}
);
width = 387;
}
);
},
{
glyphname = gjL;
lastChange = "2015-08-06 15:06:09 +0000";
layers = (
{
layerId = UUID0;
name = Bold;
paths = (
{
closed = 1;
nodes = (
"376 -7 OFFCURVE",
"408 -2 OFFCURVE",
"443 7 CURVE",
"443 128 LINE",
"416 120 OFFCURVE",
"391 116 OFFCURVE",
"368 116 CURVE SMOOTH",
"251 116 OFFCURVE",
"175 198 OFFCURVE",
"175 335 CURVE",
"175 461 OFFCURVE",
"251 555 OFFCURVE",
"368 555 CURVE SMOOTH",
"391 555 OFFCURVE",
"416 551 OFFCURVE",
"443 543 CURVE",
"443 664 LINE",
"407 673 OFFCURVE",
"372 678 OFFCURVE",
"338 678 CURVE SMOOTH",
"154 678 OFFCURVE",
"30 546 OFFCURVE",
"30 335 CURVE",
"30 133 OFFCURVE",
"157 -7 OFFCURVE",
"344 -7 CURVE SMOOTH"
);
},
{
closed = 1;
nodes = (
"636 274 LINE",
"636 396 LINE",
"289 396 LINE",
"289 274 LINE"
);
}
);
width = 464;
},
{
layerId = "AD34CA4C-F33B-4C65-9C83-752D01B8F810";
name = Light;
paths = (
{
closed = 1;
nodes = (
"375 -5 OFFCURVE",
"401 -3 OFFCURVE",
"428 5 CURVE",
"428 59 LINE",
"402 53 OFFCURVE",
"379 50 OFFCURVE",
"356 50 CURVE SMOOTH",
"214 50 OFFCURVE",
"122 152 OFFCURVE",
"122 323 CURVE",
"122 468 OFFCURVE",
"213 584 OFFCURVE",
"357 584 CURVE SMOOTH",
"382 584 OFFCURVE",
"407 580 OFFCURVE",
"428 574 CURVE",
"428 629 LINE",
"402 636 OFFCURVE",
"371 639 OFFCURVE",
"345 639 CURVE SMOOTH",
"181 639 OFFCURVE",
"60 508 OFFCURVE",
"60 323 CURVE",
"60 130 OFFCURVE",
"178 -5 OFFCURVE",
"352 -5 CURVE SMOOTH"
);
},
{
closed = 1;
nodes = (
"571 301 LINE",
"571 356 LINE",
"280 356 LINE",
"280 301 LINE"
);
}
);
width = 460;
}
);
},
{
glyphname = gjV;
lastChange = "2015-07-03 10:48:41 +0000";
layers = (
{
layerId = UUID0;
name = Bold;
paths = (
{
closed = 1;
nodes = (
"495 345 LINE",
"461 292 OFFCURVE",
"399 255 OFFCURVE",
"326 255 CURVE SMOOTH",
"231 255 OFFCURVE",
"175 322 OFFCURVE",
"175 397 CURVE SMOOTH",
"175 471 OFFCURVE",
"224 538 OFFCURVE",
"321 538 CURVE SMOOTH",
"336 538 OFFCURVE",
"352 536 OFFCURVE",
"368 533 CURVE",
"368 652 LINE",
"341 658 OFFCURVE",
"315 660 OFFCURVE",
"290 660 CURVE SMOOTH",
"129 660 OFFCURVE",
"30 541 OFFCURVE",
"30 403 CURVE SMOOTH",
"30 243 OFFCURVE",
"169 133 OFFCURVE",
"318 133 CURVE SMOOTH",
"427 133 OFFCURVE",
"518 179 OFFCURVE",
"581 258 CURVE"
);
}
);
width = 409;
},
{
layerId = "AD34CA4C-F33B-4C65-9C83-752D01B8F810";
name = Light;
paths = (
{
closed = 1;
nodes = (
"467 332 LINE",
"435 273 OFFCURVE",
"375 223 OFFCURVE",
"295 223 CURVE SMOOTH",
"190 223 OFFCURVE",
"117 293 OFFCURVE",
"117 397 CURVE SMOOTH",
"117 514 OFFCURVE",
"202 574 OFFCURVE",
"301 574 CURVE SMOOTH",
"315 574 OFFCURVE",
"333 572 OFFCURVE",
"346 569 CURVE",
"346 624 LINE",
"330 628 OFFCURVE",
"309 630 OFFCURVE",
"290 630 CURVE SMOOTH",
"155 630 OFFCURVE",
"55 539 OFFCURVE",
"55 402 CURVE SMOOTH",
"55 264 OFFCURVE",
"155 164 OFFCURVE",
"295 164 CURVE SMOOTH",
"385 164 OFFCURVE",
"458 207 OFFCURVE",
"508 283 CURVE SMOOTH"
);
}
);
width = 386;
}
);
},
{
glyphname = gjSH;
lastChange = "2015-07-03 10:48:41 +0000";
layers = (
{
layerId = UUID0;
name = Bold;
paths = (
{
closed = 1;
nodes = (
"210 245 LINE SMOOTH",
"362 245 OFFCURVE",
"484 325 OFFCURVE",
"484 470 CURVE SMOOTH",
"484 611 OFFCURVE",
"398 685 OFFCURVE",
"281 685 CURVE SMOOTH",
"169 685 OFFCURVE",
"92 611 OFFCURVE",
"92 510 CURVE SMOOTH",
"92 478 OFFCURVE",
"96 446 OFFCURVE",
"111 419 CURVE",
"250 419 LINE",
"238 439 OFFCURVE",
"231 467 OFFCURVE",
"231 490 CURVE SMOOTH",
"231 528 OFFCURVE",
"248 564 OFFCURVE",
"286 564 CURVE SMOOTH",
"320 564 OFFCURVE",
"340 536 OFFCURVE",
"340 488 CURVE SMOOTH",
"340 399 OFFCURVE",
"261 367 OFFCURVE",
"188 367 CURVE SMOOTH",
"28 367 LINE",
"28 245 LINE"
);
},
{
closed = 1;
nodes = (
"96 267 LINE",
"96 82 OFFCURVE",
"217 -7 OFFCURVE",
"356 -7 CURVE SMOOTH",
"395 -7 OFFCURVE",
"437 -2 OFFCURVE",
"477 13 CURVE",
"477 136 LINE",
"446 124 OFFCURVE",
"410 115 OFFCURVE",
"376 115 CURVE SMOOTH",
"303 115 OFFCURVE",
"239 151 OFFCURVE",
"239 249 CURVE"
);
}
);
width = 522;
},
{
layerId = "AD34CA4C-F33B-4C65-9C83-752D01B8F810";
name = Light;
paths = (
{
closed = 1;
nodes = (
"179 248 LINE SMOOTH",
"323 248 OFFCURVE",
"408 350 OFFCURVE",
"408 460 CURVE SMOOTH",
"408 565 OFFCURVE",
"339 639 OFFCURVE",
"245 639 CURVE SMOOTH",
"151 639 OFFCURVE",
"84 576 OFFCURVE",
"84 483 CURVE SMOOTH",
"84 444 OFFCURVE",
"95 413 OFFCURVE",
"104 394 CURVE",
"165 394 LINE",
"153 417 OFFCURVE",
"146 449 OFFCURVE",
"146 479 CURVE SMOOTH",
"146 533 OFFCURVE",
"178 584 OFFCURVE",
"246 584 CURVE SMOOTH",
"306 584 OFFCURVE",
"346 537 OFFCURVE",
"346 463 CURVE SMOOTH",
"346 366 OFFCURVE",
"276 303 OFFCURVE",
"173 303 CURVE SMOOTH",
"35 303 LINE",
"35 248 LINE"
);
},
{
closed = 1;
nodes = (
"104 258 LINE",
"104 99 OFFCURVE",
"171 -6 OFFCURVE",
"321 -6 CURVE SMOOTH",
"346 -6 OFFCURVE",
"371 -3 OFFCURVE",
"397 3 CURVE",
"397 61 LINE",
"376 55 OFFCURVE",
"350 50 OFFCURVE",
"321 50 CURVE SMOOTH",
"201 50 OFFCURVE",
"166 133 OFFCURVE",
"166 249 CURVE"
);
}
);
width = 453;
}
);
},
{
glyphname = gjSS;
lastChange = "2015-07-03 10:48:41 +0000";
layers = (
{
layerId = UUID0;
name = Bold;
paths = (
{
closed = 1;
nodes = (
"445 352 LINE",
"417 307 OFFCURVE",
"375 277 OFFCURVE",
"322 277 CURVE SMOOTH",
"262 277 OFFCURVE",
"230 318 OFFCURVE",
"230 376 CURVE SMOOTH",
"230 436 LINE SMOOTH",
"230 484 OFFCURVE",
"229 493 OFFCURVE",
"225 519 CURVE",
"161 569 LINE",
"446 294 LINE"
);
},
{
closed = 1;
nodes = (
"208 615 LINE SMOOTH",
"164 658 OFFCURVE",
"131 671 OFFCURVE",
"88 671 CURVE SMOOTH",
"47 671 OFFCURVE",
"18 664 OFFCURVE",
"18 664 CURVE",
"18 547 LINE",
"30 551 OFFCURVE",
"43 554 OFFCURVE",
"55 554 CURVE SMOOTH",
"77 554 OFFCURVE",
"95 545 OFFCURVE",
"95 516 CURVE SMOOTH",
"95 378 LINE SMOOTH",
"95 236 OFFCURVE",
"190 160 OFFCURVE",
"318 160 CURVE SMOOTH",
"415 160 OFFCURVE",
"499 215 OFFCURVE",
"541 292 CURVE"
);
}
);
width = 405;
},
{
layerId = "AD34CA4C-F33B-4C65-9C83-752D01B8F810";
name = Light;
paths = (
{
closed = 1;
nodes = (
"440 329 LINE",
"420 273 OFFCURVE",
"367 231 OFFCURVE",
"302 231 CURVE SMOOTH",
"208 231 OFFCURVE",
"169 294 OFFCURVE",
"169 358 CURVE SMOOTH",
"169 476 LINE SMOOTH",
"169 506 OFFCURVE",
"167 521 OFFCURVE",
"162 540 CURVE",
"132 552 LINE",
"444 294 LINE"
);
},
{
closed = 1;
nodes = (
"134 614 LINE SMOOTH",
"115 629 OFFCURVE",
"89 639 OFFCURVE",
"63 639 CURVE SMOOTH",
"48 639 OFFCURVE",
"37 638 OFFCURVE",
"25 636 CURVE",
"25 582 LINE",
"33 584 OFFCURVE",
"45 585 OFFCURVE",
"55 585 CURVE SMOOTH",
"85 585 OFFCURVE",
"107 572 OFFCURVE",
"107 521 CURVE SMOOTH",
"107 359 LINE SMOOTH",
"107 261 OFFCURVE",
"181 177 OFFCURVE",
"298 177 CURVE SMOOTH",
"391 177 OFFCURVE",
"459 234 OFFCURVE",
"493 316 CURVE"
);
}
);
width = 370;
}
);
},
{
glyphname = gjS;
lastChange = "2015-07-03 10:48:41 +0000";
layers = (
{
layerId = UUID0;
name = Bold;
paths = (
{
closed = 1;
nodes = (
"266 287 LINE",
"610 287 LINE",
"610 404 LINE",
"307 404 LINE"
);
},
{
closed = 1;
nodes = (
"113 361 LINE",
"103 340 OFFCURVE",
"97 296 OFFCURVE",
"97 268 CURVE SMOOTH",
"97 83 OFFCURVE",
"217 -7 OFFCURVE",
"345 -7 CURVE SMOOTH",
"379 -7 OFFCURVE",
"419 -3 OFFCURVE",
"455 10 CURVE",
"455 133 LINE",
"426 122 OFFCURVE",
"398 115 OFFCURVE",
"365 115 CURVE SMOOTH",
"301 115 OFFCURVE",
"238 151 OFFCURVE",
"238 250 CURVE SMOOTH",
"238 274 OFFCURVE",
"242 306 OFFCURVE",
"250 330 CURVE"
);
},
{
closed = 1;
nodes = (
"28 254 LINE",
"191 254 LINE SMOOTH",
"327 254 OFFCURVE",
"448 325 OFFCURVE",
"448 464 CURVE SMOOTH",
"448 606 OFFCURVE",
"334 678 OFFCURVE",
"204 678 CURVE SMOOTH",
"162 678 OFFCURVE",
"124 673 OFFCURVE",
"98 666 CURVE",
"98 543 LINE",
"127 552 OFFCURVE",
"153 556 OFFCURVE",
"185 556 CURVE SMOOTH",
"252 556 OFFCURVE",
"303 526 OFFCURVE",
"303 464 CURVE SMOOTH",
"303 405 OFFCURVE",
"251 376 OFFCURVE",
"172 376 CURVE SMOOTH",
"28 376 LINE"
);
}
);
width = 505;
},
{
layerId = "AD34CA4C-F33B-4C65-9C83-752D01B8F810";
name = Light;
paths = (
{
closed = 1;
nodes = (
"297 306 LINE",
"596 306 LINE",
"596 361 LINE",
"297 361 LINE"
);
},
{
closed = 1;
nodes = (
"107 300 LINE",
"105 279 OFFCURVE",
"104 260 OFFCURVE",
"104 243 CURVE SMOOTH",
"104 93 OFFCURVE",
"176 -6 OFFCURVE",
"321 -6 CURVE SMOOTH",
"346 -6 OFFCURVE",
"371 -3 OFFCURVE",
"397 3 CURVE",
"397 61 LINE",
"376 55 OFFCURVE",
"350 50 OFFCURVE",
"321 50 CURVE SMOOTH",
"209 50 OFFCURVE",
"166 123 OFFCURVE",
"166 228 CURVE SMOOTH",
"166 252 OFFCURVE",
"167 274 OFFCURVE",
"169 295 CURVE"
);
},
{
closed = 1;
nodes = (
"35 275 LINE",
"177 275 LINE SMOOTH",
"290 275 OFFCURVE",
"398 337 OFFCURVE",
"398 458 CURVE SMOOTH",
"398 576 OFFCURVE",
"303 639 OFFCURVE",
"195 639 CURVE SMOOTH",
"162 639 OFFCURVE",
"132 636 OFFCURVE",
"107 631 CURVE",
"107 574 LINE",
"133 580 OFFCURVE",
"159 584 OFFCURVE",
"188 584 CURVE SMOOTH",
"272 584 OFFCURVE",
"336 541 OFFCURVE",
"336 458 CURVE SMOOTH",
"336 369 OFFCURVE",
"263 330 OFFCURVE",
"164 330 CURVE SMOOTH",
"35 330 LINE"
);
}
);
width = 484;
}
);
},
{
glyphname = gjLL;
lastChange = "2015-07-03 10:48:41 +0000";
layers = (
{
layerId = UUID0;
name = Bold;
paths = (
{
closed = 1;
nodes = (
"557 674 LINE",
"543 676 OFFCURVE",
"529 677 OFFCURVE",
"515 677 CURVE SMOOTH",
"369 677 OFFCURVE",
"317 585 OFFCURVE",
"317 443 CURVE SMOOTH",
"317 404 OFFCURVE",
"318 379 OFFCURVE",
"318 365 CURVE SMOOTH",
"318 258 OFFCURVE",
"300 216 OFFCURVE",
"247 216 CURVE SMOOTH",
"189 216 OFFCURVE",
"170 269 OFFCURVE",
"170 387 CURVE SMOOTH",
"170 514 OFFCURVE",
"201 550 OFFCURVE",
"246 550 CURVE SMOOTH",
"257 550 OFFCURVE",
"267 548 OFFCURVE",
"274 546 CURVE",
"274 665 LINE",
"259 669 OFFCURVE",
"238 671 OFFCURVE",
"226 671 CURVE SMOOTH",
"71 671 OFFCURVE",
"30 539 OFFCURVE",
"30 391 CURVE SMOOTH",
"30 198 OFFCURVE",
"107 96 OFFCURVE",
"251 96 CURVE SMOOTH",
"410 96 OFFCURVE",
"454 206 OFFCURVE",
"454 344 CURVE SMOOTH",
"454 371 OFFCURVE",
"453 403 OFFCURVE",
"453 444 CURVE SMOOTH",
"453 514 OFFCURVE",
"466 557 OFFCURVE",
"523 557 CURVE SMOOTH",
"536 557 OFFCURVE",
"548 555 OFFCURVE",
"557 553 CURVE"
);
}
);
width = 538;
},
{
layerId = "AD34CA4C-F33B-4C65-9C83-752D01B8F810";
name = Light;
paths = (
{
closed = 1;
nodes = (
"545 632 LINE",
"532 636 OFFCURVE",
"512 639 OFFCURVE",
"494 639 CURVE SMOOTH",
"378 639 OFFCURVE",
"340 562 OFFCURVE",
"340 455 CURVE SMOOTH",
"340 400 OFFCURVE",
"343 365 OFFCURVE",
"343 344 CURVE SMOOTH",
"343 259 OFFCURVE",
"330 173 OFFCURVE",
"236 173 CURVE SMOOTH",
"127 173 OFFCURVE",
"121 305 OFFCURVE",
"121 386 CURVE SMOOTH",
"121 471 OFFCURVE",
"134 579 OFFCURVE",
"232 579 CURVE SMOOTH",
"242 579 OFFCURVE",
"253 577 OFFCURVE",
"258 576 CURVE",
"258 630 LINE",
"247 633 OFFCURVE",
"232 634 OFFCURVE",
"223 634 CURVE SMOOTH",
"94 634 OFFCURVE",
"60 516 OFFCURVE",
"60 388 CURVE SMOOTH",
"60 227 OFFCURVE",
"113 118 OFFCURVE",
"242 118 CURVE SMOOTH",
"368 118 OFFCURVE",
"403 218 OFFCURVE",
"403 343 CURVE SMOOTH",
"403 367 OFFCURVE",
"400 426 OFFCURVE",
"400 468 CURVE SMOOTH",
"400 539 OFFCURVE",
"426 584 OFFCURVE",
"498 584 CURVE SMOOTH",
"516 584 OFFCURVE",
"532 580 OFFCURVE",
"545 576 CURVE"
);
}
);
width = 516;
}
);
},
{
glyphname = gjK_SS;
lastChange = "2015-07-03 10:48:41 +0000";
layers = (
{
layerId = UUID0;
name = Bold;
paths = (
{
closed = 1;
nodes = (
"691 419 LINE",
"415 419 LINE SMOOTH",
"342 419 OFFCURVE",
"229 419 OFFCURVE",
"229 506 CURVE SMOOTH",
"229 538 OFFCURVE",
"254 566 OFFCURVE",
"292 566 CURVE SMOOTH",
"326 566 OFFCURVE",
"347 542 OFFCURVE",
"347 512 CURVE SMOOTH",
"347 456 OFFCURVE",
"287 433 OFFCURVE",
"219 408 CURVE SMOOTH",
"130 375 OFFCURVE",
"28 337 OFFCURVE",
"28 211 CURVE SMOOTH",
"28 104 OFFCURVE",
"110 31 OFFCURVE",
"226 31 CURVE SMOOTH",
"285 31 OFFCURVE",
"338 60 OFFCURVE",
"358 88 CURVE",
"358 0 LINE",
"498 0 LINE",
"498 249 LINE",
"360 249 LINE",
"360 185 OFFCURVE",
"314 141 OFFCURVE",
"255 141 CURVE SMOOTH",
"208 141 OFFCURVE",
"171 171 OFFCURVE",
"171 218 CURVE SMOOTH",
"171 353 OFFCURVE",
"475 346 OFFCURVE",
"475 523 CURVE SMOOTH",
"475 619 OFFCURVE",
"401 681 OFFCURVE",
"287 681 CURVE SMOOTH",
"173 681 OFFCURVE",
"97 613 OFFCURVE",
"97 514 CURVE SMOOTH",
"97 366 OFFCURVE",
"261 312 OFFCURVE",
"377 312 CURVE SMOOTH",
"691 312 LINE"
);
}
);
width = 533;
},
{
layerId = "AD34CA4C-F33B-4C65-9C83-752D01B8F810";
name = Light;
paths = (
{
closed = 1;
nodes = (
"604 379 LINE",
"314 379 LINE SMOOTH",
"224 379 OFFCURVE",
"173 426 OFFCURVE",
"173 495 CURVE SMOOTH",
"173 549 OFFCURVE",
"219 587 OFFCURVE",
"272 587 CURVE SMOOTH",
"327 587 OFFCURVE",
"369 547 OFFCURVE",
"369 495 CURVE SMOOTH",
"369 421 OFFCURVE",
"302 395 OFFCURVE",
"235 371 CURVE SMOOTH",
"153 342 OFFCURVE",
"65 302 OFFCURVE",
"65 203 CURVE SMOOTH",
"65 104 OFFCURVE",
"152 47 OFFCURVE",
"245 47 CURVE SMOOTH",
"299 47 OFFCURVE",
"355 74 OFFCURVE",
"381 119 CURVE",
"381 0 LINE",
"439 0 LINE",
"439 222 LINE",
"384 222 LINE",
"384 157 OFFCURVE",
"315 101 OFFCURVE",
"247 101 CURVE SMOOTH",
"181 101 OFFCURVE",
"127 138 OFFCURVE",
"127 203 CURVE SMOOTH",
"127 368 OFFCURVE",
"431 310 OFFCURVE",
"431 497 CURVE SMOOTH",
"431 584 OFFCURVE",
"354 639 OFFCURVE",
"271 639 CURVE SMOOTH",
"188 639 OFFCURVE",
"111 584 OFFCURVE",
"111 497 CURVE SMOOTH",
"111 380 OFFCURVE",
"220 328 OFFCURVE",
"325 328 CURVE SMOOTH",
"604 328 LINE"
);
}
);
width = 494;
}
);
},
{
glyphname = gjJ_NY;
lastChange = "2015-07-03 10:48:41 +0000";
layers = (
{
layerId = UUID0;
name = Bold;
paths = (
{
closed = 1;
nodes = (
"99 154 LINE",
"96 142 OFFCURVE",
"95 132 OFFCURVE",
"95 121 CURVE SMOOTH",
"95 -2 OFFCURVE",
"194 -64 OFFCURVE",
"311 -64 CURVE SMOOTH",
"346 -64 OFFCURVE",
"390 -61 OFFCURVE",
"418 -52 CURVE",
"418 65 LINE",
"391 58 OFFCURVE",
"360 52 OFFCURVE",
"322 52 CURVE SMOOTH",
"268 52 OFFCURVE",
"230 72 OFFCURVE",
"230 112 CURVE SMOOTH",
"230 121 OFFCURVE",
"231 127 OFFCURVE",
"234 136 CURVE"
);
},
{
closed = 1;
nodes = (
"629 476 LINE",
"629 590 LINE",
"237 590 LINE SMOOTH",
"148 590 OFFCURVE",
"66 543 OFFCURVE",
"66 444 CURVE SMOOTH",
"66 355 OFFCURVE",
"133 300 OFFCURVE",
"229 300 CURVE SMOOTH",
"267 300 OFFCURVE",
"293 297 OFFCURVE",
"293 270 CURVE SMOOTH",
"293 241 OFFCURVE",
"264 236 OFFCURVE",
"229 236 CURVE SMOOTH",
"28 236 LINE",
"28 123 LINE",
"246 123 LINE SMOOTH",
"344 123 OFFCURVE",
"432 160 OFFCURVE",
"432 267 CURVE SMOOTH",
"432 376 OFFCURVE",
"345 418 OFFCURVE",
"246 418 CURVE SMOOTH",
"225 418 OFFCURVE",
"200 422 OFFCURVE",
"200 447 CURVE SMOOTH",
"200 472 OFFCURVE",
"225 476 OFFCURVE",
"246 476 CURVE SMOOTH"
);
}
);
width = 467;
},
{
layerId = "AD34CA4C-F33B-4C65-9C83-752D01B8F810";
name = Light;
paths = (
{
closed = 1;
nodes = (
"111 175 LINE",
"109 167 OFFCURVE",
"107 153 OFFCURVE",
"107 136 CURVE SMOOTH",
"107 43 OFFCURVE",
"163 -31 OFFCURVE",
"299 -31 CURVE SMOOTH",
"321 -31 OFFCURVE",
"345 -29 OFFCURVE",
"368 -25 CURVE",
"368 30 LINE",
"349 26 OFFCURVE",
"326 24 OFFCURVE",
"299 24 CURVE SMOOTH",
"198 24 OFFCURVE",
"167 72 OFFCURVE",
"167 122 CURVE SMOOTH",
"167 134 OFFCURVE",
"167 149 OFFCURVE",
"171 168 CURVE"
);
},
{
closed = 1;
nodes = (
"560 499 LINE",
"560 554 LINE",
"206 554 LINE SMOOTH",
"132 554 OFFCURVE",
"69 517 OFFCURVE",
"69 448 CURVE SMOOTH",
"69 363 OFFCURVE",
"141 333 OFFCURVE",
"228 333 CURVE SMOOTH",
"277 333 OFFCURVE",
"318 320 OFFCURVE",
"318 270 CURVE SMOOTH",
"318 227 OFFCURVE",
"279 210 OFFCURVE",
"232 210 CURVE SMOOTH",
"38 210 LINE",
"38 155 LINE",
"245 155 LINE SMOOTH",
"313 155 OFFCURVE",
"380 195 OFFCURVE",
"380 272 CURVE SMOOTH",
"380 358 OFFCURVE",
"301 388 OFFCURVE",
"231 388 CURVE SMOOTH",
"172 388 OFFCURVE",
"131 399 OFFCURVE",
"131 445 CURVE SMOOTH",
"131 485 OFFCURVE",
"170 499 OFFCURVE",
"211 499 CURVE SMOOTH"
);
}
);
width = 422;
}
);
},
{
glyphname = gjK_RA;
lastChange = "2015-07-03 10:48:41 +0000";
layers = (
{
anchors = (
{
name = abvm.candra;
position = "{380, 671}";
},
{
name = abvm.e;
position = "{429, 671}";
},
{
name = blwm.r;
position = "{403, -57}";
},
{
name = blwm.u;
position = "{409, -57}";
},
{
name = blwm.uu;
position = "{385, -57}";
},
{
name = blwm.virama;
position = "{358, 0}";
}
);
layerId = UUID0;
name = Bold;
paths = (
{
closed = 1;
nodes = (
"323 282 OFFCURVE",
"393 256 OFFCURVE",
"393 188 CURVE SMOOTH",
"393 129 OFFCURVE",
"323 115 OFFCURVE",
"280 115 CURVE SMOOTH",
"207 115 OFFCURVE",
"135 129 OFFCURVE",
"65 156 CURVE",
"65 26 LINE",
"126 5 OFFCURVE",
"202 -7 OFFCURVE",
"276 -7 CURVE SMOOTH",
"416 -7 OFFCURVE",
"535 54 OFFCURVE",
"535 181 CURVE SMOOTH",
"535 272 OFFCURVE",
"472 321 OFFCURVE",
"413 345 CURVE",
"406 337 LINE",
"546 351 LINE",
"546 471 LINE",
"222 399 LINE",
"342 399 LINE",
"302 411 OFFCURVE",
"208 418 OFFCURVE",
"208 485 CURVE SMOOTH",
"208 534 OFFCURVE",
"252 556 OFFCURVE",
"313 556 CURVE SMOOTH",
"375 556 OFFCURVE",
"421 549 OFFCURVE",
"485 530 CURVE",
"485 654 LINE",
"431 670 OFFCURVE",
"373 678 OFFCURVE",
"308 678 CURVE SMOOTH",
"170 678 OFFCURVE",
"67 618 OFFCURVE",
"67 509 CURVE SMOOTH",
"67 411 OFFCURVE",
"151 363 OFFCURVE",
"219 331 CURVE SMOOTH"
);
},
{
closed = 1;
nodes = (
"170 399 LINE",
"32 374 LINE",
"32 252 LINE",
"305 331 LINE"
);
},
{
closed = 1;
nodes = (
"292 181 LINE",
"349 302 LINE",
"286 370 LINE",
"137 181 LINE"
);
}
);
width = 581;
},
{
anchors = (
{
name = abvm.candra;
position = "{324, 634}";
},
{
name = abvm.e;
position = "{395, 634}";
},
{
name = blwm.r;
position = "{357, -65}";
},
{
name = blwm.u;
position = "{368, -65}";
},
{
name = blwm.uu;
position = "{326, -65}";
},
{
name = blwm.virama;
position = "{306, 0}";
}
);
layerId = "AD34CA4C-F33B-4C65-9C83-752D01B8F810";
name = Light;
paths = (
{
closed = 1;
nodes = (
"352 295 OFFCURVE",
"437 263 OFFCURVE",
"437 165 CURVE SMOOTH",
"437 78 OFFCURVE",
"347 50 OFFCURVE",
"280 50 CURVE SMOOTH",
"207 50 OFFCURVE",
"142 66 OFFCURVE",
"83 92 CURVE",
"83 33 LINE",
"149 4 OFFCURVE",
"213 -5 OFFCURVE",
"277 -5 CURVE SMOOTH",
"382 -5 OFFCURVE",
"499 47 OFFCURVE",
"499 169 CURVE SMOOTH",
"499 262 OFFCURVE",
"434 311 OFFCURVE",
"358 338 CURVE",
"361 326 LINE",
"529 370 LINE",
"529 426 LINE",
"271 352 LINE",
"324 354 LINE",
"245 375 OFFCURVE",
"153 400 OFFCURVE",
"153 481 CURVE SMOOTH",
"153 555 OFFCURVE",
"220 584 OFFCURVE",
"297 584 CURVE SMOOTH",
"359 584 OFFCURVE",
"413 573 OFFCURVE",
"455 559 CURVE",
"455 617 LINE",
"403 632 OFFCURVE",
"347 639 OFFCURVE",
"294 639 CURVE SMOOTH",
"190 639 OFFCURVE",
"91 591 OFFCURVE",
"91 485 CURVE SMOOTH",
"91 399 OFFCURVE",
"162 348 OFFCURVE",
"241 326 CURVE SMOOTH"
);
},
{
closed = 1;
nodes = (
"255 357 LINE",
"60 313 LINE",
"60 257 LINE",
"339 330 LINE"
);
},
{
closed = 1;
nodes = (
"255 135 LINE",
"346 332 LINE",
"287 330 LINE",
"191 135 LINE"
);
}
);
width = 580;
}
);
},
{
glyphname = gjKH_RA;
lastChange = "2015-07-03 10:48:41 +0000";
layers = (
{
layerId = UUID0;
name = Bold;
paths = (
{
closed = 1;
nodes = (
"632 671 LINE",
"632 0 LINE",
"774 0 LINE",
"774 671 LINE"
);
},
{
closed = 1;
nodes = (
"418 303 LINE",
"670 303 LINE",
"670 420 LINE",
"418 420 LINE"
);
},
{
closed = 1;
nodes = (
"362 517 LINE",
"362 362 LINE SMOOTH",
"362 318 OFFCURVE",
"343 295 OFFCURVE",
"299 295 CURVE SMOOTH",
"256 295 OFFCURVE",
"237 318 OFFCURVE",
"237 362 CURVE SMOOTH",
"237 529 LINE SMOOTH",
"237 620 OFFCURVE",
"167 671 OFFCURVE",
"88 671 CURVE SMOOTH",
"47 671 OFFCURVE",
"18 664 OFFCURVE",
"18 664 CURVE",
"18 547 LINE",
"30 551 OFFCURVE",
"43 554 OFFCURVE",
"55 554 CURVE SMOOTH",
"77 554 OFFCURVE",
"95 545 OFFCURVE",
"95 516 CURVE SMOOTH",
"95 379 LINE SMOOTH",
"95 251 OFFCURVE",
"171 177 OFFCURVE",
"299 177 CURVE SMOOTH",
"428 177 OFFCURVE",
"504 251 OFFCURVE",
"504 379 CURVE SMOOTH",
"504 517 LINE"
);
},
{
closed = 1;
nodes = (
"640 298 LINE",
"245 -20 LINE",
"439 -20 LINE",
"684 179 LINE"
);
}
);
width = 837;
},
{
layerId = "AD34CA4C-F33B-4C65-9C83-752D01B8F810";
name = Light;
paths = (
{
closed = 1;
nodes = (
"663 634 LINE",
"663 0 LINE",
"725 0 LINE",
"725 634 LINE"
);
},
{
closed = 1;
nodes = (
"417 323 LINE",
"669 323 LINE",
"669 378 LINE",
"417 378 LINE"
);
},
{
closed = 1;
nodes = (
"388 495 LINE",
"388 349 LINE SMOOTH",
"388 283 OFFCURVE",
"359 241 OFFCURVE",
"281 241 CURVE SMOOTH",
"213 241 OFFCURVE",
"182 288 OFFCURVE",
"182 348 CURVE SMOOTH",
"182 527 LINE SMOOTH",
"182 598 OFFCURVE",
"127 639 OFFCURVE",
"70 639 CURVE SMOOTH",
"58 639 OFFCURVE",
"46 638 OFFCURVE",
"35 636 CURVE",
"35 582 LINE",
"40 583 OFFCURVE",
"48 584 OFFCURVE",
"57 584 CURVE SMOOTH",
"94 584 OFFCURVE",
"120 571 OFFCURVE",
"120 516 CURVE SMOOTH",
"120 355 LINE SMOOTH",
"120 252 OFFCURVE",
"183 186 OFFCURVE",
"281 186 CURVE SMOOTH",
"388 186 OFFCURVE",
"450 245 OFFCURVE",
"450 355 CURVE SMOOTH",
"450 495 LINE"
);
},
{
closed = 1;
nodes = (
"671 295 LINE",
"260 -40 LINE",
"350 -40 LINE",
"673 225 LINE"
);
}
);
width = 820;
}
);
},
{
glyphname = gjG_RA;
lastChange = "2015-07-03 10:48:41 +0000";
layers = (
{
layerId = UUID0;
name = Bold;
paths = (
{
closed = 1;
nodes = (
"471 671 LINE",
"471 0 LINE",
"613 0 LINE",
"613 671 LINE"
);
},
{
closed = 1;
nodes = (
"390 589 OFFCURVE",
"268 678 OFFCURVE",
"132 678 CURVE SMOOTH",
"104 678 OFFCURVE",
"76 674 OFFCURVE",
"48 666 CURVE",
"48 543 LINE",
"71 552 OFFCURVE",
"96 556 OFFCURVE",
"118 556 CURVE SMOOTH",
"195 556 OFFCURVE",
"245 509 OFFCURVE",
"245 444 CURVE",
"245 379 OFFCURVE",
"195 333 OFFCURVE",
"118 333 CURVE SMOOTH",
"89 333 OFFCURVE",
"61 339 OFFCURVE",
"33 350 CURVE",
"33 227 LINE",
"63 216 OFFCURVE",
"99 210 OFFCURVE",
"132 210 CURVE SMOOTH",
"268 210 OFFCURVE",
"390 299 OFFCURVE",
"390 444 CURVE"
);
},
{
closed = 1;
nodes = (
"479 307 LINE",
"107 -20 LINE",
"296 -20 LINE",
"523 184 LINE"
);
}
);
width = 676;
},
{
layerId = "AD34CA4C-F33B-4C65-9C83-752D01B8F810";
name = Light;
paths = (
{
closed = 1;
nodes = (
"490 634 LINE",
"490 0 LINE",
"552 0 LINE",
"552 634 LINE"
);
},
{
closed = 1;
nodes = (
"347 558 OFFCURVE",
"249 639 OFFCURVE",
"135 639 CURVE SMOOTH",
"107 639 OFFCURVE",
"75 634 OFFCURVE",
"54 627 CURVE",
"54 571 LINE",
"77 580 OFFCURVE",
"102 584 OFFCURVE",
"124 584 CURVE SMOOTH",
"228 584 OFFCURVE",
"285 520 OFFCURVE",
"285 432 CURVE SMOOTH",
"285 337 OFFCURVE",
"220 279 OFFCURVE",
"125 279 CURVE SMOOTH",
"102 279 OFFCURVE",
"60 286 OFFCURVE",
"37 296 CURVE",
"37 241 LINE",
"68 229 OFFCURVE",
"100 224 OFFCURVE",
"130 224 CURVE SMOOTH",
"247 224 OFFCURVE",
"347 301 OFFCURVE",
"347 426 CURVE SMOOTH"
);
},
{
closed = 1;
nodes = (
"496 295 LINE",
"126 -20 LINE",
"214 -20 LINE",
"498 225 LINE"
);
}
);
width = 647;
}
);
},
{
glyphname = gjGH_RA;
lastChange = "2015-07-03 10:48:41 +0000";
layers = (
{
layerId = UUID0;
name = Bold;
paths = (
{
closed = 1;
nodes = (
"451 671 LINE",
"451 0 LINE",
"593 0 LINE",
"593 671 LINE"
);
},
{
closed = 1;
nodes = (
"259 131 LINE",
"48 -45 LINE",
"237 -45 LINE",
"473 159 LINE",
"451 349 LINE",
"451 248 OFFCURVE",
"387 194 OFFCURVE",
"291 194 CURVE SMOOTH",
"231 194 OFFCURVE",
"190 220 OFFCURVE",
"190 264 CURVE SMOOTH",
"190 300 OFFCURVE",
"223 323 OFFCURVE",
"263 323 CURVE SMOOTH",
"333 323 LINE",
"333 442 LINE",
"276 442 LINE SMOOTH",
"239 442 OFFCURVE",
"202 460 OFFCURVE",
"202 502 CURVE SMOOTH",
"202 550 OFFCURVE",
"247 564 OFFCURVE",
"283 564 CURVE SMOOTH",
"318 564 OFFCURVE",
"349 558 OFFCURVE",
"369 553 CURVE",
"369 670 LINE",
"331 678 OFFCURVE",
"294 682 OFFCURVE",
"255 682 CURVE SMOOTH",
"144 682 OFFCURVE",
"58 625 OFFCURVE",
"58 533 CURVE SMOOTH",
"58 418 OFFCURVE",
"170 380 OFFCURVE",
"271 380 CURVE SMOOTH",
"293 380 LINE",
"293 394 LINE",
"263 394 LINE SMOOTH",
"139 394 OFFCURVE",
"45 352 OFFCURVE",
"45 246 CURVE SMOOTH",
"45 138 OFFCURVE",
"156 76 OFFCURVE",
"271 76 CURVE",
"302 76 OFFCURVE",
"333 80 OFFCURVE",
"364 91 CURVE"
);
}
);
width = 656;
},
{
layerId = "AD34CA4C-F33B-4C65-9C83-752D01B8F810";
name = Light;
paths = (
{
closed = 1;
nodes = (
"469 634 LINE",
"469 0 LINE",
"531 0 LINE",
"531 634 LINE"
);
},
{
closed = 1;
nodes = (
"343 148 LINE",
"124 -40 LINE",
"212 -40 LINE",
"492 208 LINE",
"469 330 LINE",
"469 225 OFFCURVE",
"379 155 OFFCURVE",
"273 155 CURVE SMOOTH",
"204 155 OFFCURVE",
"132 184 OFFCURVE",
"132 257 CURVE SMOOTH",
"132 328 OFFCURVE",
"204 357 OFFCURVE",
"269 357 CURVE SMOOTH",
"314 357 LINE",
"314 412 LINE",
"267 412 LINE SMOOTH",
"203 412 OFFCURVE",
"142 436 OFFCURVE",
"142 501 CURVE SMOOTH",
"142 561 OFFCURVE",
"194 591 OFFCURVE",
"263 591 CURVE SMOOTH",
"289 591 OFFCURVE",
"315 588 OFFCURVE",
"340 581 CURVE",
"340 635 LINE",
"312 643 OFFCURVE",
"283 646 OFFCURVE",
"255 646 CURVE SMOOTH",
"160 646 OFFCURVE",
"80 596 OFFCURVE",
"80 508 CURVE SMOOTH",
"80 426 OFFCURVE",
"155 378 OFFCURVE",
"236 378 CURVE SMOOTH",
"283 378 LINE",
"283 390 LINE",
"245 390 LINE SMOOTH",
"157 390 OFFCURVE",
"70 346 OFFCURVE",
"70 253 CURVE SMOOTH",
"70 155 OFFCURVE",
"170 100 OFFCURVE",
"271 100 CURVE SMOOTH",
"300 100 OFFCURVE",
"327 105 OFFCURVE",
"353 113 CURVE"
);
}
);
width = 626;
}
);
},
{
glyphname = gjC_RA;
lastChange = "2015-07-03 10:48:41 +0000";
layers = (
{
layerId = UUID0;
name = Bold;
paths = (
{
closed = 1;
nodes = (
"23 312 LINE",
"207 312 LINE SMOOTH",
"323 312 OFFCURVE",
"417 372 OFFCURVE",
"417 489 CURVE SMOOTH",
"417 613 OFFCURVE",
"315 678 OFFCURVE",
"199 678 CURVE SMOOTH",
"153 678 OFFCURVE",
"111 671 OFFCURVE",
"82 665 CURVE",
"82 545 LINE",
"115 554 OFFCURVE",
"147 558 OFFCURVE",
"185 558 CURVE SMOOTH",
"233 558 OFFCURVE",
"273 535 OFFCURVE",
"273 494 CURVE SMOOTH",
"273 444 OFFCURVE",
"224 431 OFFCURVE",
"186 431 CURVE SMOOTH",
"23 431 LINE"
);
},
{
closed = 1;
nodes = (
"497 671 LINE",
"497 0 LINE",
"639 0 LINE",
"639 671 LINE"
);
},
{
closed = 1;
nodes = (
"282 131 LINE",
"71 -45 LINE",
"260 -45 LINE",
"512 173 LINE",
"497 347 LINE",
"497 268 OFFCURVE",
"436 212 OFFCURVE",
"348 212 CURVE SMOOTH",
"282 212 OFFCURVE",
"227 243 OFFCURVE",
"221 315 CURVE",
"88 320 LINE",
"102 172 OFFCURVE",
"212 92 OFFCURVE",
"332 92 CURVE SMOOTH",
"356 92 OFFCURVE",
"380 96 OFFCURVE",
"402 102 CURVE"
);
}
);
width = 702;
},
{
layerId = "AD34CA4C-F33B-4C65-9C83-752D01B8F810";
name = Light;
paths = (
{
closed = 1;
nodes = (
"35 331 LINE",
"183 331 LINE SMOOTH",
"273 331 OFFCURVE",
"357 381 OFFCURVE",
"357 486 CURVE SMOOTH",
"357 587 OFFCURVE",
"266 639 OFFCURVE",
"173 639 CURVE SMOOTH",
"139 639 OFFCURVE",
"114 635 OFFCURVE",
"94 631 CURVE",
"94 576 LINE",
"117 581 OFFCURVE",
"140 584 OFFCURVE",
"166 584 CURVE SMOOTH",
"240 584 OFFCURVE",
"295 549 OFFCURVE",
"295 484 CURVE SMOOTH",
"295 407 OFFCURVE",
"229 386 OFFCURVE",
"169 386 CURVE SMOOTH",
"35 386 LINE"
);
},
{
closed = 1;
nodes = (
"504 634 LINE",
"504 0 LINE",
"566 0 LINE",
"566 634 LINE"
);
},
{
closed = 1;
nodes = (
"374 148 LINE",
"152 -40 LINE",
"240 -40 LINE",
"523 208 LINE",
"504 340 LINE",
"504 230 OFFCURVE",
"425 172 OFFCURVE",
"332 172 CURVE SMOOTH",
"246 172 OFFCURVE",
"170 224 OFFCURVE",
"166 340 CURVE",
"104 340 LINE",
"110 188 OFFCURVE",
"219 117 OFFCURVE",
"329 117 CURVE SMOOTH",
"357 117 OFFCURVE",
"386 121 OFFCURVE",
"414 132 CURVE"
);
}
);
width = 661;
}
);
},
